<?xml version="1.0" encoding="UTF-8" standalone="no"?>
<svg
   width="152px"
   height="22px"
   viewBox="0 0 152 22"
   version="1.1"
   id="svg1"
   sodipodi:docname="accuweather.svg"
   inkscape:version="1.3 (0e150ed6c4, 2023-07-21)"
   xmlns:inkscape="http://www.inkscape.org/namespaces/inkscape"
   xmlns:sodipodi="http://sodipodi.sourceforge.net/DTD/sodipodi-0.dtd"
   xmlns:xlink="http://www.w3.org/1999/xlink"
   xmlns="http://www.w3.org/2000/svg"
   xmlns:svg="http://www.w3.org/2000/svg">
  <sodipodi:namedview
     id="namedview1"
     pagecolor="#505050"
     bordercolor="#eeeeee"
     borderopacity="1"
     inkscape:showpageshadow="0"
     inkscape:pageopacity="0"
     inkscape:pagecheckerboard="0"
     inkscape:deskcolor="#505050"
     inkscape:zoom="4.8289474"
     inkscape:cx="76"
     inkscape:cy="11.079019"
     inkscape:window-width="1366"
     inkscape:window-height="699"
     inkscape:window-x="0"
     inkscape:window-y="0"
     inkscape:window-maximized="1"
     inkscape:current-layer="svg1" />
  <!-- Generator: Sketch 64 (93537) - https://sketch.com -->
  <title
     id="title1">LOGO_HORIZONTAL_BLACK</title>
  <desc
     id="desc1">Created with Sketch.</desc>
  <defs
     id="defs1">
    <polygon
       id="path-1"
       points="0.0157512953 0.0850569948 151.762943 0.0850569948 151.762943 21.7735406 0.0157512953 21.7735406" />
  </defs>
  <g
     id="AWF_CorporateHomepage_Homepage_Desktop_01"
     transform="translate(-60,-30)"
     style="fill:#343537;fill-opacity:1;fill-rule:evenodd;stroke:none;stroke-width:1">
    <g
       id="nav-/-main-/-desktop-/-transparent"
       transform="translate(60)"
       style="fill:#343537;fill-opacity:1">
      <g
         id="nav-/-main-/-dark"
         transform="translate(0,30)"
         style="fill:#343537;fill-opacity:1">
        <g
           id="logo-/-white"
           style="fill:#343537;fill-opacity:1">
          <g
             id="AW_Black"
             style="fill:#343537;fill-opacity:1">
            <g
               id="Group-4"
               style="fill:#343537;fill-opacity:1">
              <mask
                 id="mask-2"
                 fill="#ffffff">
                <use
                   xlink:href="#path-1"
                   id="use1" />
              </mask>
              <g
                 id="Clip-2"
                 style="fill:#343537;fill-opacity:1" />
              <path
                 d="M 29.837416,3.1838618 24.758674,18.244988 v 0.196103 h 2.659606 l 1.045886,-3.182024 h 5.274846 l 1.024359,3.182024 h 2.789817 V 18.244988 L 32.474971,3.1838618 Z m 1.286093,3.9887531 1.809037,5.6229501 H 29.270632 Z M 46.402266,7.9790812 C 45.675606,7.4994542 44.723965,7.2595095 43.546819,7.2595095 h -0.174577 c -1.555178,0 -2.786404,0.4578376 -3.694204,1.3732504 -0.908062,0.9154128 -1.362225,2.1361381 -1.362225,3.6619141 v 1.394777 c 0,1.525775 0.454163,2.746501 1.362225,3.661651 0.9078,0.915675 2.139026,1.373513 3.694204,1.373513 h 0.174577 c 1.075026,0 1.968912,-0.20713 2.680608,-0.621651 0.711958,-0.413997 1.271654,-1.035123 1.678563,-1.863379 l -2.201244,-1.242514 c -0.189015,0.42161 -0.454687,0.759737 -0.795703,1.013596 -0.34154,0.254646 -0.795703,0.381181 -1.362224,0.381181 h -0.174577 c -0.827993,0 -1.438356,-0.253596 -1.830826,-0.762625 -0.392207,-0.508504 -0.588311,-1.162183 -0.588311,-1.961562 v -1.351198 c 0,-0.813817 0.196104,-1.471171 0.588311,-1.97285 0.39247,-0.5008911 1.002833,-0.7515992 1.830826,-0.7515992 h 0.174577 c 0.580697,0 1.042735,0.1341485 1.384013,0.4029707 0.341016,0.2690845 0.606425,0.6287395 0.795441,1.0789635 l 2.310452,-1.0899894 c -0.36333,-0.857133 -0.908324,-1.525513 -1.634459,-2.0048774 z m 10.745009,0 C 56.420615,7.4994542 55.468974,7.2595095 54.292352,7.2595095 h -0.174577 c -1.554915,0 -2.786404,0.4578376 -3.694466,1.3732504 -0.908325,0.9154128 -1.362224,2.1361381 -1.362224,3.6619141 v 1.394777 c 0,1.525775 0.453899,2.746501 1.362224,3.661651 0.908062,0.915675 2.139551,1.373513 3.694466,1.373513 h 0.174577 c 1.075026,0 1.96865,-0.20713 2.680608,-0.621651 0.711696,-0.413997 1.27113,-1.035123 1.678563,-1.863379 l -2.201506,-1.242514 c -0.189015,0.42161 -0.454687,0.759737 -0.79544,1.013596 -0.341541,0.254646 -0.795966,0.381181 -1.362225,0.381181 h -0.174577 c -0.827993,0 -1.438618,-0.253596 -1.830563,-0.762625 -0.392732,-0.508504 -0.588835,-1.162183 -0.588835,-1.961562 v -1.351198 c 0,-0.813817 0.196103,-1.471171 0.588835,-1.97285 0.391945,-0.5008911 1.00257,-0.7515992 1.830563,-0.7515992 h 0.174577 c 0.580961,0 1.042211,0.1341485 1.383752,0.4029707 0.34154,0.2690845 0.606424,0.6287395 0.795703,1.0789635 L 58.781996,9.9839586 C 58.418667,9.1268256 57.873934,8.4584456 57.147275,7.9790812 Z m 2.920552,-0.4360484 v 6.9093062 c 0,1.278742 0.348892,2.310452 1.046149,3.095129 0.69752,0.784677 1.634722,1.177147 2.812131,1.177147 h 0.282998 c 0.653942,0 1.253541,-0.134674 1.798011,-0.403496 0.544994,-0.268822 0.999157,-0.650266 1.362487,-1.144331 l 0.4581,1.264303 H 69.83258 V 7.5430328 h -2.659081 v 6.3643112 c -0.01444,0.726922 -0.21448,1.329934 -0.599337,1.809299 -0.385381,0.479364 -0.926438,0.719309 -1.623958,0.719309 h -0.261209 c -0.581223,0 -1.054024,-0.188753 -1.417092,-0.566784 -0.36333,-0.377769 -0.544995,-1.002833 -0.544995,-1.874667 V 7.5430328 Z M 77.286881,18.441091 80.490694,7.3251399 83.541983,18.441091 h 2.441451 L 90.364394,3.3799655 V 3.1838618 H 87.748629 L 84.871917,13.972712 82.037997,3.1838618 H 79.139233 L 76.15305,14.147288 73.341969,3.1838618 h -2.76829 v 0.1961037 l 4.206383,15.0611255 z m 20.24829,-3.29097 c -0.189278,0.391945 -0.450225,0.700933 -0.78494,0.926176 -0.333927,0.225506 -0.769975,0.337603 -1.307882,0.337603 h -0.174052 c -0.814079,0 -1.427592,-0.224981 -1.842114,-0.675468 -0.413471,-0.450225 -0.650266,-1.038798 -0.708283,-1.76572 h 7.62888 v -1.111254 c 0,-1.700353 -0.450752,-3.0586393 -1.351464,-4.076173 -0.900974,-1.0167461 -2.128525,-1.5257755 -3.68344,-1.5257755 h -0.174315 c -1.554915,0 -2.786666,0.5050915 -3.694466,1.5150121 -0.908325,1.0101831 -1.362487,2.3141274 -1.362487,3.9123594 v 0.719047 c 0,0.784939 0.119972,1.504248 0.359655,2.158189 0.239682,0.653942 0.581222,1.213375 1.024884,1.678038 0.442611,0.465451 0.987606,0.827993 1.634197,1.08999 0.646853,0.261472 1.369575,0.39247 2.168953,0.39247 h 0.174052 c 1.017008,0 1.896456,-0.203979 2.637817,-0.610625 0.740836,-0.406384 1.336497,-1.009396 1.786722,-1.809037 z M 95.311876,9.5702245 c 0.755274,0 1.329409,0.2178929 1.721879,0.6536785 0.39247,0.436049 0.610362,1.017271 0.654203,1.743669 h -4.948006 c 0.04384,-0.726398 0.264884,-1.30762 0.664442,-1.743669 0.400083,-0.4357856 0.977368,-0.6536785 1.733167,-0.6536785 z m 10.069544,9.1543905 c 0.69752,0 1.31864,-0.130998 1.86364,-0.39247 0.54499,-0.261997 0.99889,-0.668117 1.36196,-1.220725 l 0.4581,1.329671 h 2.02667 v -7.14925 c 0,-1.3511985 -0.39195,-2.3682071 -1.17663,-3.0512883 -0.78467,-0.6828187 -1.88228,-1.0246218 -3.29123,-1.0246218 h -0.26173 c -1.26404,0 -2.25979,0.2583213 -2.98619,0.7739137 -0.72666,0.5158549 -1.19893,1.1443316 -1.41656,1.8851675 l 2.35403,0.9592539 c 0.13073,-0.363067 0.35965,-0.668117 0.68649,-0.9154128 0.3271,-0.2470328 0.76657,-0.3706805 1.31891,-0.3706805 h 0.26147 c 0.62454,0 1.08947,0.1527876 1.39478,0.4578373 0.30479,0.30505 0.45758,0.733748 0.45758,1.285831 v 0.544732 h -1.93978 c -1.59849,0 -2.81502,0.312926 -3.65088,0.937465 -0.83535,0.625064 -1.25302,1.460145 -1.25302,2.506819 v 0.152262 c 0,1.017534 0.31581,1.820062 0.9477,2.408373 0.63242,0.588574 1.52237,0.883123 2.67011,0.883123 z m 0.54499,-2.266874 c -0.55234,0 -0.97369,-0.108947 -1.2643,-0.327102 -0.29061,-0.217893 -0.43579,-0.522943 -0.43579,-0.915413 v -0.08689 c 0,-0.406646 0.16329,-0.737686 0.49039,-0.992069 0.32684,-0.254121 0.90439,-0.381444 1.73291,-0.381444 h 1.98309 v 0.392469 c 0,0.784415 -0.21422,1.3659 -0.64266,1.743669 -0.42896,0.378031 -0.99181,0.566784 -1.68906,0.566784 z m 11.13748,-0.403233 c -0.17405,-0.152788 -0.26121,-0.439461 -0.26121,-0.861071 V 9.7009603 h 2.63703 V 7.5430328 h -2.63703 V 5.1454231 h -2.28866 l -0.28379,2.3976097 h -1.78672 v 2.1579275 h 1.69983 v 5.5142657 c 0,1.002833 0.23968,1.791185 0.71931,2.364795 0.47962,0.574397 1.28583,0.86107 2.41939,0.86107 h 2.11409 v -2.157927 h -1.5473 c -0.34889,0 -0.61063,-0.07613 -0.78494,-0.228656 z m 7.01878,2.386583 v -6.36431 c 0.0137,-0.726398 0.21028,-1.329672 0.58805,-1.809299 0.37776,-0.4793646 0.91514,-0.7193093 1.61293,-0.7193093 h 0.26173 c 0.59566,0 1.07135,0.1890156 1.42759,0.5667843 0.35572,0.378031 0.53371,1.00257 0.53371,1.874404 v 6.45173 h 2.68113 v -6.909305 c 0,-1.27848 -0.35256,-2.3104527 -1.05665,-3.0951297 -0.70513,-0.784677 -1.63892,-1.1771468 -2.80136,-1.1771468 h -0.30479 c -0.58175,0 -1.12648,0.1128843 -1.63472,0.3381278 -0.50903,0.2252435 -0.94482,0.5413195 -1.30762,0.9479655 V 3.1838618 H 121.4018 V 18.441091 Z m 16.34643,-3.29097 c -0.18876,0.391945 -0.45075,0.700933 -0.78468,0.926176 -0.33419,0.225506 -0.77024,0.337603 -1.30762,0.337603 h -0.17431 c -0.81408,0 -1.42786,-0.224981 -1.84185,-0.675468 -0.414,-0.450225 -0.6508,-1.038798 -0.70855,-1.76572 h 7.62861 v -1.111254 c 0,-1.700353 -0.45048,-3.0586393 -1.35119,-4.076173 -0.90124,-1.0167461 -2.12905,-1.5257755 -3.68371,-1.5257755 h -0.17431 c -1.55465,0 -2.78641,0.5050915 -3.69421,1.5150121 -0.90858,1.0101831 -1.36248,2.3141274 -1.36248,3.9123594 v 0.719047 c 0,0.784939 0.11997,1.504248 0.35991,2.158189 0.23969,0.653942 0.58096,1.213375 1.02384,1.678038 0.44366,0.465451 0.98839,0.827993 1.63498,1.08999 0.64659,0.261472 1.36958,0.39247 2.16896,0.39247 h 0.17431 c 1.01701,0 1.89646,-0.203979 2.63703,-0.610625 0.7411,-0.406384 1.33676,-1.009396 1.78751,-1.809037 z m -2.2233,-5.5798965 c 0.75528,0 1.32994,0.2178929 1.72214,0.6536785 0.39221,0.436049 0.61037,1.017271 0.65368,1.743669 h -4.94722 c 0.0433,-0.726398 0.26436,-1.30762 0.66445,-1.743669 0.39929,-0.4357856 0.97736,-0.6536785 1.73264,-0.6536785 z m 9.50276,8.8708665 v -5.536317 c 0,-1.133306 0.24021,-1.892518 0.71983,-2.277375 0.47911,-0.385119 1.24961,-0.57781 2.30993,-0.57781 h 1.02462 V 7.5430328 h -0.87183 c -0.78468,0 -1.46067,0.1165596 -2.02719,0.3486287 -0.56679,0.2325941 -1.01019,0.5667841 -1.32941,1.0025699 L 147.0113,7.5430328 H 145.05 V 18.441091 Z"
                 id="Fill-1"
                 fill="#FFFFFF"
                 mask="url(#mask-2)"
                 style="fill:#343537;fill-opacity:1" />
              <g
                 id="Group"
                 mask="url(#mask-2)"
                 fill="#FFFFFF"
                 style="fill:#343537;fill-opacity:1">
                <g
                   transform="translate(0,0.085057)"
                   id="g1"
                   style="fill:#343537;fill-opacity:1">
                  <path
                     d="M 21.705548,10.82219 19.232069,8.5820933 20.237002,5.4000691 16.974646,4.6967737 16.252712,1.4383558 13.076988,2.4598273 10.82429,0 8.5828808,2.4726909 5.4008566,1.4685458 4.6967737,4.7285389 1.4391433,5.4504732 2.4600898,8.627247 0,10.880995 l 2.4721658,2.239834 -1.0038826,3.181762 3.2610432,0.703295 0.7214093,3.258418 3.1783489,-1.019896 2.2524354,2.459827 2.240097,-2.472428 3.182549,1.004407 0.704608,-3.259993 3.25658,-0.724297 -1.021997,-3.176511 z m -10.856843,7.560359 c -4.1478414,0 -7.5220314,-3.374715 -7.5220314,-7.522818 0,-4.1454788 3.37419,-7.5207189 7.5220314,-7.5207189 4.146528,0 7.519931,3.3752401 7.519931,7.5207189 0,4.148103 -3.373403,7.522818 -7.519931,7.522818 z"
                     id="Fill-3"
                     style="fill:#343537;fill-opacity:1" />
                  <path
                     d="M 6.1065147,6.1073022 C 8.72438,3.489437 12.982743,3.489437 15.599558,6.1067772 c 2.614977,2.6157651 2.61629,6.8741278 -0.0013,9.4917308 -2.61604,2.616027 -6.873878,2.616027 -9.4912183,-5.25e-4 C 3.4902245,12.980905 3.4902245,8.7233299 6.1065147,6.1073022"
                     id="Fill-5"
                     style="fill:#343537;fill-opacity:1" />
                </g>
              </g>
            </g>
          </g>
        </g>
      </g>
    </g>
  </g>
</svg>
