<svg id="Layer_1" data-name="Layer 1" xmlns="http://www.w3.org/2000/svg" viewBox="0 0 578.09 82.68">
    <defs>
        <style>.cls-1{fill:#231f20}</style>
    </defs>
    <path class="cls-1"
        d="M41.35 70.02A28.65 28.65 0 1 1 70 41.37a28.68 28.68 0 0 1-28.65 28.65m41.36-28.79-9.42-8.54 3.79-12.1-12.42-2.68L61.91 5.5l-12.1 3.89L41.23.02l-8.54 9.42-12.12-3.85-2.68 12.42-12.41 2.75 3.89 12.1L0 41.45l9.42 8.53L5.59 62.1l12.42 2.68 2.75 12.41 12.11-3.88 8.58 9.37 8.53-9.42 12.12 3.83 2.69-12.42 12.4-2.76-3.84-12.1Z" />
    <path class="cls-1"
        d="M41.35 18.04a23.08 23.08 0 1 0 23.07 23.08 23.08 23.08 0 0 0-23.07-23.08m521.3 51.88V48.84q0-6.48 2.74-8.68t8.8-2.2h3.9v-9.55h-3.32a20.4 20.4 0 0 0-7.72 1.33 11.59 11.59 0 0 0-5.07 3.82l-2-5.15h-7.47v41.51Zm-36.2-33.79q4.32 0 6.56 2.49a10.55 10.55 0 0 1 2.49 6.65h-18.85a10.42 10.42 0 0 1 2.54-6.65 8.5 8.5 0 0 1 6.6-2.49Zm8.47 21.26a8.05 8.05 0 0 1-8 4.81h-.66c-3.11 0-5.44-.85-7-2.57a10.89 10.89 0 0 1-2.7-6.73h29.06v-4.23q0-9.72-5.15-15.53t-14-5.81h-.66q-8.9 0-14.08 5.77t-5.19 14.91v2.73a23.65 23.65 0 0 0 1.38 8.23 18.13 18.13 0 0 0 3.9 6.39 17.56 17.56 0 0 0 6.22 4.15 21.83 21.83 0 0 0 8.27 1.49h.66a20.55 20.55 0 0 0 10-2.32 17.3 17.3 0 0 0 6.81-6.89Zm-62.27 12.53V45.68a11.13 11.13 0 0 1 2.24-6.89 7.37 7.37 0 0 1 6.15-2.74h1a7.12 7.12 0 0 1 5.44 2.16c1.36 1.44 2 3.82 2 7.14v24.57h10.22V43.59c0-4.87-1.35-8.81-4-11.79a13.64 13.64 0 0 0-10.67-4.49h-1.16a15.18 15.18 0 0 0-6.23 1.29 14.38 14.38 0 0 0-5 3.61v-20.4h-10.2v58.11Zm-26.73-9.09c-.67-.58-1-1.67-1-3.28V36.59h10v-8.22h-10v-9.13h-8.72l-1.08 9.13h-6.77v8.22h6.47v21q0 5.73 2.74 9t9.22 3.27h8.05v-8.22h-5.89a4.43 4.43 0 0 1-3-.87m-42.43 1.54a7.91 7.91 0 0 1-4.81-1.25 4.1 4.1 0 0 1-1.67-3.48v-.34a4.58 4.58 0 0 1 1.87-3.77q1.88-1.45 6.6-1.46h7.56v1.58q0 4.49-2.45 6.64a9.37 9.37 0 0 1-6.43 2.16Zm-2.08 8.63a16.13 16.13 0 0 0 7.1-1.49 12.82 12.82 0 0 0 5.19-4.65l1.75 5.06h7.72V42.69q0-7.73-4.49-11.62t-12.53-3.9h-1c-4.81 0-8.61 1-11.37 2.94a13.42 13.42 0 0 0-5.4 7.18l9 3.66a7.49 7.49 0 0 1 2.61-3.49 8.16 8.16 0 0 1 5-1.41h1q3.57 0 5.32 1.74a6.65 6.65 0 0 1 1.74 4.9v2.08h-7.42q-9.13 0-13.91 3.57a11.33 11.33 0 0 0-4.77 9.55v.58a11.91 11.91 0 0 0 3.61 9.17Q394.19 71 400.75 71Zm-38.35-34.87q4.31 0 6.56 2.49a10.61 10.61 0 0 1 2.49 6.65h-18.87a10.46 10.46 0 0 1 2.53-6.65 8.53 8.53 0 0 1 6.6-2.49Zm8.47 21.26a8.05 8.05 0 0 1-8 4.81h-.67c-3.1 0-5.44-.85-7-2.57a10.89 10.89 0 0 1-2.7-6.73h29.06v-4.23q0-9.72-5.15-15.53t-14-5.81h-.74q-8.88 0-14.07 5.77t-5.19 14.91v2.73a23.88 23.88 0 0 0 1.37 8.23 18.28 18.28 0 0 0 3.9 6.39 17.69 17.69 0 0 0 6.23 4.15 21.78 21.78 0 0 0 8.26 1.49h.67a20.55 20.55 0 0 0 10-2.32 17.37 17.37 0 0 0 6.81-6.89Zm-77.13 12.53 12.18-42.27 11.62 42.34h9.3l16.69-57.34v-.74h-10l-11 41.09-10.79-41.09h-11l-11.34 41.74-10.73-41.78h-10.53v.78l16 57.37Zm-65.59-41.51v26.32q0 7.31 4 11.79a13.62 13.62 0 0 0 10.71 4.48h1.08a15.3 15.3 0 0 0 6.85-1.53 14.12 14.12 0 0 0 5.19-4.36l1.74 4.81h7.64V28.41h-10.17v24.24a11 11 0 0 1-2.28 6.9 7.51 7.51 0 0 1-6.19 2.74h-1a7.14 7.14 0 0 1-5.4-2.16q-2.07-2.16-2.07-7.14V28.41Zm-11.13 1.66q-4.15-2.73-10.87-2.74h-.67q-8.88 0-14.07 5.23t-5.19 13.95v5.31q0 8.73 5.19 13.95t14.07 5.23h.67a20.16 20.16 0 0 0 10.21-2.36 16.25 16.25 0 0 0 6.39-7.1l-8.39-4.73a9.65 9.65 0 0 1-3 3.86 8.46 8.46 0 0 1-5.18 1.45h-.67c-3.15 0-5.48-1-7-2.91a11.82 11.82 0 0 1-2.25-7.47v-5.09a11.8 11.8 0 0 1 2.25-7.51c1.49-1.91 3.82-2.86 7-2.86h.67a8.32 8.32 0 0 1 5.27 1.53 10.14 10.14 0 0 1 3 4.11l8.8-4.15a16.73 16.73 0 0 0-6.23-7.64m-40.93 0q-4.15-2.73-10.88-2.74h-.66q-8.88 0-14.07 5.23t-5.19 13.95v5.31q0 8.73 5.19 13.95T165.23 71h.66a20.18 20.18 0 0 0 10.22-2.36 16.25 16.25 0 0 0 6.39-7.1l-8.39-4.73a9.65 9.65 0 0 1-3 3.86 8.47 8.47 0 0 1-5.19 1.45h-.66c-3.16 0-5.48-1-7-2.91a11.88 11.88 0 0 1-2.24-7.47v-5.15a11.86 11.86 0 0 1 2.24-7.51c1.5-1.91 3.82-2.86 7-2.86h.66a8.33 8.33 0 0 1 5.28 1.53 10.14 10.14 0 0 1 3 4.11l8.8-4.15a16.73 16.73 0 0 0-6.23-7.64M118.57 27l6.89 21.42h-14Zm-4.9-15.19L94.35 69.18v.74h10.13l4-12.12h20.09l3.91 12.12h10.62v-.74l-19.34-57.37ZM573 69.92a3.28 3.28 0 1 1 3.2-3.27 3.23 3.23 0 0 1-3.2 3.27Zm0-6a2.71 2.71 0 1 0 2.6 2.72 2.64 2.64 0 0 0-2.6-2.71Zm-1.25.8h1.19c.92 0 1.44.39 1.44 1.15v.09a1.05 1.05 0 0 1-.67 1.06l.75 1.38h-.83l-.66-1.27h-.43v1.27h-.79Zm.79.74v.94h.48c.36 0 .56-.15.56-.46v-.05c0-.28-.2-.43-.56-.43Z" />
</svg>