<?xml version="1.0" encoding="UTF-8" standalone="no"?>
<svg
   id="e3oRFj6f4mr1"
   viewBox="0 0 458.00201 246.49699"
   shape-rendering="geometricPrecision"
   text-rendering="geometricPrecision"
   version="1.1"
   sodipodi:docname="air_quality.svg"
   inkscape:version="1.3 (0e150ed6c4, 2023-07-21)"
   width="458.00201"
   height="246.49699"
   xmlns:inkscape="http://www.inkscape.org/namespaces/inkscape"
   xmlns:sodipodi="http://sodipodi.sourceforge.net/DTD/sodipodi-0.dtd"
   xmlns="http://www.w3.org/2000/svg"
   xmlns:svg="http://www.w3.org/2000/svg">
  <defs
     id="defs140" />
  <sodipodi:namedview
     id="namedview140"
     pagecolor="#ffffff"
     bordercolor="#eeeeee"
     borderopacity="1"
     inkscape:showpageshadow="0"
     inkscape:pageopacity="0"
     inkscape:pagecheckerboard="0"
     inkscape:deskcolor="#505050"
     showgrid="true"
     inkscape:zoom="18.499696"
     inkscape:cx="222.13879"
     inkscape:cy="181.48947"
     inkscape:window-width="1366"
     inkscape:window-height="699"
     inkscape:window-x="0"
     inkscape:window-y="0"
     inkscape:window-maximized="1"
     inkscape:current-layer="e3oRFj6f4mr1">
    <inkscape:grid
       id="grid140"
       units="px"
       originx="0"
       originy="0"
       spacingx="1"
       spacingy="1"
       empcolor="#0099e5"
       empopacity="0.30196078"
       color="#0099e5"
       opacity="0.14901961"
       empspacing="5"
       dotted="false"
       gridanglex="30"
       gridanglez="30"
       visible="true" />
  </sodipodi:namedview>
  <path
     d="m 209.22726,82.786994 -2.50949,-17.086836 1.90533,-0.232559 2.5013,17.031122 z"
     fill="#b6b8b8"
     stroke-width="0.350579"
     id="path52-5-5" />
  <path
     d="m 247.58113,65.265339 -2.89346,17.026018 -1.88394,-0.3676 2.88404,-16.970504 z"
     fill="#b6b8b8"
     stroke-width="0.350579"
     id="path53-9-3" />
  <path
     d="m 121.63697,127.03579 15.29857,8.01317 -0.93178,1.67814 -15.24869,-7.98706 z"
     fill="#b6b8b8"
     stroke-width="0.350579"
     id="path54-7-5" />
  <path
     d="m 132.5036,111.50004 13.85669,10.30775 -1.18283,1.51171 -13.8115,-10.27414 z"
     fill="#b6b8b8"
     stroke-width="0.350579"
     id="path55-5-6" />
  <path
     d="m 144.50166,97.713785 12.07361,12.348495 -1.40475,1.30808 -12.03423,-12.308252 z"
     fill="#b6b8b8"
     stroke-width="0.350579"
     id="path56-3-2" />
  <path
     d="m 174.43568,76.482929 7.66679,15.475071 -1.74022,0.809956 -7.64178,-15.424619 z"
     fill="#b6b8b8"
     stroke-width="0.350579"
     id="path57-8-9" />
  <path
     d="m 191.54052,69.368444 5.15158,16.48389 -1.8455,0.527759 -5.13476,-16.430149 z"
     fill="#b6b8b8"
     stroke-width="0.350579"
     id="path58-8-1" />
  <path
     d="m 335.36996,127.24748 -15.47507,7.66679 -0.80996,-1.74021 15.42462,-7.64178 z"
     fill="#b6b8b8"
     stroke-width="0.350579"
     id="path59-3-2" />
  <path
     d="m 325.66681,111.91337 -14.08519,9.99324 -1.07222,-1.59208 14.03928,-9.96065 z"
     fill="#b6b8b8"
     stroke-width="0.350579"
     id="path60-1-7" />
  <path
     d="m 313.32306,98.281618 -12.34849,12.073612 -1.30808,-1.40475 12.30825,-12.034236 z"
     fill="#b6b8b8"
     stroke-width="0.350579"
     id="path61-8-0" />
  <path
     d="m 282.15201,76.128324 -8.01317,15.298578 -1.67814,-0.93178 7.98706,-15.248694 z"
     fill="#b6b8b8"
     stroke-width="0.350579"
     id="path62-9-9" />
  <path
     d="m 265.19943,69.336836 -5.5213,16.363759 -1.80324,-0.657791 5.50331,-16.310403 z"
     fill="#b6b8b8"
     stroke-width="0.350579"
     id="path63-6-3" />
  <path
     d="m 226.61165,84.999736 0.0447,-21.107908 H 229.49 v 21.107908 z"
     fill="#2b2d2f"
     stroke-width="0.350823"
     id="path135-2-6" />
  <path
     d="m 133.41958,153.64243 -20.06101,-6.56519 0.87565,-2.69499 20.07481,6.5227 z"
     fill="#2b2d2f"
     stroke-width="0.350823"
     id="path136-9-0" />
  <path
     d="m 169.07817,104.32887 -12.37077,-17.102918 2.29249,-1.665594 12.40692,17.076662 z"
     fill="#2b2d2f"
     stroke-width="0.350823"
     id="path137-9-6" />
  <path
     d="m 322.12424,149.01217 20.08862,-6.48022 0.87566,2.69499 -20.07482,6.5227 z"
     fill="#2b2d2f"
     stroke-width="0.350823"
     id="path138-0-2" />
  <path
     d="m 284.15139,101.63567 12.44305,-17.050397 2.29249,1.665594 -12.40691,17.076663 z"
     fill="#2b2d2f"
     stroke-width="0.350823"
     id="path139-8-6" />
  <path
     d="m 228.8376,61.116311 c -68.4099,7.7e-5 -124.56552,57.027079 -124.56514,122.265439 l 2.80845,0.76756 c 3.5e-4,-65.5709 54.90134,-120.399538 121.75669,-120.399768 66.85564,-1.54e-4 121.05379,54.828598 121.05415,120.399768 l 2.90195,-0.80352 C 352.79409,118.10716 297.24779,61.116004 228.8376,61.116311 Z"
     fill="#2b2d2f"
     stroke="#000"
     stroke-width="0.991296"
     stroke-linejoin="round"
     id="path140-1-1"
     style="stroke:#2b2d2f;stroke-opacity:1" />
  <path
     d="M 27.516433,182.99797 H 430.48558 v 2.87836 H 27.516433 Z"
     fill="#2b2d2f"
     stroke-width="1.87736"
     id="path141-3"
     inkscape:transform-center-x="7.3423712"
     inkscape:transform-center-y="-56.125478"
     sodipodi:nodetypes="ccccc" />
  <path
     d="m 227.87233,184.97321 -46.63633,-73.17385 -2.90613,9.67227 -2.7615,-0.61166 4.26035,-13.9243 14.29203,2.10021 -0.61167,2.7615 -9.84616,-1.54494 v 0 L 231,184.53326"
     fill="#2b2d2f"
     id="path2"
     sodipodi:nodetypes="cccccccccc"
     style="fill:#2b2d2f;fill-opacity:1;stroke-width:0.432077" />
</svg>
