<svg viewBox="0 0 458.002 246.497" shape-rendering="geometricPrecision"
   text-rendering="geometricPrecision" width="458.002" height="246.497"
   xmlns="http://www.w3.org/2000/svg">
   <path
      d="m209.227 82.787-2.51-17.087 1.906-.232 2.501 17.03zm38.354-17.522-2.893 17.026-1.884-.367 2.884-16.97zm-125.944 61.771 15.299 8.013-.932 1.678-15.249-7.987zm10.867-15.536 13.856 10.308-1.183 1.511-13.811-10.274zm11.998-13.786 12.073 12.348-1.404 1.308-12.035-12.308zm29.934-21.231 7.666 15.475-1.74.81-7.642-15.425zm17.104-7.115 5.152 16.484-1.845.528-5.135-16.43zm143.83 57.879-15.475 7.667-.81-1.74 15.425-7.642zm-9.703-15.334-14.085 9.994-1.073-1.592 14.04-9.961zm-12.344-13.631-12.348 12.073-1.309-1.405 12.309-12.034zm-31.171-22.154-8.013 15.299-1.678-.932 7.987-15.249zM265.2 69.337 259.677 85.7l-1.803-.658 5.503-16.31z"
      fill="#b6b8b8" />
   <path
      d="m226.612 85 .044-21.108h2.834V85zm-93.192 68.642-20.061-6.565.875-2.695 20.075 6.523zm35.658-49.313-12.37-17.103L159 85.56l12.407 17.077zm153.046 44.683 20.089-6.48.876 2.695-20.075 6.523zm-37.973-47.376 12.443-17.05 2.293 1.665-12.407 17.077z"
      fill="#2b2d2f" />
   <path
      d="M228.838 61.116c-68.41 0-124.566 57.027-124.566 122.266l2.809.767c0-65.57 54.901-120.4 121.757-120.4 66.855 0 121.053 54.83 121.054 120.4l2.902-.803c0-65.239-55.546-122.23-123.956-122.23Z"
      fill="#2b2d2f" stroke="#000" stroke-width=".991" stroke-linejoin="round"
      style="stroke:#2b2d2f;stroke-opacity:1" />
   <path d="M27.516 182.998h402.97v2.878H27.516Z" fill="#2b2d2f" />
   <path
      d="M227.872 184.973 181.236 111.8l-2.906 9.673-2.762-.612 4.26-13.924 14.293 2.1-.612 2.761-9.846-1.545L231 184.533"
      fill="#2b2d2f" style="fill:#2b2d2f;fill-opacity:1;stroke-width:.432077" />
</svg>