<svg version="1.0" width="710.667" height="710.667" viewBox="0 0 533 533" xmlns="http://www.w3.org/2000/svg"><path d="M141.7 11.4c-6.7 2.5-12.2 7.6-15.3 14.1-4 8.5-2.9 19.9 2.8 27.5 2.7 3.7 13 10.7 17 11.5 3.2.8 3.8 2.5.8 2.5-3.2 0-11.6 4.6-15.5 8.5-3.8 3.9-8.5 12.3-8.5 15.4 0 1.1-.4 2.3-1 2.6-.5.3-1-.2-1-1.2 0-3-4.5-11.7-8.1-15.8-9.3-10.6-28.4-11.5-38.3-1.9-6.1 5.9-8.1 10.7-8.1 19.9 0 6.9.4 8.6 2.7 12.6 4.3 7.3 12 13.2 19.3 14.9l3 .7-4.9 2.2c-16.4 7.3-24 21.4-19.2 35.9C70.7 170.6 83 180 92.5 180c5.4 0 14.7-4.3 19.4-9.1 3.2-3.1 7.7-11.1 9.1-15.9.7-2.3.8-2.4 1.5-.5 2.4 7 6.5 14.1 9.7 17.1 5.6 5 13 8.4 18.4 8.4 9.3 0 22.5-9.9 25.2-18.8 4.5-14.9-2.4-28.9-17.4-35.4-5.3-2.3-6.9-3.8-3.9-3.8 2.8 0 11.3-4.9 14.9-8.6 4.8-4.9 6.9-9.8 7.4-17.1 1-14.3-6.9-24.3-23.3-29.8-1.6-.6-1.1-1 3-2.6 8.4-3.2 14.5-8.6 18.6-16.4 2-3.9 3.9-7.1 4.3-7.3.5-.2 2 2.3 3.5 5.5 3.8 7.8 7.4 11.9 13.4 14.9 13.8 7.1 29.6 1.4 36.3-13 8.5-18.2-6.5-39.2-26.6-37.3-10.4.9-18.2 6.8-23.3 17.4-1.6 3.5-3 6.3-3.2 6.3s-1.4-2.4-2.8-5.3c-3-6.7-7.7-12-13.4-15.4-5.5-3.2-15.8-4.1-21.6-1.9zm-16 93.3c4.2 8.7 12.3 15.4 20.8 17.3 2.9.6 2.8.7-3.5 3.7-3.6 1.6-8.2 4.4-10.1 6.1-3.7 3.2-9.1 12.4-10.4 17.7l-.7 3-1.2-4c-3.2-10.2-9.1-17.2-19-22.3-5.9-3-6.7-3.7-4.7-4 1.3-.2 5.1-2 8.5-4 6.8-4.2 13-12.1 14.9-19 1.1-4 1.2-4.1 2-2 .5 1.3 2 4.6 3.4 7.5zm302.8-92.3c-17.8 8.2-21.8 29.5-8.2 43 8.3 8.2 17.7 10.4 28 6.6 18.3-6.9 23.5-30.3 9.8-44-8-8-19.7-10.2-29.6-5.6zM372.6 69c-4.4 1.4-10.2 5.8-13 9.9-7.3 10.5-6 25.6 3 34.5 12.7 12.8 35.2 9 43-7.2 2.6-5.3 3-14.9.9-21.1-1.8-5.4-7.4-11.9-12.7-14.7-3.8-2-16.7-2.9-21.2-1.4zm114.6.3c-4.5 1.4-11.8 8.1-14.4 13-2.9 5.8-3.5 14.2-1.3 20.8 2.3 6.8 10.1 14.9 16.1 16.7 15.2 4.5 30.2-2.9 34.7-16.9 2.1-6.4 2.1-10.1.1-16.9-2-6.7-9.9-15-16-16.8-4.9-1.4-14.6-1.4-19.2.1zM429.3 127c-7 2.8-13.8 10.3-15.9 17.8-7.7 26.4 25.1 45.6 44.5 26.2 7.8-7.7 9.9-17.2 6.4-27.9-4.4-13.8-21.2-21.5-35-16.1zM89.5 182c-9.3 2-17.3 8.9-22.5 19.1-2.3 4.6-4 7.2-4 6 0-6.1-9-17.9-16.5-21.6-5.7-2.9-17.5-2.7-23.1.2-21 11.1-20 38.4 1.8 49.2 3.4 1.7 6.7 3.1 7.5 3.1.7 0 1.3.4 1.3 1 0 .5-.9 1-2.1 1-3.9 0-12.8 5.1-16.9 9.7-4.1 4.7-7 12-7 17.8 0 5.5 2.8 13 6.6 17.3 4 4.8 12.7 10.2 16.2 10.2 3.8 0 2.4 1.4-4.3 4.4-16.4 7.3-22.8 24-14.8 38.7 8.3 15.4 29.2 18.6 41.7 6.4 4.8-4.6 9.6-13 9.6-16.7 0-1.4 1.5.8 4 5.8 2.3 4.7 5.5 9.5 7.5 11.3 5.4 4.7 13.1 8.3 17.9 8.3 5.3 0 14.3-4.2 19.1-8.8 3.4-3.4 8-11.3 9.5-16.4.5-1.8.9-2.1 1.3-1 .3.8 1.3 3.6 2.3 6.3 3.6 9.9 16.5 19.9 25.8 19.9 5.1 0 12.9-3.7 18.5-8.7 3.5-3.2 8-10.6 9.6-16 .5-1.6 1.3-.5 3.9 5.1 3.9 8.3 8.7 13.2 16.4 16.9 7.7 3.6 12.5 3.5 20.2-.6 6.9-3.6 10.9-7.8 14.5-14.9 6.1-12 .1-26.4-14-34.4-2.7-1.4-5.9-2.9-7.2-3.2-2.8-.8-3-2.4-.3-2.4 5.5 0 16.6-8.5 20.3-15.4 1.7-3.2 2.2-5.8 2.2-12.1 0-9.6-2.1-14.2-8.9-20.2-5.2-4.6-10.1-6.3-17.7-6.3-12.7.1-21.8 7.4-26.5 20.8-1.3 4.1-2.6 4.4-3.5.9-1.2-4.3-5-10.7-8.4-14.2-3.9-3.9-12.3-8.5-15.5-8.5-3.4 0-2.2-1.5 2.8-3.2 16.6-6 24.7-22.6 18.2-37.5-3.9-9-15.8-17.5-24.5-17.5-10.5 0-23 10.5-27.2 23l-1.6 4.6-1.1-3.4c-2.9-9.4-8.7-16.5-17.1-20.7-6.2-3.2-10.1-4.1-14-3.3zm-16 46.3c3.7 3.8 14.1 9.7 17 9.7.9 0 1.3.4 1 1-.3.5-1.5 1-2.6 1-2.9 0-9.4 3.6-14.1 7.8-2.7 2.4-5.5 6.6-7.9 11.7-2.4 4.9-3.9 7.1-3.9 5.7 0-3.2-4.5-11.6-8.6-16.2-3.8-4.2-12.4-9-16.1-9-1.3 0-2.3-.5-2.3-1 0-.6.7-1 1.5-1 2.6 0 13.1-5.7 16.3-8.9 3.8-3.8 9.2-13.4 9.2-16.3.1-1.5 1.3.2 3.5 4.7 1.9 3.9 5 8.8 7 10.8zm49.5-14.7c0 1.8 3.5 8.7 6.4 12.8 2.7 3.8 12.9 10.4 17.2 11.2 3.5.6 3.7 2.4.3 2.4-3.1 0-11.5 4.7-15.4 8.5-3.8 3.9-8.5 12.3-8.5 15.4 0 1.1-.4 2.3-1 2.6-.5.3-1-.2-1-1.3 0-3.3-6-14-9.6-17.1-4.2-3.7-12.5-8.1-15.4-8.1-3.5 0-2.2-1.5 2.8-3.2 9.7-3.5 17.5-11.2 20.9-20.9 1.6-4.5 3.3-5.6 3.3-2.3zm-48.2 73.6C79.5 291.4 86 295 89 295c2.7 0 2.5 1.6-.3 2.4-4.2 1-12 5.9-15.7 9.7-2 2.1-5.1 7.1-6.8 11.1-2.6 6-3.1 6.8-3.2 4.3 0-3.8-4.9-12.3-9.5-16.8-1.9-1.9-6.4-4.7-10-6.3-6.6-3-8.1-4.4-4.5-4.4 2.8 0 9.2-3.4 13.5-7.1C56.9 284 63 273.8 63 270.2c0-2 1-.7 3.9 5.3 2.4 5.1 5.2 9.3 7.9 11.7zm50.9-9.4c4.2 8.6 11.2 14.3 21.8 17.7 1.6.5.8 1.1-3.8 3-3.2 1.2-7.7 3.9-10 5.8-4.3 3.5-9.8 12.4-11.2 18.2l-.7 3-1.3-4.2c-3.1-10.3-10.1-18.1-19.7-22.3-6.2-2.7-7.3-4-3.4-4 1.3 0 5.3-1.9 8.8-4.3 7-4.7 12.2-11.5 14.1-18.5 1.1-4 1.2-4.1 2-2 .5 1.3 2 4.7 3.4 7.6zm64.4 9.7c3.7 3.1 12.2 7.5 14.4 7.5 3.1 0 1.3 1.7-4.2 4-7.7 3.2-15.3 10.8-18 18-2 5.4-4.3 7.7-4.3 4.5 0-3.4-6.4-13.7-10.7-17.2-2.3-1.9-6.8-4.6-10-5.8-4.6-1.9-5.4-2.5-3.8-3 13.1-4.2 20.8-11.9 25-25 .4-1.5 1.5-.1 4.5 6.2 2.2 4.5 5.4 9.3 7.1 10.8zm66.5 12.5c-6.5 2.6-12.2 8.1-15.7 15.5-3.6 7.4-3.7 12.3-.5 19.2 4.8 10.3 16 18.3 25.6 18.3 8.7 0 18.7-6.4 23.4-14.9 5.7-10.6 4.2-21.8-4-31-7.6-8.4-18.5-11.1-28.8-7.1zm230.8.1c-17.8 6.8-23.1 29.8-9.9 43.3 5.8 6.1 13.1 9.6 19.5 9.6 8.8 0 18.7-6.4 23.5-15.2 2.5-4.5 3-6.4 3-12.3-.1-12-6.4-21.4-17.2-25.5-6.7-2.5-12.3-2.5-18.9.1z" style="fill:#343537;fill-opacity:1"/><path d="M82.6 357.6c-22.3 11.6-22 39.6.6 50.6 2.9 1.4 6.2 2.9 7.3 3.3 1.6.6 1.1.9-2.5 1.9-21.8 5.7-29.1 31.6-13.4 46.9 4.7 4.5 10.9 6.7 18.8 6.7 12.7-.1 22.9-8.5 27.1-22.3l1.3-4.2.7 3c2.3 9 9.5 18.2 16.9 21.6 5.6 2.5 16.6 2.5 22.3 0 7.3-3.3 13.2-10.9 16.8-21.6.7-1.9.8-1.9 1.8.5 4 9.2 5.6 11.9 9.2 15.5 3.7 3.7 10 7.5 15 9 1.5.5.4 1.4-5.2 4.1-12.1 5.8-18 14.8-17.7 27 .6 21.7 27.4 33.2 44.1 18.9 5.6-4.8 10.3-14 10.3-20.1 0-11.7-9.2-22.6-23.5-28-2.7-1.1-2.8-1.2-1-1.9 14.8-5.1 24.5-15.9 24.5-27.3 0-12.1-11.7-25.9-24-28.2-3-.6-3.2-.8-1.5-1.5 6.1-2.3 13-6.3 16-9.2 4.4-4.2 8.7-11.6 9.5-16.2.6-3 .8-3.3 1.4-1.6 4.6 12.7 10.6 19.8 20.8 24.5 7.1 3.3 7.2 3.4 4.2 4-9.4 2-17.7 9-22.1 18.7-3.2 6.9-3.1 11.7.2 18.2 4.6 9.1 12.3 15.7 21.9 18.6 1.5.4.3 1.4-5 3.9-8 3.8-13.5 9.4-17.1 17.3-3.2 6.9-3.1 10.8 0 17.7 10.7 23.4 40.7 23.4 51.4 0 3.1-6.9 3.2-10.8 0-17.7-3.6-7.9-9.1-13.5-17.1-17.3-5.3-2.5-6.5-3.5-5-3.9 9.8-3 17.9-10 22.1-19.2 3.1-6.8 3.1-10.8 0-17.6-4.4-9.7-12.7-16.7-22.1-18.7-3-.6-2.9-.7 4.2-4 4.5-2.1 8.7-4.9 11.2-7.6 4-4.3 9-13.2 9-15.9 0-.8.5-1.5 1-1.5.6 0 1 .9 1 2 0 3.3 4.8 11.8 8.9 15.8 3.4 3.3 10.3 7.3 16.6 9.7 1.7.7 1.5.9-1.5 1.5-12.3 2.3-24 16.1-24 28.2 0 11.4 9.7 22.2 24.5 27.3 1.8.7 1.7.8-1 1.9-14.3 5.4-23.5 16.3-23.5 28 0 6.1 4.7 15.3 10.3 20.1 15.4 13.2 39.6 4.9 43.7-15 .9-4.5.8-6.6-.5-11.7-2.5-9.8-8.2-15.9-19.1-20.3l-5.7-2.3 3.9-1.1c9.3-2.5 18-11 21.9-21.3 1.6-4.4 3.5-5.6 3.5-2.2 0 2.7 5 11.3 8.6 15 5.4 5.3 10.6 7.4 18.9 7.4s13.5-2.1 18.9-7.4c3.7-3.8 7.8-10.9 9.1-16.1l.7-3 1.2 4c5.4 17.5 20.4 26.2 36.8 21.3 5-1.5 12.3-7.9 15-13.1 7.8-15.4-1.6-34.7-19.2-39.3l-4.5-1.2 3-1.1c11.5-4.4 18-10.2 23-20.5 2.5-5.2 3.4-6.4 3.5-4.6 0 3.4 5.1 12.1 9.6 16.4 4.2 4.1 12.7 7.6 18.4 7.6 6.8 0 14.4-3.6 19.4-9.1 13-14.4 8.6-34-9.6-43.2-9.9-5-19.8-2.7-29.3 6.8-4 4-8.5 12.3-8.5 15.7-.1 1.5-1.3-.3-3.4-4.8-3.7-7.9-9.1-13.9-15.1-16.9-5.3-2.7-17.5-2.7-22.3-.2-7.7 4.2-14.7 13-17.2 21.7-.7 2.3-.8 2.4-1.4.5-2.1-6.3-7.3-15-10.8-18-10.1-8.6-24.6-8.5-34.7.2-4.4 3.7-10.1 12.5-10.1 15.5 0 3.3-1.8 1.8-4.3-3.5-3.1-6.7-7.7-12-13.6-15.5-3.9-2.3-5.7-2.7-12.1-2.7-8.7 0-13.4 1.9-19.2 7.7-4.1 4.1-8.8 12.5-8.8 15.8 0 1.1-.4 2-1 2-.5 0-1-.7-1-1.7 0-2.9-5.4-12.4-9.2-16.2-5.1-5.1-13.3-9.1-18.8-9.1s-13.7 4-18.8 9.1c-3.8 3.8-9.2 13.3-9.2 16.2 0 1-.4 1.7-1 1.7-.5 0-1-.9-1-2 0-3.3-4.8-11.8-9-16-5.4-5.4-12.8-9-18.6-9-9.5 0-21.1 8.7-26.1 19.6-2.4 5.3-4.3 7-4.3 3.8 0-2.7-5.8-12-9.6-15.3-9.2-8.1-18.6-10.1-27.4-5.6-7.8 4-11.7 8.1-16 16.9-2.2 4.4-4 7.3-4 6.3 0-3.3-5.8-13.3-9.9-17-9.7-8.7-19.4-10.8-28.5-6.1zm40.4 29.1c0 .8 1.4 4.2 3.2 7.6 3.8 7 10.5 12.8 17.9 15.4 5.1 1.8 6.4 3.3 2.9 3.3-3.2 0-11.6 4.6-15.6 8.6-3.6 3.7-8.4 12.4-8.4 15.6 0 .9-.4 2-1 2.3-.5.3-1-.2-1-1.3 0-3.3-6-14-9.6-17.1-4.1-3.6-10.7-7.2-14.9-8.1-2.9-.6-2.8-.7 3.6-3.7 3.7-1.7 8.4-4.7 10.6-6.7 4.1-3.6 10.3-14 10.3-17 0-1 .5-1.4 1-1.1.6.3 1 1.3 1 2.2zm292.3 8.6c3.5 5.9 8.7 10.4 16.6 14.1 6.4 2.9 6.5 3 3.6 3.6-4.2.9-10.8 4.5-14.9 8.1-3.6 3.1-9.6 13.8-9.6 17.1 0 1.1-.4 1.6-1 1.3-.5-.3-1-1.4-1-2.3 0-3.2-4.8-11.9-8.4-15.6-4-4-12.4-8.6-15.6-8.6-3.4 0-2.2-1.5 2.8-3.2 7.8-2.9 14.2-8.4 17.9-15.8 1.8-3.6 3.5-7.4 3.8-8.5.6-1.7.9-1.4 1.9 1.7.7 2 2.5 5.6 3.9 8.1zm-232.9-4.1c2.6 7.2 8.6 13.2 17.3 17.5 7.2 3.5 7.4 3.8 4.7 4.4-4.6.9-11 4.6-14.9 8.4-3.6 3.6-8.5 12.2-8.5 14.9 0 2.3-1.9 3-2.6.9-1.8-5.7-5.3-12-8.6-15.4-4-4.1-12.5-8.9-15.8-8.9-3.5 0-2.2-1.5 2.9-3.3 8.3-2.9 14.4-8.6 18.7-17.2 2.1-4.2 4-7.2 4.4-6.8s1.4 2.9 2.4 5.5zm173.4.1c1.6 3.5 4.3 7.9 6.1 10 3.1 3.4 13.9 9.7 16.8 9.7.7 0 1.3.4 1.3 1 0 .5-.9 1-2 1-3.2 0-11.6 4.6-15.5 8.5-3.6 3.6-8.5 12.2-8.5 14.9 0 2.3-1.9 3-2.6.9-4-12.7-13.2-22-23.9-24.3-2.9-.6-2.8-.7 3.6-3.7 10.6-4.9 16.7-11.7 20.3-22.6.3-.9.7-1.7 1-1.7.2 0 1.7 2.8 3.4 6.3z" style="fill:#343537;fill-opacity:1"/></svg>