<svg version="1.0" width="860" height="710.667" viewBox="0 0 645 533" xmlns="http://www.w3.org/2000/svg"><path d="M3672 4664c-163-81-192-312-54-436 46-42 93-68 137-78 29-6 28-7-35-38-36-17-81-44-100-60-41-34-91-120-100-172-6-29-8-32-14-15-25 68-65 141-94 171-126 129-338 102-426-56-27-48-31-65-31-130 0-87 19-134 77-192 117-117 260-116 379 3 41 41 89 128 89 162 0 9 5 17 10 17 6 0 10-9 10-21 0-33 59-136 97-169 93-82 187-100 280-52 77 38 121 84 159 166 26 56 34 67 39 51 37-120 139-219 250-245 26-6 27-8 10-14-63-22-149-73-181-108-20-22-47-65-61-94-13-30-26-54-28-54s-16 27-31 60c-46 104-168 194-259 192-48 0-127-37-178-81-36-32-86-117-97-165-6-27-8-29-15-11-43 117-95 181-184 229-87 47-146 39-255-33-46-30-113-128-122-177-7-37-24-47-24-14 0 27-42 108-76 149-71 85-204 115-305 69-71-32-116-78-152-155-16-35-30-63-32-63s-15 24-28 54c-14 29-41 71-61 93-38 43-141 103-175 103-12 0-21 5-21 10 0 6 9 10 20 10 30 0 115 46 160 86 76 69 101 169 70 279-10 36-28 64-65 101-104 104-254 112-362 19-40-34-94-125-108-180l-7-30-13 43c-20 64-75 149-115 177-91 63-197 70-291 19-117-64-167-197-123-326 45-133 213-222 330-173 92 38 184 142 201 226 5 29 23 31 23 3 0-31 55-126 92-159 43-39 128-85 158-85 11 0 20-4 20-10 0-5-9-10-20-10-29 0-112-44-154-80-39-35-77-96-96-155l-13-39-12 39c-31 105-124 199-227 230-52 15-91 9-155-24-70-35-111-79-153-163-24-48-40-71-40-58 0 40-62 141-111 180-109 86-261 78-359-20-54-54-74-104-75-185 0-80 23-139 77-194 33-34 135-91 163-91 31 0 14-18-24-24-47-7-124-58-163-107-16-20-40-62-53-95-18-45-25-54-30-39-18 62-75 153-113 182-85 64-220 72-308 18-133-83-173-256-86-380 33-47 123-112 170-121 17-3 32-9 32-13s-29-19-65-35c-111-48-185-154-185-263 0-42 32-125 64-168 14-18 54-47 87-64 139-70 287-20 370 123 16 28 29 59 29 69 0 32 16 17 39-37 30-74 79-127 151-165 101-54 194-38 293 49 39 34 97 137 97 171 0 16 14-5 40-57 42-86 82-129 153-165 64-33 103-39 153-24 105 32 189 114 226 220 9 28 19 43 21 35 22-72 44-115 79-155 41-46 140-105 178-105 11 0 20-4 20-10 0-5-9-10-20-10-29 0-112-44-155-81-20-18-52-66-75-113-22-44-40-72-40-62s-12 44-27 74c-74 145-231 219-346 161-80-41-124-85-167-170-23-46-40-72-40-60 0 28-41 107-77 148-15 18-55 48-87 68-49 29-70 35-116 35-106 0-229-99-260-208-43-157 71-322 234-339 108-11 205 42 268 146 21 36 38 76 39 90 0 19 9 8 34-45 49-106 112-161 240-209 17-7 14-9-16-15-20-3-56-18-80-32-95-56-139-125-147-229-4-56-1-75 20-120 50-109 127-158 246-159 57 0 83 5 121 24 73 38 128 108 156 201l13 40 11-40c6-22 24-63 41-92 52-91 128-133 238-133 79 0 154 31 197 82 30 36 75 121 75 142 0 35 20 22 34-21 24-71 78-138 138-173 46-26 63-30 126-30 115 0 182 38 241 135 19 31 37 73 41 93 6 30 8 33 14 17 62-172 147-245 286-245s224 73 286 245c6 16 8 13 14-17 4-20 22-62 41-93 59-97 126-135 241-135 63 0 80 4 126 30 60 35 114 102 138 173 14 43 34 56 34 21 0-21 45-106 75-142 92-110 308-109 401 1 23 28 51 80 82 157 10 25 11 25 11 2 1-33 46-116 87-162 53-58 106-80 195-80 120 1 197 50 247 159 44 97 20 222-60 300-39 39-99 72-148 81-30 6-32 8-15 15 128 48 191 103 240 209 25 53 34 64 34 45 1-44 73-151 125-186 83-57 158-67 250-33 128 48 202 192 166 322-18 65-70 128-139 170-55 32-73 38-121 38-47 0-66-6-116-36-32-19-69-44-81-56-28-27-83-130-83-158 0-13-16 10-40 59-43 85-87 129-167 170-115 58-272-16-345-161-16-30-28-64-28-74s-18 18-40 62c-23 47-55 95-75 113-43 37-126 81-155 81-11 0-20 5-20 10 0 6 9 10 21 10 36 0 139 61 179 108 33 37 55 80 77 152 2 8 12-7 21-35 37-106 121-188 226-220 50-15 89-9 153 24 71 36 111 79 153 165 26 52 40 73 40 57 0-34 58-137 97-171 54-48 131-82 184-82 100 0 222 95 264 207 18 46 35 59 35 28 0-10 13-41 29-69 83-143 231-193 370-123 33 17 73 46 87 64 32 43 64 126 64 168 0 109-74 215-185 263-36 16-65 31-65 35s14 9 30 13c43 8 133 68 165 110 30 39 55 113 55 161 0 54-28 129-64 171-37 43-140 104-175 104-12 0-21 5-21 10 0 6 6 10 13 10 8 0 41 14 75 31 223 111 227 393 7 495-96 45-205 27-289-46-40-36-96-124-96-152 0-32-15-18-44 44-34 72-82 123-155 162-91 49-173 34-277-49-43-35-104-138-104-175 0-13-16 10-40 58-42 84-83 128-153 163-64 33-103 39-155 24-103-31-196-125-227-230l-12-39-13 39c-19 59-57 120-96 155-42 36-125 80-154 80-11 0-20 5-20 10 0 6 9 10 20 10 30 0 115 46 158 85 37 33 92 128 92 159 0 30 18 25 24-7 3-18 25-61 49-96 83-125 215-173 325-117 80 41 119 81 162 170 26 52 40 73 40 57 0-34 58-137 97-171 93-82 193-101 284-54 105 53 169 150 169 255 0 56-37 145-76 185-59 58-109 79-194 79-65 0-82-4-128-30-30-16-65-42-78-58-34-40-74-121-74-149-1-15-15 7-40 59-45 92-81 128-180 175l-65 32 32 6c46 10 115 53 155 98 51 57 72 118 66 196-9 108-68 192-163 232-41 17-143 18-196 2-76-22-154-112-184-211l-13-42-11 40c-6 22-24 63-41 92-52 91-128 133-238 133-79 0-154-31-197-82-30-36-75-121-75-142 0-37-19-21-39 32-45 124-139 192-267 192-55 0-81-5-122-26zm1041-366c14-24 36-53 49-65 33-30 122-81 150-85 19-3 9-11-48-40-39-20-86-51-103-69-37-36-91-137-92-171 0-23-1-23-10 2-57 140-107 199-205 242-53 23-69 38-39 38 28 0 113 49 150 85 37 37 77 109 90 160l7 30 13-42c7-23 24-62 38-85zm-613 86c0-21 45-106 74-141 26-31 132-93 160-93 31 0 15-15-42-40-74-32-153-109-177-175-23-62-33-74-40-49-33 103-98 179-190 220-63 28-81 44-49 44 30 0 135 63 165 99 16 19 41 63 56 97 25 58 43 74 43 38zM2940 3244c0-25 49-113 87-155 36-39 137-99 168-99 8 0 15-4 15-10 0-5-10-10-23-10-38 0-123-48-162-92-38-42-85-130-85-160 0-10-4-18-10-18-5 0-10 9-10 21 0 33-50 128-86 165-39 38-122 84-154 84-33 0-23 16 18 29 69 21 142 81 184 150 21 36 38 78 38 93 0 17 4 27 10 23 6-3 10-13 10-21zm-1670-129c30-44 121-107 173-120 32-8 36-25 7-25-31 0-113-45-151-82-18-18-50-69-70-113-24-49-39-71-39-57 0 38-56 136-100 176-46 41-112 75-147 76-13 0-23 5-23 10 0 6 7 10 16 10 36 0 157 74 186 114 40 56 68 111 69 138 0 16 8 8 25-31 14-29 38-73 54-96zm523 108c19-88 111-185 210-220 50-19 61-33 26-33-32 0-137-59-165-93-32-38-74-121-74-146 0-11-4-23-10-26-5-3-10 2-10 13 0 35-61 142-102 176-45 39-117 76-148 76-11 0-20 5-20 10 0 6 7 10 15 10 26 0 113 49 155 86 37 34 100 141 100 171 0 23 17 5 23-24zm1727 17c0-25 33-93 68-137 27-36 120-97 165-108 32-8 36-25 7-25-32 0-115-46-154-84-36-37-86-132-86-165 0-12-4-21-10-21-5 0-10 8-10 18 0 30-47 118-85 160-39 44-124 92-162 92-13 0-23 5-23 10 0 6 7 10 15 10 27 0 130 57 162 90 34 35 93 138 93 164 0 9 5 16 10 16 6 0 10-9 10-20zm1193-93c14-24 42-58 62-76 39-34 126-81 150-81 8 0 15-4 15-10 0-5-9-10-21-10-29 0-118-46-152-78-36-34-76-100-92-155l-13-42-7 30c-11 43-50 117-79 152-28 34-133 93-165 93-35 0-24 14 27 32 78 29 142 84 179 158 18 36 35 74 38 85 6 17 9 14 19-17 7-20 25-56 39-81zm557 33c38-73 82-119 149-154 38-20 76-36 86-36 27 0 7-17-28-24-41-8-129-62-155-96-33-43-72-124-72-150 0-17-12-1-39 55-20 44-52 95-70 113-38 37-120 82-151 82-36 0-21 14 48 45 85 38 132 86 174 175 30 65 33 69 39 43 3-15 11-39 19-53zm-2897 32c8-42 66-122 115-159 24-18 65-40 92-50 53-19 65-33 28-33-13 0-50-15-83-33-69-38-122-102-149-177-17-46-36-59-36-24 0 21-45 106-74 141-28 34-133 93-165 93-36 0-23 14 28 33 83 29 144 86 187 171 20 42 40 73 44 71 4-3 10-17 13-33zm1751-37c43-86 104-143 187-172 51-19 64-33 28-33-32 0-137-59-165-93-29-35-74-120-74-141 0-23-19-30-26-9-14 50-70 146-97 169-39 33-121 74-147 74-11 0-20 5-20 10 0 6 6 10 13 10 8 0 41 14 75 30 87 44 139 107 175 213 4 9 8 17 10 17s21-34 41-75zm1709 48c19-88 111-185 210-220 49-18 61-33 27-33-26 0-108-41-147-74-28-23-82-119-98-171-5-15-11-7-30 39-13 33-37 75-53 95-39 49-116 100-163 107-38 6-55 24-24 24 28 0 130 57 164 92 18 18 47 63 64 100 18 37 35 67 38 67 4 1 9-11 12-26zm-4530-724c32-31 92-64 152-84 16-5 12-10-26-24-61-24-132-74-160-112-12-17-34-61-50-97-22-52-29-61-29-39 0 39-44 121-88 165-20 20-67 51-104 67-69 31-84 45-48 45 30 0 95 35 140 76 47 42 100 133 100 171 0 22 9 9 39-53 21-44 54-96 74-115zm509 101c11-24 33-61 49-81 28-36 132-99 163-99s15-17-38-39c-29-12-71-37-93-56-40-34-94-125-108-180l-7-30-13 42c-31 103-101 181-197 223-62 27-73 40-34 40 13 0 53 19 88 43 70 47 122 115 141 185 11 40 12 42 20 20 5-13 18-43 29-68zm1128 70c0-29 44-113 82-155 37-42 123-95 156-95 38 0 24-14-43-44-36-16-81-44-100-63-38-37-95-140-95-173 0-11-4-20-10-20-5 0-10 11-10 25 0 27-29 90-63 139-23 32-111 91-165 111-32 11-34 14-17 20 62 21 120 53 151 83 44 43 94 129 94 165 0 15 5 27 10 27 6 0 10-9 10-20zm614-93c47-81 106-126 211-162 17-6 15-9-17-20-117-42-208-140-228-245-6-30-8-32-15-15-54 142-99 196-200 241-67 30-81 44-42 44 33 0 119 53 157 96 29 33 56 85 85 159 7 17 9 14 15-16 3-20 19-57 34-82zm1168-23c37-55 146-134 184-134 40 0 27-13-40-44-97-42-160-115-191-219l-13-42-7 30c-14 55-68 146-108 180-22 19-64 44-93 56-53 22-69 39-38 39s135 63 163 99c33 42 65 104 76 146l7 30 14-46c8-26 29-69 46-95zm559 30c47-82 151-164 209-164 28 0 25-17-5-24-43-11-141-74-167-108-36-47-68-113-68-140 0-14-16 9-43 62-47 94-100 144-192 179-41 16-46 20-30 26 117 39 176 91 226 198 27 59 35 69 37 49 2-14 17-49 33-78zm-2850-55c28-39 134-109 166-109 38 0 26-13-35-40-77-33-153-109-179-180-20-53-43-78-43-46 0 33-61 135-101 169-23 20-66 46-95 58-53 22-69 39-39 39 22 0 107 44 142 74 27 23 82 117 98 171 5 16 12 7 35-43 16-34 39-76 51-93zm1669 125c0-21 45-106 74-141 26-31 132-93 160-93 32 0 15-17-38-39-82-34-137-87-175-171-18-39-37-68-41-63-3 4-15 30-25 58-24 66-103 143-177 175-61 26-73 40-35 40 12 0 50 18 85 40 65 41 107 95 138 176 16 41 34 51 34 18zm-3452-38c13-30 40-73 59-96 39-46 126-100 161-100 38 0 24-14-44-44-82-37-133-88-170-170-16-36-32-66-35-66-4 0-9 12-12 28-19 87-110 182-212 221-40 15-46 20-30 26 60 19 148 71 174 104 34 43 71 114 71 136 0 30 15 14 38-39zm5182 39c0-22 37-93 71-136 28-36 132-99 163-99 30 0 16-17-26-34-96-37-186-134-205-218-3-16-8-28-12-28-3 0-19 30-35 66-37 82-88 133-170 170-68 30-82 44-43 44 34 0 121 54 160 100 19 23 46 66 59 96 23 53 38 69 38 39zm-2890-562c0-34 48-121 89-162 56-56 133-93 192-93 61 0 158 51 204 107 37 44 74 119 75 148 0 9 5 17 10 17 6 0 10-9 10-20 0-28 44-112 79-153 33-37 117-86 168-98 49-10 117 12 186 61 48 35 63 53 96 122 31 64 42 78 46 63 42-129 114-199 260-251 18-6 16-8-10-14-44-10-109-46-151-82-39-34-94-122-94-150 0-34-17-18-48 45-36 72-86 124-157 161-89 46-171 31-271-49-43-36-104-138-104-176 0-30-13-15-34 41-27 73-77 132-147 173-53 31-73 37-119 37-48 0-66-6-121-39-72-43-133-119-152-188-12-45-27-57-27-22 0 33-59 136-97 169-54 48-126 80-180 80-95 0-211-86-258-191-26-58-45-76-45-41 0 28-55 116-95 150-42 38-126 82-155 82-11 0-20 5-20 10 0 6 9 10 20 10 36 0 135 57 175 102 36 38 60 82 80 143 4 15 15 1 46-63 33-69 48-87 96-122 69-49 137-71 186-61 51 12 135 61 168 98 35 41 79 125 79 153 0 11 5 20 10 20 6 0 10-8 10-17zm-1150-589c0-23 47-110 80-147 30-35 135-97 164-97 9 0 16-4 16-10 0-5-9-10-21-10s-48-14-81-32c-84-45-122-98-165-228-3-9-10 2-18 27-35 117-131 210-240 233-29 6-28 7 36 37 37 17 84 47 106 67 41 36 103 140 103 170 0 10 5 14 10 11 6-3 10-13 10-21zm1150 11c0-27 58-131 92-165 18-18 66-49 107-68l74-35-45-12c-56-14-108-46-149-92-34-39-79-127-79-155 0-10-4-18-10-18-5 0-10 9-10 20 0 31-55 133-91 169-37 38-100 72-149 81-30 6-32 8-15 15 69 26 133 63 166 96 42 42 89 126 89 159 0 11 5 20 10 20 6 0 10-7 10-15zm580-5c0-33 47-117 89-159 33-33 97-70 166-96 17-7 14-9-17-15-55-10-147-70-177-115-34-52-61-111-61-135 0-11-4-20-10-20-5 0-10 8-10 18 0 28-45 116-79 155-41 46-93 78-149 92l-45 12 74 35c41 19 89 50 107 68 34 34 92 138 92 165 0 8 5 15 10 15 6 0 10-9 10-20zm1193-93c35-59 87-104 166-141 64-29 65-30 36-36-42-9-108-45-149-81-36-31-96-138-96-171 0-11-4-16-10-13-5 3-10 15-10 26 0 25-35 94-71 140-30 38-133 99-168 99-12 0-21 5-21 10 0 6 7 10 15 10 24 0 111 47 149 80 30 27 84 120 101 175 6 17 9 14 19-17 7-20 25-56 39-81zm-2343 75c0-28 56-117 96-152 21-18 68-47 103-64 64-30 65-30 35-36-45-10-132-60-160-93-30-35-74-120-74-141 0-23-19-30-26-9-14 50-70 146-97 169-39 33-121 74-147 74-11 0-20 5-20 10 0 6 7 10 16 10 31 0 136 64 170 104 31 36 61 90 78 139 7 21 26 13 26-11zm1739-22c26-83 142-190 224-207 31-6 37-23 7-23-26 0-108-41-147-74-27-23-83-119-97-169-7-21-26-14-26 9 0 21-44 106-74 141-28 33-115 83-160 93-30 6-29 7 35 37 37 17 85 47 107 67 35 32 81 107 97 160 7 24 19 12 34-34z" style="fill:#343537;fill-opacity:1" transform="matrix(.1 0 0 -.1 0 533)"/></svg>