<svg version="1.0" width="710.667" height="710.667" viewBox="0 0 533 533" xmlns="http://www.w3.org/2000/svg"><path d="M203.3 35.3c-13.7 5.3-21.1 19.9-17.3 33.9 2.2 7.9 13.3 18.3 22 20.6 2.6.7 2.9 1 1.2 1.1-3.6.2-11.9 4.8-16.2 9.1s-9 12.6-9.1 16.2c0 1.6-.4 1.1-1.3-1.7-5.7-18.1-23.7-27.3-39.1-20.1-15.9 7.3-21.1 26.1-11.3 40.3 3.3 4.9 13.9 12.3 17.6 12.3 1.2 0 2.2.4 2.2 1 0 .5-.9 1-1.9 1-3.2 0-13.7 6.7-16.9 10.7-3.6 4.7-5.2 7.6-6.8 12.8-1.2 3.6-1.3 3.7-1.3 1.1-.1-3.6-6.2-13.6-10.4-17.2-5.4-4.6-10.5-6.4-18.2-6.4-8.3 0-13.5 2.1-19 7.5-5 5.1-7.7 11.4-7.8 18.4-.1 7.7 1.6 13 5.8 17.9 4.3 5 14.2 11.2 18.1 11.3 2.6 0 2.5.2-1.1 1.3-5.6 1.8-14.8 7.8-17.4 11.4-7.4 10.5-7.2 23.8.5 34 3.2 4.2 12.1 9.9 17.1 11.1 2.5.6 3 .9 1.5 1-6.7.3-18 9-21.8 16.7-10.3 21 9.4 44.5 31.8 38 9.5-2.7 20.6-15 20.9-23.1l.1-3 .7 3c2.6 10.7 11.4 20.1 23 24.6 3.6 1.4 4 1.8 2.1 1.9-3.2 0-11.8 5-16 9.2-9.4 9.4-10.3 24.5-2.2 35.3 7.8 10.4 22.1 13.7 33.8 8 7.4-3.6 14.4-12.6 16.5-21l.7-3 .1 3c.2 5.3 7.7 15.4 15.1 20.2 3.5 2.4 7.5 4.3 8.7 4.3 1.3 0 2.3.4 2.3 1 0 .5-1 1-2.2 1-3.3 0-14 7.1-17.3 11.4-9.9 13-6.1 31.9 8.2 40.3 6.6 3.8 16.9 4.4 24.1 1.3 7.8-3.4 15.6-12.8 17.8-21.5l.7-3 .7 3.6c1.1 6.2 7.8 14.9 15 19.7 3.7 2.4 7.7 4.2 9.5 4.3l3 .1-3.2.9c-10.2 2.9-19.3 11.3-22.3 20.3-1.9 6-.8 16.5 2.3 21.9 8.8 15 28.3 18.4 41.5 7.2 7.6-6.4 11.3-19.5 8.2-29.1-3-9-12.1-17.4-22.3-20.3l-3.2-.9 3-.1c5.3-.2 15.4-7.7 20.3-15.1 2.4-3.7 4.2-7.7 4.3-9.5l.1-3 1.2 3.5c3.1 9.6 10.8 18.4 18.9 21.5 6.7 2.5 17 1.7 23.1-1.9 14.2-8.3 18-27.2 8.1-40.2-3.3-4.3-14-11.4-17.2-11.4-1.3 0-2.3-.5-2.3-1 0-.6 1-1 2.3-1 1.2 0 5.2-1.9 8.7-4.2 7.4-4.9 14.9-15 15.1-20.3.1-2.9.1-2.8 1 .8.5 2.1 2.4 6.2 4.3 9.1 6 9.4 13.7 13.7 24.4 13.7 23.8 0 36-29.2 19.2-45.9-4.2-4.2-12.8-9.2-16-9.2-1.9-.1-1.5-.5 2.1-1.9 11.6-4.5 20.4-13.9 23-24.6l.7-3 .1 3c.2 4.3 5.2 12.6 10.7 17.4 17.4 15.3 44.5 3.1 44.7-20.3.1-11.2-6.2-20.5-18-26.5-2.3-1.1-5.3-2.1-6.5-2.2-1.5-.1-1-.4 1.5-1 5-1.2 13.9-6.9 17.1-11.1 7.9-10.4 7.9-24.2 0-34.5-2.6-3.5-12.4-9.7-17.7-11.2l-3.2-.9 2.9-.1c3.8-.1 13.8-6.3 17.9-11.2 8.7-10.1 7.8-26.7-1.8-36.4-5.5-5.4-10.7-7.5-19-7.5-7.7 0-12.8 1.8-18.2 6.4-4.2 3.6-10.3 13.6-10.4 17.2 0 2.5-.2 2.2-1.4-1.6-2.3-7.3-8.3-15-15-19.2-3.3-2-7-3.7-8.2-3.7-1.3-.1-2.3-.6-2.3-1.1 0-.6 1-1 2.3-1 3.6 0 14.2-7.4 17.5-12.3 9.8-14.2 4.6-33-11.3-40.3-15.4-7.2-33.4 2-39.1 20.1-.9 2.8-1.3 3.3-1.3 1.7-.1-3.6-4.8-11.9-9.1-16.2s-12.6-8.9-16.2-9.1c-1.7-.1-1.5-.3 1.1-1.1 4.8-1.3 13.1-6.9 16.5-10.9 7.5-8.8 8.7-19.4 3.5-29.8-5.3-10.6-15-15.9-26.9-14.8-10.5.9-19 7.8-24.4 19.8-1.9 4.2-2.5 4.8-2.6 2.9 0-1.4-1.8-5.3-3.9-8.6-6.3-10-13.6-14.3-24.1-14.3s-17.8 4.3-24.1 14.3c-2.1 3.3-3.9 7.2-3.9 8.6-.1 1.9-.7 1.3-2.6-2.9-3.3-7.3-8.5-13.5-14.1-16.8-5.3-3.1-16.6-4.1-22-2zm42 38c4.7 8 11.3 13.2 20.7 16.4l3.5 1.1-3 .1c-1.8.1-5.7 1.8-9.5 4.3-7.2 4.8-13.9 13.5-15 19.7l-.7 3.6-.7-3c-2-8.2-8.1-15.8-16.5-20.9-3.2-2-7.2-3.6-8.7-3.7-2.5 0-2.3-.2 1.6-1.5 7.6-2.4 15.1-8.2 19.1-14.9 2-3.3 4-7.4 4.4-9l.7-3 .8 3.2c.4 1.7 1.9 5.2 3.3 7.6zM300 67c0 .8 1.8 4.3 4 7.7 4.2 6.7 11.8 12.5 19.5 14.9 3.6 1.1 3.7 1.3 1.1 1.3-1.5.1-5.4 1.7-8.6 3.6-8.7 5.3-11.8 9.3-16.8 21.5l-1.1 2.5v-3c-.1-5.3-7.7-15.4-15.1-20.3-3.8-2.5-7.7-4.2-9.5-4.3l-3-.1 3.5-1.1c5.6-1.9 11.5-5.4 14.9-8.8 4.2-4.1 9.1-12.7 9.1-15.9 0-2 .2-2.2 1-1 .5.8 1 2.2 1 3zm-111.2 66c4 6 14.9 14 18.9 14 1.3 0 2.3.4 2.3 1 0 .5-1 1-2.3 1-1.2 0-5.2 1.9-8.7 4.2-7.2 4.8-13.3 12.7-14.9 19.3-.5 2.5-.9 3.1-1 1.7-.1-2.9-3.5-9.6-7.3-14.5-3.2-4-13.7-10.7-16.9-10.7-1 0-1.9-.5-1.9-1 0-.6 1-1 2.1-1 3.2 0 13.4-6.6 16.7-10.8 3.8-4.8 7.2-11.5 7.3-14.4.1-1.4.5-.8 1 1.7.6 2.2 2.6 6.5 4.7 9.5zm55.6-3.2c9.5 18.1 32.8 21.9 45.8 7.4 4.5-5 7.8-11.1 7.9-14.9.1-2.7.1-2.7 1.3.7 1.5 4.6 4.9 10.9 7.8 14.2 3.2 3.8 12.8 9.8 15.5 9.8 1.3 0 2.3.4 2.3 1 0 .5-.8 1-1.9 1-2.7 0-10.8 4.8-14.8 8.8-5.2 5.2-7.7 11.4-7.6 19.2 0 7.9 1.8 12.4 7.2 18.3 10.9 11.8 30.5 11.6 40.5-.4 3.7-4.4 7.6-12.3 7.7-15.6 0-2.2.3-1.8 1.3 1.8 1.6 5.9 6.7 14 10.9 17.2 4.6 3.5 11.2 6.7 13.9 6.7 1.5 0 .2.9-3.5 2.4-17.1 7.1-24.4 21.5-18.7 36.9 3.2 8.4 13.3 17.1 22 18.8l3.5.7-3.1.1c-3.5.1-13.5 6.3-17.5 10.7-3.8 4.2-6.7 9.5-7.8 14-.8 3.7-.9 3.7-1 .8-.1-3.6-6-13.9-9.9-17.2-13.8-11.9-33.9-8.4-42.4 7.4-1.4 2.7-2.9 6.6-3.2 8.7-1 5.3 1 13.6 4.4 19.1 3.2 5 11.7 11.1 18.5 13.2 3.6 1.1 3.7 1.3 1.1 1.3-1.5.1-5.5 1.7-8.7 3.7-8.4 5.1-14.5 12.7-16.5 20.9l-.7 3-.7-3.5c-.3-1.9-2.2-6-4.2-9.1-6.1-9.5-13.6-13.9-23.8-13.9s-17.7 4.4-23.8 13.9c-2 3.1-3.9 7.2-4.2 9.1l-.7 3.5-.7-3c-2-8.2-8.1-15.8-16.5-20.9-3.2-2-7.2-3.6-8.7-3.7-2.6 0-2.5-.2 1.1-1.3 6.8-2.1 15.3-8.2 18.5-13.2 3.4-5.5 5.4-13.8 4.4-19.1-.3-2.1-1.8-6-3.2-8.7-8.5-15.8-28.6-19.3-42.4-7.4-3.9 3.3-9.8 13.6-9.9 17.2-.1 3-.1 3-1-.6-.9-4-4.7-10.7-8.3-14.7-3.5-4-13.7-10.1-17-10.2l-3.1-.1 3.5-.7c8.7-1.7 18.8-10.4 22-18.8 5.7-15.4-1.6-29.8-18.7-36.9-3.7-1.5-5-2.4-3.5-2.4 2.7 0 9.3-3.2 13.9-6.7 4.2-3.2 9.3-11.3 10.9-17.2 1-3.6 1.3-4 1.3-1.8.1 3.3 4 11.2 7.7 15.6 7.1 8.4 20.8 11.6 31.2 7.1 5.8-2.5 12.5-9.2 14.9-14.8.9-2.1 1.6-6.6 1.6-10.2 0-7.8-2.5-14.1-7.6-19.2-4-4-12.1-8.8-14.8-8.8-1.1 0-1.9-.5-1.9-1 0-.6 1-1 2.3-1 2.9 0 13.6-7 16.3-10.7 3-4.1 6.1-10.3 7-13.8l.7-3 .7 3.5c.3 1.9 1.4 5 2.4 6.8zm115.4-.2c1.2 2.3 3.3 5.5 4.7 7.2 3.2 3.8 13.5 10.2 16.4 10.2 1.1 0 2.1.4 2.1 1 0 .5-.9 1-1.9 1-3.2 0-13.7 6.7-16.9 10.7-3.8 4.9-7.2 11.6-7.3 14.5-.1 1.4-.5.8-1-1.7-1.6-6.6-7.7-14.5-14.9-19.3-3.5-2.3-7.5-4.2-8.7-4.2-1.3 0-2.3-.5-2.3-1 0-.6 1-1 2.3-1 1.2 0 5.2-1.9 8.7-4.3 7.4-4.8 13.6-12.9 14.7-19.2.7-4 .7-4 1.3-1 .4 1.6 1.6 4.9 2.8 7.1zM130.6 190c4.3 7.4 14.7 14.9 20.6 15 1.6.1.9.6-2.3 1.9-11.6 4.5-20.4 13.9-23 24.6l-.7 3-.1-2.9c-.1-3.6-5.3-12.7-9.6-16.9-3.6-3.5-13-8.6-16.1-8.8-1-.1-.2-.5 1.9-1 5-1.2 13.9-6.9 17-11.1 3.4-4.6 6.7-11.3 6.8-14 .1-1.8.3-1.6 1 .9.5 1.8 2.5 6 4.5 9.3zm286.9-3c4.4 8.7 13 16 21.2 17.9 2.1.5 2.9.9 1.9 1-3.1.2-12.5 5.4-16.2 8.9-4.5 4.3-9.4 12.9-9.5 16.7l-.1 3-.7-3c-2.6-10.7-11.4-20.1-23-24.6-3.2-1.3-3.9-1.8-2.3-1.9 2.7 0 6.9-2.1 12.9-6.2 4.5-3 10.9-12.8 12-18.2l.7-3.1.6 3c.4 1.6 1.5 4.6 2.5 6.5zm-288.4 58.6c1.2 2.2 3.6 5.4 5.3 7.2 4.2 4.5 13.7 10.2 17.2 10.3 2.6.1 2.6.2-.8 1-4 .9-10.7 4.7-14.7 8.3-3.3 2.9-8.8 11.6-9.9 15.7-.9 3-1 3.1-1.1.8-.1-3.2-6.3-13.7-9.9-16.7-4.3-3.6-12.7-8.2-15.3-8.3-2-.1-1.9-.2.7-.8 4.7-1.2 14.8-7.7 17.6-11.4 3.7-4.8 6.8-11.3 6.9-14.4.1-2.5.2-2.4 1 .8.4 2 1.8 5.4 3 7.5zm289.3 1.1c1.6 2.9 3.8 6.1 5 7.2 3.6 3.4 13.9 9.1 16.5 9.2 2.4.1 2.4.2-.4.8-3.4.8-10.6 4.9-14.7 8.3-3.8 3.2-9.8 13.6-9.9 17.2-.1 3-.1 3-1-.7-1.2-5-6.9-13.8-11.3-17.3-4.9-3.9-11.6-7.4-14.6-7.5-1.9-.1-1.6-.3 1.3-1 4.5-1 13.1-6.5 16.8-10.5 3.5-3.8 7.9-12.2 8-15.4.1-1.9.3-1.7.8 1 .4 1.9 2 5.8 3.5 8.7zm-230.6 58c5.1 7.9 13.7 14.6 20.5 16l3.2.7-3.8.8c-10.5 2.2-23.5 16.3-23.8 25.5 0 2.2-.3 1.8-1.3-1.8-2.1-7.7-8.2-15.7-15.5-20.1-3.6-2.1-7.6-3.8-9-3.9-2 0-1.5-.4 2.4-2 10.8-4.2 20.8-14.8 22.3-23.7l.6-3.7.6 3.6c.4 2 2.1 5.9 3.8 8.6zm173.7.8c3.9 6.1 10.6 11.5 18 14.4 3.9 1.6 4.4 2 2.4 2-1.4.1-5.4 1.8-9 3.9-7.3 4.4-13.4 12.4-15.5 20.1-1 3.6-1.3 4-1.3 1.8-.1-3.1-3.2-9.6-6.8-14.4-3.3-4.3-12.2-10.1-17-11.1l-3.8-.8 3.2-.7c3.4-.7 10.2-4.6 14.2-8.1s10.1-13.7 10.2-17c.1-3 .1-3 1 .7.5 2.1 2.4 6.2 4.4 9.2zm-116.2 56.8c4.2 7.1 15.2 15.7 20.2 15.7.8 0 1.5.4 1.5 1 0 .5-.7 1-1.5 1-2.6 0-9.3 3.8-13.6 7.7-4.8 4.3-9 11.2-9.9 16.2l-.7 3.6-.7-3c-1.3-5.1-4.9-11.5-8.8-15.6-3.7-3.8-12.4-8.9-15.3-8.9-.8 0-1.5-.5-1.5-1 0-.6 1-1 2.3-1 3.3 0 14-7.4 16.9-11.7 4.3-6.6 5.5-8.7 6.3-11.8l.8-3 .7 3.2c.4 1.7 1.9 5.1 3.3 7.6zm57-1.8c1.1 2.2 3 5.3 4.1 6.8 2.7 3.7 13.4 10.7 16.3 10.7 1.3 0 2.3.4 2.3 1 0 .5-.7 1-1.5 1-2.9 0-11.6 5.1-15.3 8.9-3.9 4.1-7.5 10.5-8.8 15.6l-.7 3-.7-3.6c-.9-5-5.1-11.9-9.9-16.2-4.3-3.9-11-7.7-13.6-7.7-.8 0-1.5-.5-1.5-1 0-.6.8-1 1.8-1 2.9 0 11.6-5.6 15.5-9.9 4.2-4.7 7.7-11 7.8-14.3 0-2.3 0-2.3 1.1.2.6 1.4 2 4.3 3.1 6.5z" style="fill:#343537;fill-opacity:1"/></svg>