<?xml version="1.0" encoding="UTF-8" standalone="no"?>
<svg
   version="1.0"
   width="643pt"
   height="533pt"
   viewBox="0 0 643 533"
   preserveAspectRatio="xMidYMid"
   id="svg27"
   sodipodi:docname="Pasted-image-1.svg"
   inkscape:version="1.3 (0e150ed6c4, 2023-07-21)"
   xmlns:inkscape="http://www.inkscape.org/namespaces/inkscape"
   xmlns:sodipodi="http://sodipodi.sourceforge.net/DTD/sodipodi-0.dtd"
   xmlns="http://www.w3.org/2000/svg"
   xmlns:svg="http://www.w3.org/2000/svg">
  <defs
     id="defs27" />
  <sodipodi:namedview
     id="namedview27"
     pagecolor="#505050"
     bordercolor="#eeeeee"
     borderopacity="1"
     inkscape:showpageshadow="0"
     inkscape:pageopacity="0"
     inkscape:pagecheckerboard="0"
     inkscape:deskcolor="#505050"
     inkscape:document-units="pt"
     inkscape:zoom="0.68916223"
     inkscape:cx="501.33333"
     inkscape:cy="341.71925"
     inkscape:window-width="1366"
     inkscape:window-height="699"
     inkscape:window-x="0"
     inkscape:window-y="0"
     inkscape:window-maximized="1"
     inkscape:current-layer="svg27" />
  <g
     transform="matrix(0.1,0,0,-0.1,-51.5,531.98315)"
     fill="#000000"
     stroke="none"
     id="g27"
     style="fill:#343537;fill-opacity:1">
    <path
       d="m 1884,4916 c -132,-61 -192,-233 -126,-362 25,-49 91,-110 141,-131 59,-25 151,-20 216,11 165,81 202,279 80,424 -67,80 -208,106 -311,58 z"
       id="path1"
       style="fill:#343537;fill-opacity:1" />
    <path
       d="m 3052,4925 c -171,-74 -220,-288 -98,-432 67,-80 214,-110 308,-64 211,102 210,395 -2,490 -54,25 -158,27 -208,6 z"
       id="path2"
       style="fill:#343537;fill-opacity:1" />
    <path
       d="m 4195,4916 c -102,-47 -161,-146 -153,-258 5,-74 26,-123 75,-172 83,-83 202,-103 307,-52 208,102 197,401 -18,491 -55,23 -152,19 -211,-9 z"
       id="path3"
       style="fill:#343537;fill-opacity:1" />
    <path
       d="m 5342,4914 c -60,-30 -96,-68 -128,-139 -79,-168 57,-368 249,-367 75,0 121,17 177,68 65,59 85,105 85,199 0,88 -11,117 -68,181 -73,84 -212,110 -315,58 z"
       id="path4"
       style="fill:#343537;fill-opacity:1" />
    <path
       d="m 1348,4357 c -158,-45 -242,-232 -169,-376 52,-100 133,-151 240,-151 73,0 125,19 179,65 85,71 116,201 72,303 -24,56 -92,125 -144,147 -50,21 -126,26 -178,12 z"
       id="path5"
       style="fill:#343537;fill-opacity:1" />
    <path
       d="m 2507,4356 c -67,-18 -126,-62 -162,-120 -38,-63 -47,-162 -20,-233 63,-164 264,-225 407,-124 161,115 142,370 -35,455 -66,32 -129,39 -190,22 z"
       id="path6"
       style="fill:#343537;fill-opacity:1" />
    <path
       d="m 3658,4357 c -121,-34 -208,-160 -195,-282 15,-143 126,-245 267,-245 232,0 353,269 199,443 -68,78 -174,111 -271,84 z"
       id="path7"
       style="fill:#343537;fill-opacity:1" />
    <path
       d="m 4817,4356 c -178,-49 -258,-257 -156,-406 121,-177 380,-155 468,40 45,99 16,240 -62,306 -70,59 -168,83 -250,60 z"
       id="path8"
       style="fill:#343537;fill-opacity:1" />
    <path
       d="m 5945,4350 c -112,-43 -175,-133 -175,-249 0,-83 30,-151 90,-204 56,-51 102,-69 175,-69 210,-1 339,218 239,402 -33,61 -72,94 -144,121 -63,24 -121,23 -185,-1 z"
       id="path9"
       style="fill:#343537;fill-opacity:1" />
    <path
       d="m 1882,3184 c -203,-101 -201,-385 4,-484 102,-50 241,-18 319,73 111,130 68,334 -87,411 -73,36 -164,36 -236,0 z"
       id="path10"
       style="fill:#343537;fill-opacity:1" />
    <path
       d="m 3052,3195 c -101,-44 -166,-142 -166,-249 1,-153 118,-271 269,-269 148,1 254,103 263,254 7,109 -49,203 -150,253 -60,30 -160,35 -216,11 z"
       id="path11"
       style="fill:#343537;fill-opacity:1" />
    <path
       d="m 4192,3184 c -59,-29 -107,-80 -134,-142 -25,-55 -21,-158 7,-216 64,-132 226,-187 358,-122 209,102 199,401 -17,491 -58,24 -153,19 -214,-11 z"
       id="path12"
       style="fill:#343537;fill-opacity:1" />
    <path
       d="m 5342,3184 c -201,-100 -199,-381 5,-480 213,-105 445,102 367,328 -50,149 -231,223 -372,152 z"
       id="path13"
       style="fill:#343537;fill-opacity:1" />
    <path
       d="m 1362,2629 c -115,-22 -212,-144 -212,-264 0,-145 123,-265 269,-265 148,1 258,102 269,249 6,85 -21,153 -85,212 -69,63 -150,87 -241,68 z"
       id="path14"
       style="fill:#343537;fill-opacity:1" />
    <path
       d="m 2510,2627 c -127,-35 -199,-130 -199,-262 -1,-101 58,-197 148,-242 51,-26 182,-25 235,1 157,78 198,286 82,423 -56,67 -180,104 -266,80 z"
       id="path15"
       style="fill:#343537;fill-opacity:1" />
    <path
       d="m 3672,2629 c -114,-22 -212,-142 -212,-259 0,-201 215,-334 391,-242 158,83 196,282 78,416 -64,73 -160,105 -257,85 z"
       id="path16"
       style="fill:#343537;fill-opacity:1" />
    <path
       d="m 4820,2627 c -127,-35 -202,-134 -202,-263 -1,-103 56,-194 148,-240 53,-26 184,-27 235,-1 119,59 180,212 135,339 -44,122 -192,199 -316,165 z"
       id="path17"
       style="fill:#343537;fill-opacity:1" />
    <path
       d="m 5982,2629 c -128,-25 -220,-150 -210,-284 12,-143 122,-244 269,-245 230,-1 351,269 199,443 -65,74 -160,106 -258,86 z"
       id="path18"
       style="fill:#343537;fill-opacity:1" />
    <path
       d="m 1882,1454 c -229,-114 -187,-452 62,-504 66,-14 116,-6 180,28 135,73 182,229 110,363 -50,91 -132,139 -237,139 -48,0 -76,-6 -115,-26 z"
       id="path19"
       style="fill:#343537;fill-opacity:1" />
    <path
       d="m 3058,1466 c -181,-65 -233,-322 -90,-447 137,-121 346,-85 428,74 27,51 30,164 7,218 -47,105 -141,169 -247,169 -34,-1 -78,-7 -98,-14 z"
       id="path20"
       style="fill:#343537;fill-opacity:1" />
    <path
       d="m 4192,1454 c -59,-30 -107,-80 -135,-143 -23,-54 -20,-167 7,-218 82,-159 291,-195 428,-74 143,126 91,382 -90,447 -63,22 -151,18 -210,-12 z"
       id="path21"
       style="fill:#343537;fill-opacity:1" />
    <path
       d="m 5362,1465 c -91,-40 -159,-132 -169,-229 -11,-106 45,-205 148,-261 99,-53 228,-34 308,46 171,170 51,460 -188,459 -37,-1 -81,-7 -99,-15 z"
       id="path22"
       style="fill:#343537;fill-opacity:1" />
    <path
       d="m 1367,899 c -97,-23 -176,-94 -202,-183 -19,-63 -19,-99 0,-162 53,-180 285,-244 433,-119 82,69 116,203 74,297 -55,124 -185,196 -305,167 z"
       id="path23"
       style="fill:#343537;fill-opacity:1" />
    <path
       d="m 2523,899 c -77,-15 -151,-70 -190,-142 -26,-47 -25,-188 1,-241 48,-95 131,-146 241,-146 83,0 135,21 190,75 99,100 104,262 11,372 -52,62 -166,99 -253,82 z"
       id="path24"
       style="fill:#343537;fill-opacity:1" />
    <path
       d="m 3677,899 c -60,-14 -112,-45 -150,-90 -150,-174 -27,-439 203,-439 229,0 353,265 204,438 -60,71 -174,111 -257,91 z"
       id="path25"
       style="fill:#343537;fill-opacity:1" />
    <path
       d="m 4831,899 c -127,-25 -212,-131 -212,-265 0,-107 60,-202 155,-245 56,-25 166,-25 222,0 51,23 104,75 130,127 26,53 27,194 1,241 -57,106 -179,165 -296,142 z"
       id="path26"
       style="fill:#343537;fill-opacity:1" />
    <path
       d="m 5982,900 c -129,-26 -220,-151 -210,-285 20,-237 318,-333 473,-152 37,43 65,118 65,172 0,165 -164,298 -328,265 z"
       id="path27"
       style="fill:#343537;fill-opacity:1" />
  </g>
</svg>
