<?xml version="1.0" encoding="UTF-8" standalone="no"?>
<svg
   version="1.0"
   width="643pt"
   height="533pt"
   viewBox="0 0 643 533"
   preserveAspectRatio="xMidYMid"
   id="svg16"
   sodipodi:docname="Pasted-image-3.svg"
   inkscape:version="1.3 (0e150ed6c4, 2023-07-21)"
   xmlns:inkscape="http://www.inkscape.org/namespaces/inkscape"
   xmlns:sodipodi="http://sodipodi.sourceforge.net/DTD/sodipodi-0.dtd"
   xmlns="http://www.w3.org/2000/svg"
   xmlns:svg="http://www.w3.org/2000/svg">
  <defs
     id="defs16" />
  <sodipodi:namedview
     id="namedview16"
     pagecolor="#505050"
     bordercolor="#eeeeee"
     borderopacity="1"
     inkscape:showpageshadow="0"
     inkscape:pageopacity="0"
     inkscape:pagecheckerboard="0"
     inkscape:deskcolor="#505050"
     inkscape:document-units="pt"
     inkscape:zoom="0.63511029"
     inkscape:cx="544"
     inkscape:cy="375.52533"
     inkscape:window-width="1366"
     inkscape:window-height="699"
     inkscape:window-x="0"
     inkscape:window-y="0"
     inkscape:window-maximized="1"
     inkscape:current-layer="svg16" />
  <g
     transform="matrix(0.1,0,0,-0.1,-92.418747,567)"
     fill="#000000"
     stroke="none"
     id="g16"
     style="fill:#343537;fill-opacity:1">
    <path
       d="m 3439,5262 c -65,-34 -113,-94 -135,-168 -54,-187 121,-374 312,-334 220,46 289,318 119,468 -55,48 -95,62 -181,62 -48,0 -74,-6 -115,-28 z"
       id="path1"
       style="fill:#343537;fill-opacity:1" />
    <path
       d="m 1758,4706 c -51,-14 -64,-22 -121,-75 -42,-40 -77,-121 -77,-180 0,-151 120,-271 269,-271 104,1 185,47 239,139 23,40 27,57 27,126 0,91 -15,132 -73,191 -65,67 -173,96 -264,70 z"
       id="path2"
       style="fill:#343537;fill-opacity:1" />
    <path
       d="m 5212,4702 c -73,-26 -122,-69 -156,-136 -68,-132 -14,-295 120,-362 53,-26 184,-27 235,-1 131,65 188,235 123,365 -59,118 -200,177 -322,134 z"
       id="path3"
       style="fill:#343537;fill-opacity:1" />
    <path
       d="m 2897,4126 c -108,-40 -177,-138 -177,-254 0,-103 43,-179 135,-237 28,-19 67,-38 86,-43 29,-8 31,-10 14,-17 -137,-48 -220,-130 -250,-250 l -7,-30 -14,45 c -20,67 -82,150 -138,184 -39,24 -63,31 -118,34 -114,7 -198,-38 -256,-137 -23,-40 -27,-57 -27,-126 0,-128 49,-200 176,-259 l 68,-32 -64,-28 c -126,-55 -180,-133 -180,-261 0,-69 4,-86 27,-127 46,-77 103,-117 218,-155 8,-2 -8,-12 -37,-22 -28,-10 -70,-29 -92,-44 -175,-116 -156,-379 34,-473 97,-47 224,-25 301,53 57,56 78,108 79,189 0,103 -37,172 -124,231 -35,23 -79,46 -98,49 -36,7 -45,24 -13,24 22,0 88,31 132,62 38,26 89,103 109,161 l 17,49 16,-48 c 33,-98 100,-174 179,-203 46,-18 157,-13 203,8 163,74 208,288 90,428 -15,18 -58,48 -97,67 -38,19 -70,38 -70,41 0,3 32,22 70,41 80,40 112,74 154,162 27,58 47,72 47,34 0,-27 56,-117 92,-147 112,-95 271,-91 371,9 41,40 87,124 87,156 0,11 5,20 10,20 6,0 10,-7 10,-15 0,-26 49,-113 86,-155 103,-114 285,-114 388,0 37,42 86,129 86,155 0,8 5,15 10,15 6,0 10,-9 10,-20 0,-32 46,-116 87,-156 102,-102 262,-104 375,-5 142,125 95,371 -86,446 -51,22 -152,19 -206,-6 -79,-35 -149,-124 -170,-214 -6,-27 -8,-28 -15,-10 -27,71 -56,126 -83,156 -32,37 -137,99 -166,99 -9,0 -16,5 -16,10 0,6 7,10 15,10 28,0 113,49 150,85 59,60 80,109 80,195 0,66 -4,82 -31,130 -78,138 -253,180 -385,93 -48,-32 -115,-128 -125,-179 -7,-37 -24,-46 -24,-13 0,35 -61,138 -103,174 -106,91 -267,83 -368,-17 -18,-18 -47,-64 -65,-103 -26,-56 -34,-66 -39,-50 -29,90 -82,161 -152,202 -55,32 -158,41 -216,19 z m 963,-281 c 0,-28 59,-134 95,-170 37,-36 122,-85 150,-85 8,0 15,-4 15,-10 0,-5 -7,-10 -16,-10 -29,0 -134,-62 -164,-97 -36,-41 -80,-125 -80,-153 0,-11 -4,-20 -10,-20 -5,0 -10,9 -10,20 0,32 -55,132 -92,166 -43,41 -119,84 -146,84 -12,0 -22,5 -22,10 0,6 7,10 16,10 29,0 134,62 164,97 36,41 80,125 80,153 0,11 5,20 10,20 6,0 10,-7 10,-15 z m -495,-154 c 43,-47 110,-90 158,-101 28,-6 29,-8 12,-14 -117,-42 -175,-88 -219,-177 -19,-38 -38,-70 -41,-70 -3,0 -22,32 -41,70 -44,89 -105,138 -219,176 -17,6 -15,9 15,19 116,37 195,119 235,241 5,16 12,8 35,-41 15,-34 45,-80 65,-103 z m -655,-438 c 0,-27 62,-133 94,-160 17,-14 59,-39 94,-56 34,-16 62,-30 62,-32 0,-2 -26,-15 -57,-30 -31,-14 -72,-37 -90,-51 -38,-29 -88,-110 -104,-169 l -12,-40 -13,46 c -28,95 -119,193 -208,223 -40,14 -41,28 -1,42 45,15 121,70 149,107 31,41 66,112 66,132 0,9 5,13 10,10 6,-3 10,-13 10,-22 z"
       id="path4"
       style="fill:#343537;fill-opacity:1" />
    <path
       d="m 1188,2976 c -135,-37 -224,-166 -204,-297 14,-94 94,-190 183,-220 48,-15 160,-7 207,16 47,22 99,73 123,118 26,51 30,174 6,228 -29,64 -67,105 -126,133 -66,31 -129,39 -189,22 z"
       id="path5"
       style="fill:#343537;fill-opacity:1" />
    <path
       d="m 4058,2397 c -61,-20 -121,-69 -153,-128 -26,-46 -30,-64 -30,-129 0,-64 4,-83 30,-129 50,-91 134,-141 235,-141 101,0 185,50 235,141 26,46 30,65 30,129 0,65 -4,83 -30,129 -63,113 -195,166 -317,128 z"
       id="path6"
       style="fill:#343537;fill-opacity:1" />
    <path
       d="m 5203,2394 c -57,-21 -126,-84 -153,-141 -16,-35 -23,-66 -23,-113 0,-78 18,-123 70,-180 166,-185 462,-69 463,181 0,186 -181,315 -357,253 z"
       id="path7"
       style="fill:#343537;fill-opacity:1" />
    <path
       d="m 6368,2397 c -58,-19 -124,-71 -155,-124 -25,-43 -28,-58 -28,-133 0,-75 3,-91 27,-132 69,-116 203,-166 329,-123 62,21 109,63 144,126 26,46 30,65 30,129 0,65 -4,83 -30,129 -63,113 -195,166 -317,128 z"
       id="path8"
       style="fill:#343537;fill-opacity:1" />
    <path
       d="m 3462,1815 c -103,-45 -168,-144 -166,-255 1,-76 19,-123 67,-177 104,-114 281,-118 392,-8 53,54 75,107 75,185 0,108 -55,196 -152,244 -60,30 -160,35 -216,11 z"
       id="path9"
       style="fill:#343537;fill-opacity:1" />
    <path
       d="m 4614,1811 c -103,-47 -164,-141 -164,-250 0,-79 22,-132 75,-186 132,-131 356,-94 436,73 66,134 -3,308 -145,367 -49,21 -152,19 -202,-4 z"
       id="path10"
       style="fill:#343537;fill-opacity:1" />
    <path
       d="m 5752,1804 c -56,-28 -91,-63 -125,-128 -33,-63 -31,-176 5,-237 56,-95 134,-142 238,-142 78,-1 140,24 192,75 56,57 73,102 73,193 0,69 -4,86 -27,126 -54,92 -135,138 -239,139 -50,0 -77,-6 -117,-26 z"
       id="path11"
       style="fill:#343537;fill-opacity:1" />
    <path
       d="m 6915,1806 c -104,-48 -156,-130 -156,-243 0,-250 306,-363 472,-174 116,131 74,337 -83,415 -70,35 -162,36 -233,2 z"
       id="path12"
       style="fill:#343537;fill-opacity:1" />
    <path
       d="m 1772,1249 c -56,-11 -103,-40 -146,-91 -149,-173 -25,-438 203,-438 249,0 365,298 181,463 -67,62 -149,84 -238,66 z"
       id="path13"
       style="fill:#343537;fill-opacity:1" />
    <path
       d="m 4082,1249 c -56,-11 -103,-40 -146,-91 -149,-174 -26,-438 204,-438 234,0 354,268 199,444 -64,73 -160,105 -257,85 z"
       id="path14"
       style="fill:#343537;fill-opacity:1" />
    <path
       d="m 5230,1247 c -127,-35 -202,-134 -202,-263 -1,-154 111,-264 266,-264 86,0 138,22 194,80 22,22 47,62 56,87 20,59 21,153 1,199 -51,123 -193,195 -315,161 z"
       id="path15"
       style="fill:#343537;fill-opacity:1" />
    <path
       d="m 6392,1249 c -121,-24 -212,-138 -212,-264 1,-150 118,-265 271,-265 232,0 353,268 198,444 -64,73 -160,105 -257,85 z"
       id="path16"
       style="fill:#343537;fill-opacity:1" />
  </g>
</svg>
