<svg version="1.0" width="865.333" height="710.667" viewBox="0 0 649 533" xmlns="http://www.w3.org/2000/svg"><path d="M139.5 41.4c-9.1 4.2-14.5 12.3-15.3 22.6-.3 5.3 0 7.6 1.8 11.8 3.4 7.8 11.5 14.5 21.5 17.7 1.6.5.6 1.3-5 4-10.4 5-14.5 9.3-19 20.1-2.1 5.1-2.4 5.5-2.5 2.9-.1-6.7-9.8-18.8-17.9-22.3-5.6-2.4-15.7-2.1-21.3.7-10 4.8-16.6 16.2-15.5 26.7.6 6.2 4.8 14.4 9 18 4 3.4 12.1 7.4 14.9 7.4 2.9 0 1.4 1.3-4.2 3.4-9.2 3.6-16 10.5-19.8 20.1-1.6 4.1-2.1 4.6-2.7 3-4.8-15.3-17.3-24.6-31-23.2-22.4 2.3-32.1 29.5-16.3 45.6C20 203.8 27 208 31.3 209c2.8.6 2.9.8 1.2 1.4-19 6.9-27.7 20.2-23.2 35.7 2.2 7.4 7.3 13 15.5 17.2 3.7 1.8 6.9 3.6 7.2 3.9.3.4-2.7 2.3-6.7 4.3-15.9 7.9-21.1 22.1-13.7 37.2 1.4 2.9 3.9 6.4 5.6 7.8 4 3.4 12.1 7.5 14.8 7.5 1.1 0 2 .4 2 1 0 .5-.6 1-1.2 1-3.3 0-13.7 6.1-17.5 10.3-12.5 13.5-7.7 34.5 9.6 42.5 10.3 4.8 23.5 1.6 31-7.5 2.9-3.5 6.3-9.7 7.6-13.8.6-1.6 1-1.1 2.6 2.9 4.5 11.3 11.4 17.5 24.4 22.2 1.7.6 1.6.8-1.1 1.4-5.3 1.2-13.5 6.3-16.9 10.5-8.7 10.6-8.4 24.6.6 34.9 10.3 11.6 27.7 12.3 38.8 1.4 4.2-4.1 9.1-12.5 9.1-15.8.1-1.8 1-.5 3.6 4.8 4.4 9.2 8.9 13.6 17.8 17.8 5.6 2.6 6.7 3.4 5.1 3.9-23.6 7.5-31.1 31-15.1 47 6.2 6.2 11.6 8 21.2 7.2 4.8-.3 7.7-1.2 11.2-3.4 5.4-3.3 11.7-11.7 13.6-18.3.8-2.6 1.6-3.9 1.9-3 .3.8 1 3 1.6 4.9 2 6.2 7.1 12.9 12.4 16.3 4.9 3.1 5.7 3.3 14.2 3.3 10.2 0 13.2-1.2 19.3-7.4 3.3-3.4 6.8-9.6 8.7-15.6.4-1.5 1.5-.1 4.5 6.2 4.3 8.7 9 13.5 15.8 15.9 4.7 1.7 13.3 1.8 18.4.2 9.2-2.7 18.8-15.8 18.8-25.6 0-11.4-10.5-23.2-24.5-27.7-1.6-.5-.5-1.3 5.1-3.9 3.9-1.8 8.7-5 10.7-7 4.1-4 8.7-12.4 8.7-15.6 0-1.1.5-2 1-2 .6 0 1 .7 1 1.5 0 2.6 4.9 11.4 8.7 15.6 2 2.2 6.6 5.4 10.7 7.4 5.5 2.6 6.6 3.5 5.1 4-10 3-18 9.9-22.2 19.2-3.1 6.8-3.1 10.8 0 17.5 5.3 11.7 14.1 17.8 25.7 17.8 23.3 0 35.4-26.8 20-44.3-3.5-3.9-10.9-8.5-16.5-10.2-1.5-.5-.4-1.4 5.1-4 4.1-2 8.7-5.2 10.7-7.4 3.8-4.2 8.7-13 8.7-15.6 0-.8.5-1.5 1-1.5.6 0 1 .9 1 2 0 1.2 1.1 4.3 2.5 7 9 17.7 29.2 21.9 43.9 9 12.6-11.1 10.2-32.6-4.7-42.2-4.8-3.1-5.7-3.3-13.7-3.3-7.5 0-9.1.3-13.1 2.7-2.6 1.5-5.9 4.2-7.3 5.9-3.4 4.1-7.6 12.2-7.6 14.9 0 3.4-1.5 2.2-2.7-2.2-2.4-8.8-10.2-17.6-18.2-20.4-4.6-1.7-13.6-1.7-18.2 0-8 2.8-15.8 11.6-18.2 20.4-1.2 4.4-2.7 5.6-2.7 2.2 0-2.7-4.2-10.8-7.6-14.9-1.4-1.7-4.7-4.4-7.3-5.9-4-2.4-5.6-2.7-13.1-2.7-7.9 0-8.9.2-13.7 3.3-5.5 3.5-9 7.9-12.3 15.5-2.1 4.8-4 6.2-4 2.9 0-2.4-5.2-11.1-8.6-14.5-3.6-3.7-10.6-7.8-14.7-8.7l-3.2-.7 3-1.2c14.8-5.8 22.7-15.3 22.8-27.6.1-14.9-12.2-27.5-26.8-27.5-5.4 0-12.9 2.8-17.2 6.4-3.6 3.1-8.7 11.7-10.9 18.1-.6 1.9-.7 1.8-1.4-.5-1.4-4.9-5.9-12.6-9.2-15.9-3.4-3.4-13.6-9.1-16.3-9.1-.8 0-1.5-.5-1.5-1 0-.6.9-1 2-1 2.6 0 10.8-4.1 14.7-7.4s8.2-11.3 8.9-16.9c.8-5.9-1.1-13.7-4.6-18.6-3.1-4.3-10.6-9.9-15.5-11.5-3.9-1.4-3.9-2.8 0-4.2 4.9-1.6 12.4-7.2 15.5-11.5 5.5-7.6 6.3-18.5 2-26.9-3.8-7.4-10.6-12.7-21.5-16.6-1.7-.6-1.6-.8 1.2-1.4 1.7-.4 5.1-1.9 7.5-3.3 13.1-7.7 18.6-21.1 13.9-33.8-2.8-7.5-7.8-12.4-17-16.7-7.2-3.5-7.4-3.7-4.6-4.3 4.7-.9 11.1-4.6 15-8.4 3.4-3.5 8.1-11.5 9.5-16.5.7-2.3.8-2.4 1.5-.5 4.2 12.2 11.5 21 19.3 23.3 18.5 5.6 35.6-7.3 35.4-26.5-.1-10.8-6.5-19.3-18.6-24.9-3.1-1.4-5.6-2.7-5.6-2.9s2.9-1.6 6.3-3.3c8.1-3.7 13.2-8.8 17-16.9 3.1-6.8 3.8-6.9 5.6-1.3 2 6.2 8.2 13.2 14.4 16.4 13.3 6.8 29.6 1.3 36.4-12.3 2.7-5.4 2.5-18.2-.4-23.7-3-5.7-10.3-11.9-15.8-13.4-5.6-1.6-15.9-.9-20.3 1.4-5.1 2.6-10.2 8.5-13.4 15.3-1.7 3.4-3.2 6.3-3.3 6.3-.2 0-1.3-2.1-2.5-4.8-3.3-7.5-6.8-11.9-12.3-15.4-4.9-3.1-5.7-3.3-14.3-3.3-8.3 0-9.4.2-13.4 2.9-7.3 4.8-12.5 12-14.4 20.1-.7 2.9-.8 2.9-2.5-2.2-3.2-9.6-10-17.1-18-19.9-5.9-2.1-14.9-1.7-20.6 1zM181 69.6c0 2.7 5 11.3 8.7 15 2 2 6.5 5 10 6.6 3.4 1.7 6.3 3.1 6.3 3.3s-2.9 1.6-6.3 3.3c-9.7 4.5-16.7 12.7-19.2 22.7l-.7 3-1.3-4.2c-1.8-6-5.8-12.5-10-16.2-3.9-3.4-10.6-7.1-12.9-7.1-3.7 0-2.1-2.1 3.7-4.8 3.5-1.6 7.9-4.3 10-6.1 3.4-3.1 9.7-13.9 9.7-16.8 0-.8.5-1.1 1-.8.6.3 1 1.3 1 2.1zm-48.5 73.3c4.1 3.5 10.6 7.1 15 8.1 2.7.6 2.8.8 1 1.5-13.7 5.2-18.2 9.1-23.5 19.9-2.6 5.2-4 7.3-4 5.7 0-1.3-1.4-5-3.2-8.4-3.7-6.9-10.2-12.6-17.5-15.3-5.9-2.1-7.5-3.4-4.4-3.4 3.4 0 13.7-5.8 17.1-9.7 3.7-4.2 8-12.5 8-15.5 0-1.4 1.5.8 4 5.8 2.3 4.7 5.5 9.5 7.5 11.3zm-2 55.6c3.3 4 13.7 10.5 16.9 10.5.9 0 1.6.4 1.6 1 0 .5-.7 1-1.5 1-2.4 0-11.1 4.7-14.9 8.1-2 1.7-5.4 6.7-7.6 11.1-2.4 4.8-4 7.1-4 5.8 0-3.4-5.9-13.7-9.7-17s-12.4-8-14.8-8c-.8 0-1.5-.5-1.5-1 0-.6.7-1 1.5-1 2.3 0 10.5-4.4 14.2-7.7 4.1-3.5 10.3-13.9 10.4-17.2 0-2 .8-1.1 3 3.8 1.6 3.6 4.5 8.4 6.4 10.6zm-56.1 1.9c3.7 3.7 12.3 8.6 15.1 8.6.8 0 1.5.4 1.5 1 0 .5-.7 1-1.6 1-3.1 0-13.6 6.4-16.9 10.3-1.9 2.2-4.4 6.4-5.6 9.3-2.2 5.3-3.9 6.9-3.9 3.9 0-2.6-3.8-9.3-7.7-13.6-4.2-4.6-12.7-9.9-16-9.9-1.3 0-2.3-.5-2.3-1 0-.6.7-1 1.6-1 3 0 13.5-6.4 16.7-10.1 3-3.5 6.7-10.1 8.1-14.3.5-1.5 1.4-.3 4 5.1 1.9 3.9 5 8.7 7 10.7zm56.8 56.5c3.7 3.8 12.4 9.1 15 9.1 2.4 0 3.3 1.9 1.1 2.6-11.9 3.7-18.9 10.2-23.8 22-2.1 5.1-2.4 5.5-2.5 2.9 0-4.1-4.9-12.3-9.9-16.8-3.8-3.4-9.4-6.6-14.4-8.1-2.2-.7-1.3-2.6 1.1-2.6 2.9 0 11.6-5.6 15.5-9.9 4.2-4.7 7.7-11.1 7.7-14.3.1-1.5 1.2.1 3.5 4.7 1.8 3.8 4.8 8.5 6.7 10.4zm-64.3-10.4c4.1 9.5 12.5 17 22.4 19.9 2.2.7 1.3 2.6-1.1 2.6-3 0-11.8 5.8-15.5 10.1-2 2.3-4.6 6.6-5.8 9.5-2.2 5.3-3.9 6.9-3.9 3.9 0-2.8-4.9-11.4-8.7-15.1-2-2-6.5-5-10-6.6-3.4-1.7-6.3-3.1-6.3-3.3s2.9-1.6 6.3-3.3c3.5-1.6 8-4.6 10-6.6 3.8-3.7 8.7-12.3 8.7-15.1 0-3 1.5-1.4 3.9 4zm64.4 68.1c3.1 3.4 10.7 7.8 17.2 9.9 1.6.5.9 1-3.2 2.4-10.3 3.5-16.1 9-21.3 20.3-1.9 4.3-2.9 5.6-2.9 4-.1-3.7-4.8-12-9.2-16.2-4-3.9-13.3-9-16.3-9-.9 0-1.6-.5-1.6-1 0-.6.9-1 2.1-1 3.3 0 13.6-5.9 16.9-9.7 3.7-4.2 8-12.5 8-15.5.1-1.5 1.3.3 3.4 4.8 1.8 3.9 4.9 8.9 6.9 11zm-64.4-10.2c1.2 2.9 3.7 7.1 5.6 9.3 3.6 4.2 13.9 10.3 17.4 10.3 1.2 0 2.1.4 2.1 1 0 .5-.7 1-1.6 1-2.9 0-12.1 5-15.9 8.7-2 2-5.2 6.8-7.1 10.6-2.6 5.4-3.5 6.6-4 5.1-3.6-11.2-12.6-20.6-22.6-23.6-4.2-1.2-5-2.8-1.5-2.8 2.8 0 11.3-4.9 15.1-8.6 3.4-3.5 8.6-12.2 8.6-14.7 0-3.2 1.6-1.7 3.9 3.7zm65.6 69.5c3.9 3.4 12.6 8.1 15 8.1.8 0 1.5.4 1.5 1 0 .5-.7 1-1.5 1-2.4 0-11.1 4.7-15 8.1-2 1.8-5.2 6.6-7.5 11.3-2.6 5.2-4 7.3-4 5.7 0-3.4-5.8-13.7-9.7-17.1-3.8-3.3-12.4-8-14.8-8-.8 0-1.5-.5-1.5-1 0-.6.7-1 1.5-1 2.9 0 11.5-5 15.5-9 4.4-4.4 9-12.7 9-16.2 0-1.4 1.5.8 4 5.8 2.3 4.7 5.5 9.5 7.5 11.3zm48.5-16.2c0 .8 1.4 4.2 3.2 7.5 4.2 8 10.3 13 20.3 16.9l3 1.2-3.2.7c-8.9 2-18.9 11.4-22.5 21.3l-2.2 6-1-3.4c-3.8-11.9-13.3-21.4-24.1-23.9-2.6-.6-2.7-.8-1-1.4 5.4-1.9 12.7-6.1 15.8-9.2 3.7-3.8 9.7-14.1 9.7-16.8 0-1 .5-1.4 1-1.1.6.3 1 1.3 1 2.2zm0 57.9c0 2.7 5 11.3 8.7 15 2 2 6.5 5 10 6.6 3.4 1.7 6.3 3.1 6.3 3.3s-2.9 1.6-6.3 3.3c-9.7 4.5-16.7 12.7-19.2 22.7l-.7 3-1.3-4.2c-3.1-10.3-8.7-16.6-19.3-21.6-5.7-2.7-7.3-4.7-3.5-4.7 2.6 0 12-5.9 15.2-9.6 3.5-3.9 8.1-12.5 8.1-14.9 0-.9.5-1.3 1-1 .6.3 1 1.3 1 2.1zm58.3 2.1c1.5 7.4 11.5 17.7 19.7 20.4 5.5 1.8 5.6 2.6.4 4.9-10.3 4.5-16.8 11-19.8 19.7-1.3 3.8-3.6 5.6-3.6 2.9 0-2.9-4.9-11.4-8.7-15.2-2-2-6.5-5-10-6.6-3.4-1.7-6.3-3.1-6.3-3.3s2.9-1.7 6.4-3.3c9.5-4.4 14.6-10.1 18.5-20.5 1.3-3.3 2.6-2.9 3.4 1z" style="fill:#343537;fill-opacity:1"/><path d="M315.7 155.4c-8.8 3.3-15.5 10.5-17.8 19-4.4 16.3 9.1 33.6 26.2 33.6 11.5 0 22.9-8.9 26-20.3 3.2-11.8-3-25.1-14.4-30.9-5.2-2.6-14.9-3.3-20-1.4zm114.6.2c-2.3.9-6.2 3.3-8.6 5.4-17.4 15.3-8 44.6 15 46.7 10.8 1 19.9-3.6 25.7-13 2.3-3.8 3-6.2 3.4-12.2.4-6.6.2-8.1-2.2-12.9-6.2-12.7-20.3-18.6-33.3-14zm116.6-.3c-12.7 4.8-19.6 14.9-18.7 27.5 1.1 14.5 12.7 25.2 27.4 25.2 11 0 22.5-9.1 25.5-20.3 3.2-11.8-3-25.1-14.4-30.9-5.2-2.6-14.9-3.3-19.8-1.5zM257.6 213c-11.2 3.4-19.8 17.5-18 29.7 1.5 10.3 11 20 21.8 22.3 12.8 2.6 26.4-5.6 30.6-18.4 1.6-4.9.8-15.1-1.4-19.4-4.9-9.6-14-15.2-24.1-15.1-3.3 0-7.3.5-8.9.9zm112.9 1.3c-5.2 2.5-10.2 7.4-13.2 13-2.5 4.5-2.5 17.9 0 22.8 6.7 13.5 22.7 19 36 12.5 16.8-8.2 20.4-29.8 7.3-42.9-5.4-5.4-9.1-7-17.6-7.4-6.3-.3-8.3 0-12.5 2zm117.3-.9c-12.9 4.6-20.7 20.4-16.4 33.3 4.9 14.9 23.1 23.1 36.7 16.5 20.7-10.1 21.2-38.4.7-48.6-5.9-3-14.7-3.5-21-1.2zm113.7.9c-5.5 2.6-11.9 9.1-14.1 14.3-2 4.8-1.8 16 .5 21 6.2 13.7 22.9 19.7 36.4 13 17.2-8.4 20.7-29.5 7.2-43.1-5.3-5.2-9.1-6.8-17.5-7.2-6.4-.3-8.3 0-12.5 2zM319 269.9c-5.9 1.2-10.9 4.1-15 8.8-11.4 13-8.3 32.2 6.8 41.1 4.1 2.4 5.7 2.7 13.2 2.7s9.1-.3 13.2-2.7c15.1-8.9 18.2-28.1 6.7-41.1-6.1-7-16.2-10.6-24.9-8.8zm113.8.5c-8.5 2.3-15.7 8.8-18.8 17.1-2 5-1.5 14.8.9 19.8 2.6 5.3 8 10.9 13 13.4s18.2 2.5 23.2 0c5.4-2.7 9.9-7.5 12.7-13.6 2.1-4.5 2.4-6.4 2-12.5-.5-8-2.2-12-7.5-17.2-6.6-6.7-16.8-9.5-25.5-7zm116.4-.3c-11.5 2.2-21.1 13.8-21.2 25.5 0 10.2 5 19 13.8 24.2 4.1 2.4 5.7 2.7 13.2 2.7s9.1-.3 13.2-2.7c6-3.6 10.1-8.6 12.2-15 2-6.2 2-10 .1-16.5-3.8-12.8-17.8-20.9-31.3-18.2z" style="fill:#343537;fill-opacity:1"/></svg>