<svg width="458.002" height="246.497" viewBox="0 0 121.18 65.219" xmlns="http://www.w3.org/2000/svg">
   <path
      style="fill:#2b2d2f;fill-opacity:1;stroke:#2b2d2f;stroke-width:.270576;stroke-linejoin:round"
      d="M60.59 1.26a31.35 31.35 0 0 0-31.35 31.35 31.35 31.35 0 0 0 31.35 31.35 31.35 31.35 0 0 0 31.35-31.35A31.35 31.35 0 0 0 60.59 1.26Zm0 .414A30.935 30.935 0 0 1 91.525 32.61 30.935 30.935 0 0 1 60.59 63.545a30.935 30.935 0 0 1-30.936-30.936A30.935 30.935 0 0 1 60.59 1.674Z" />
   <circle
      style="fill:#2b2d2f;fill-opacity:1;stroke:#2b2d2f;stroke-width:.00389699;stroke-linejoin:round;stroke-opacity:1"
      cx="60.59" cy="32.609" r=".13" />
</svg>