<?xml version="1.0" encoding="UTF-8" standalone="no"?>
<!-- Created with Inkscape (http://www.inkscape.org/) -->

<svg
   width="458.00201"
   height="246.49699"
   viewBox="0 0 121.1797 65.218996"
   version="1.1"
   id="svg1"
   inkscape:version="1.3 (0e150ed6c4, 2023-07-21)"
   sodipodi:docname="humidity.svg"
   xmlns:inkscape="http://www.inkscape.org/namespaces/inkscape"
   xmlns:sodipodi="http://sodipodi.sourceforge.net/DTD/sodipodi-0.dtd"
   xmlns="http://www.w3.org/2000/svg"
   xmlns:svg="http://www.w3.org/2000/svg">
  <sodipodi:namedview
     id="namedview1"
     pagecolor="#ffffff"
     bordercolor="#eeeeee"
     borderopacity="1"
     inkscape:showpageshadow="0"
     inkscape:pageopacity="0"
     inkscape:pagecheckerboard="0"
     inkscape:deskcolor="#505050"
     inkscape:document-units="px"
     showgrid="true"
     inkscape:zoom="1.2422184"
     inkscape:cx="275.31391"
     inkscape:cy="175.08998"
     inkscape:window-width="1366"
     inkscape:window-height="699"
     inkscape:window-x="0"
     inkscape:window-y="0"
     inkscape:window-maximized="1"
     inkscape:current-layer="layer1">
    <inkscape:grid
       id="grid1"
       units="mm"
       originx="0"
       originy="0"
       spacingx="0.99999998"
       spacingy="1"
       empcolor="#0099e5"
       empopacity="0.30196078"
       color="#0099e5"
       opacity="0.14901961"
       empspacing="5"
       dotted="false"
       gridanglex="30"
       gridanglez="30"
       visible="true" />
  </sodipodi:namedview>
  <defs
     id="defs1" />
  <g
     inkscape:label="Layer 1"
     inkscape:groupmode="layer"
     id="layer1">
    <path
       id="path1"
       style="fill:#2b2d2f;fill-opacity:1;stroke:#2b2d2f;stroke-width:0.270576;stroke-linejoin:round"
       d="M 60.589735,1.2593693 A 31.35015,31.350044 0 0 0 29.239721,32.609485 31.35015,31.350044 0 0 0 60.589735,63.959627 31.35015,31.350044 0 0 0 91.939979,32.609485 31.35015,31.350044 0 0 0 60.589735,1.2593693 Z m 0,0.4149662 A 30.935388,30.935285 0 0 1 91.525253,32.609485 30.935388,30.935285 0 0 1 60.589735,63.544656 30.935388,30.935285 0 0 1 29.654449,32.609485 30.935388,30.935285 0 0 1 60.589735,1.6743355 Z" />
    <ellipse
       style="fill:#2b2d2f;fill-opacity:1;stroke:#2b2d2f;stroke-width:0.00389699;stroke-linejoin:round;stroke-opacity:1"
       id="path2"
       cx="60.589851"
       cy="32.609497"
       rx="0.13034315"
       ry="0.13034317" />
  </g>
</svg>
