<svg version="1.0" width="862.667" height="710.667" viewBox="0 0 647 533" xmlns="http://www.w3.org/2000/svg"><g style="fill:#343537;fill-opacity:1"><path d="M1412 4927c-45-14-118-81-144-131-12-24-23-68-26-107-8-114 49-208 160-262 29-14 62-29 73-32 16-5 5-13-51-39-89-42-134-86-178-178-26-53-35-66-36-48 0 32-49 118-89 158-50 50-116 76-191 76-79-1-124-19-184-74-103-95-113-260-22-366 37-43 140-104 175-104 30 0 17-17-19-25-48-10-143-78-173-123-15-23-36-64-46-90-16-38-20-43-26-27-48 152-170 245-305 232-227-20-329-297-168-457 37-38 110-81 151-90 28-6 29-8 12-14-109-39-170-84-208-155-78-142-23-296 131-374 37-18 69-36 72-39 3-4-27-23-67-43-111-56-173-145-173-251 0-46 34-132 69-175 32-38 136-99 170-99 12 0 21-4 21-10 0-5-6-10-12-10-27 0-135-59-167-91-128-127-89-355 75-434 59-29 161-32 216-7 81 36 153 121 183 217 5 16 11 10 28-32 45-108 132-191 220-210 29-6 37-23 11-23-31 0-136-64-170-104-91-106-81-271 22-366 100-92 224-102 339-26 54 36 124 140 126 186 0 18 9 6 33-46 42-89 91-138 180-180 56-26 67-34 51-39-55-17-110-49-149-85-120-111-113-294 14-403 106-91 284-73 375 37 37 45 74 120 75 149 0 23 20 12 20-11 0-32 48-119 85-157 55-54 107-75 190-75 137 0 229 77 280 235 5 16 13 6 39-50 42-90 74-127 138-159 95-48 215-32 294 37 46 40 104 139 104 177 0 11 5 20 10 20 6 0 10-8 10-17 0-29 45-117 79-155 77-88 214-114 319-62 161 80 200 282 82 417-35 39-107 84-165 102-16 5-8 12 41 35 34 15 80 45 103 66 41 36 101 137 101 169 0 8 5 15 10 15 6 0 10-9 10-20 0-32 46-116 87-156 130-130 354-92 434 74 17 34 23 65 23 113 0 96-39 170-118 224-52 36-64 40-132 43-65 4-81 1-128-22-30-15-68-43-85-62-37-42-81-125-81-154 0-11-4-20-10-20-5 0-10 8-10 18-1 28-38 103-75 148-101 123-301 126-406 6-34-38-79-126-79-154 0-10-4-18-10-18-5 0-10 9-10 20 0 29-44 112-81 154-17 19-55 47-85 62-47 23-63 26-128 22-68-3-80-7-133-43-48-34-64-53-96-115-39-75-57-96-57-66 0 27-47 111-80 145-39 39-111 81-153 91l-32 7 30 12c149 57 227 152 228 274 0 82-31 155-90 207-139 122-337 79-421-92-17-35-34-72-38-83-6-19-7-18-14 5-14 48-59 128-91 159-33 33-137 91-164 91-8 0-15 5-15 10 0 6 9 10 20 10 26 0 108 41 147 74s82 113 89 169c8 59-11 137-46 186-31 43-106 99-155 115-39 14-39 28 0 42 45 15 121 70 150 108 63 82 70 192 19 287-39 71-100 116-209 155-17 6-16 8 12 14 17 4 52 19 76 33 131 77 186 211 137 339-32 87-103 148-225 193-18 7-16 9 11 15 47 10 133 61 160 94 30 35 84 139 84 161 0 9 5 13 10 10 6-3 10-13 10-21 0-34 57-129 102-169 56-50 115-69 195-63 143 11 246 120 246 262 0 115-53 194-164 250-38 19-71 37-72 40s30 21 70 41c82 41 114 74 156 163 31 67 38 68 56 12 20-62 82-132 144-164 133-68 298-14 362 120 30 61 32 160 5 223-27 62-101 132-158 149-68 21-152 15-210-14-61-30-95-68-133-147-15-32-29-59-32-60s-22 32-44 73c-32 62-48 81-96 115-54 37-65 40-138 44-66 3-86-1-125-19-79-39-146-123-169-215l-7-30-12 40c-43 141-147 226-275 224-37-1-81-6-99-12zm398-293c0-27 50-113 87-150 20-20 65-50 100-66 34-17 63-31 63-33s-26-15-57-30c-31-14-72-37-90-51-38-29-88-110-104-169l-11-40-13 42c-18 60-58 125-100 162-39 34-106 71-129 71-37 0-21 21 37 48 35 16 79 43 100 61 34 31 97 139 97 168 0 8 5 11 10 8 6-3 10-13 10-21zm-485-733c41-35 106-71 150-81 27-6 28-8 10-15-137-52-182-91-235-199-26-52-40-73-40-57 0 13-14 50-32 84-37 69-102 126-175 153-59 21-75 34-44 34 34 0 137 58 171 97 37 42 80 125 80 155 0 14 15-8 40-58 23-47 55-95 75-113zm0-580c39-34 126-81 150-81 8 0 15-4 15-10 0-5-9-10-20-10-31 0-126-57-161-97-17-20-47-68-65-107-22-46-34-62-34-47 0 34-58 137-97 171-38 33-124 80-148 80-8 0-15 5-15 10 0 6 7 10 16 10 32 0 136 65 169 104 41 51 75 118 75 148 1 15 15-7 40-58 23-48 54-94 75-113zm-619 54c18-28 46-60 61-71 39-29 109-64 128-64 8 0 15-4 15-10 0-5-7-10-16-10-31 0-136-64-169-103-19-22-44-64-56-93-22-53-39-69-39-39 0 26-38 93-77 136-42 46-127 99-160 99-13 0-23 5-23 10 0 6 7 10 16 10 30 0 135 63 167 101 31 36 69 102 82 144 6 17 9 14 23-20 8-22 30-63 48-90zm611-622c20-20 67-50 105-68l68-31-53-22c-101-42-157-100-202-209-21-50-24-54-25-28 0 41-49 123-99 168-38 34-94 66-144 81-22 7-13 26 11 26s111 52 146 86c38 39 86 123 86 154 1 18 10 5 36-48 19-40 51-89 71-109zm-648 112c41-95 125-170 224-199 22-7 13-26-11-26-30 0-118-58-155-100-19-23-46-66-59-96-23-53-38-69-38-39 0 22-44 107-75 143-14 17-57 47-96 66-38 19-70 38-70 41s32 22 70 41c39 19 82 49 96 66 31 36 75 121 75 143 0 30 15 14 39-40zm644-681c30-34 103-76 172-99 17-6 13-9-20-19-103-32-164-85-215-189-25-51-40-73-40-59 0 26-32 93-67 139-30 39-109 91-166 108-34 10-38 14-22 19 57 19 148 72 175 102 37 43 80 126 80 156 1 15 13-3 34-48 18-39 49-89 69-110zm-644 102c12-29 37-71 56-93 36-42 139-103 174-103 36 0 23-15-24-29-24-7-68-30-97-50-44-30-61-51-96-119-31-61-44-79-48-65-35 111-126 205-226 235-42 12-50 28-15 28 22 0 102 43 144 77 28 23 93 131 93 155 0 33 16 18 39-36zm658-696c20-18 67-47 103-64 51-24 60-32 42-34-36-5-137-68-168-104-15-18-42-64-60-103-22-47-33-62-34-46 0 35-58 138-97 171-38 33-124 80-148 80-8 0-15 5-15 10 0 6 7 10 16 10 32 0 136 65 169 104 41 51 75 118 75 148 0 14 15-8 40-58 24-49 54-95 77-114zm483 164c0-27 58-129 92-160 33-32 88-64 143-85l30-12-32-7c-89-20-189-114-225-213l-22-59-11 39c-33 111-133 209-240 233-26 6-28 8-10 14 68 25 122 55 156 88 38 37 99 143 99 173 0 9 5 13 10 10 6-3 10-13 10-21zm0-580c0-21 45-106 75-142 14-17 57-47 96-66 38-19 70-38 70-41s-32-22-70-41c-89-44-151-122-176-219l-7-30-13 42c-31 103-87 166-193 216-58 27-72 47-34 47 28 0 116 56 150 95 35 40 82 125 82 150 0 9 5 13 10 10 6-3 10-13 10-21zm1150 11c0-32 60-133 101-169 23-21 69-51 103-66 49-23 57-30 41-35-54-17-128-61-160-96-39-44-85-129-85-159 0-35-17-22-24 18-13 86-134 212-218 229-16 3-28 9-28 13 0 5 29 21 63 38 35 16 80 46 100 66 41 40 87 124 87 156 0 11 5 20 10 20 6 0 10-7 10-15zm-567-33c15-72 119-178 205-207 20-7 35-17 32-21s-36-23-75-43c-76-39-134-104-158-175-14-41-37-60-37-32 0 23-44 107-75 144-14 17-57 47-96 66-38 19-70 38-70 41s32 22 70 41c89 44 140 105 175 207 8 24 22 14 29-21z" style="fill:#343537;fill-opacity:1" transform="matrix(.1 0 0 -.1 0 533)"/><path d="M4898 4357c-121-34-208-160-195-283 12-119 109-226 232-254 27-6 28-8 10-15-64-24-126-59-159-91-35-34-81-113-96-164-7-23-8-24-15-5-55 160-152 245-280 245-96 0-202-67-245-154-42-87-26-212 36-285 38-44 116-95 166-109 29-8 30-10 13-17-117-41-181-94-225-186-15-33-31-60-35-60-3 0-22 32-41 70-55 110-133 161-246 161-73 0-136-25-186-73-36-34-81-113-92-162-6-27-8-28-15-10-27 71-56 126-83 156-32 37-137 99-166 99-9 0-16 5-16 10 0 6 7 10 15 10 28 0 113 49 150 85 129 130 103 341-52 427-132 74-294 29-367-102-27-48-31-65-31-130 0-86 21-135 80-195 37-36 122-85 150-85 8 0 15-4 15-10 0-5-7-10-15-10-24 0-111-47-149-81-36-31-96-138-96-171 0-10-4-18-10-18-5 0-10 9-10 20 0 32-55 132-92 167-50 48-113 73-186 73-108 0-192-52-239-147-89-183 39-386 242-387 129 0 250 103 275 234 6 29 8 32 14 15 21-59 58-127 87-160 35-39 123-95 151-95 24 0 33-19 11-26-54-16-128-62-163-101-118-135-79-337 82-417 105-52 242-26 319 62 34 38 79 126 79 155 0 9 5 17 10 17 6 0 10-9 10-20 0-29 44-113 82-156 74-84 213-110 316-58 64 32 96 69 138 159 26 56 34 66 39 50 30-93 74-156 138-197 49-31 57-33 142-33s93 2 142 33c53 34 104 101 124 163 6 19 13 41 16 49 3 9 11-4 19-30 20-67 82-150 138-185 40-24 62-30 121-33 131-7 214 50 281 192 21 45 33 63 34 48 0-31 43-113 80-156 76-86 214-112 318-60 161 80 200 282 82 417-35 39-109 85-163 101-22 7-13 26 11 26 30 0 118 58 155 100 19 23 46 66 59 96 12 29 26 54 29 54 4 0 9-12 12-27 11-53 71-137 120-170 93-62 205-63 301-3 189 120 155 392-60 482-21 9-48 20-59 24-17 6-16 8 12 14 43 10 113 52 151 91 161 164 60 436-168 456-135 13-257-80-305-232-6-16-10-11-26 27-10 26-31 67-46 90-30 45-125 113-173 123-36 8-49 25-19 25 35 0 138 61 175 104 80 93 83 235 8 333-122 160-352 140-456-38-21-35-38-75-38-89-1-18-10-5-36 48-57 118-129 174-239 186-28 3-70 0-97-7zm407-376c16-29 44-66 62-82 42-36 125-79 155-79s13-13-45-34c-73-27-138-84-175-153-18-34-32-71-32-84 0-16-14 5-40 57-53 108-98 147-235 199-18 7-16 9 11 15 51 11 134 62 169 103 19 22 46 68 62 104 26 60 28 62 34 35 3-15 19-52 34-81zm-590-551c51-99 133-171 218-190 28-6 29-8 12-15-11-4-32-11-47-17-91-34-166-114-199-212l-17-48-16 48c-21 64-64 128-107 160-48 36-104 64-129 64-31 0-24 17 10 24 46 9 136 70 167 114 26 35 49 81 68 137 7 19 8 18 15-5 4-14 15-41 25-60zm580-10c32-64 83-116 143-148 33-18 67-32 76-32s16-4 16-10c0-5-7-10-16-10-29 0-134-62-164-97-37-42-80-125-80-155 0-14-13 4-34 48-18 39-48 87-66 107-36 42-127 97-159 97-11 0-21 5-21 10 0 6 7 10 16 10s43 14 77 32c70 38 123 99 157 184 23 57 24 58 30 29 4-17 15-46 25-65zm555 51c0-27 74-135 111-164 43-31 113-67 134-67 8 0 15-4 15-10 0-5-10-10-22-10-31 0-116-50-157-91-35-36-81-118-81-144 0-30-15-14-38 39-13 30-39 72-57 93-33 39-138 103-169 103-9 0-16 5-16 10 0 6 7 10 15 10 19 0 89 35 128 64 33 25 89 106 107 158 14 37 30 42 30 9zm-2310-561c0-32 46-116 87-156 20-20 65-50 100-66 34-17 63-31 63-33s-29-16-63-33c-99-46-170-130-187-222-6-30-8-32-15-15-50 128-97 189-178 228-28 14-60 28-70 31-22 7-13 26 11 26 28 0 116 56 150 95 35 39 82 125 82 150 0 8 5 15 10 15 6 0 10-9 10-20zm1175-60c40-80 115-149 190-174 40-14 39-28-1-42-89-30-180-128-208-223l-13-46-12 40c-16 59-66 140-104 169-18 14-59 37-90 51-31 15-57 28-57 30s28 16 63 32c34 17 76 42 93 56 28 24 81 115 100 172 6 19 7 18 14-5 4-14 15-41 25-60zm588-23c43-73 123-134 210-161 22-7 13-26-11-26s-111-52-146-86c-38-39-86-123-86-154-1-18-10-6-35 46-44 90-98 144-180 180l-64 28 67 32c85 39 135 89 175 177 31 65 32 66 38 38 3-16 18-49 32-74zm-1166 31c42-88 74-122 154-162 38-19 70-38 70-41s-32-22-70-41c-80-40-112-74-154-162-16-35-33-60-37-55-4 4-14 29-24 54-25 69-77 123-157 163-38 19-70 38-70 41s32 22 70 41c92 46 145 109 175 207 3 9 7 17 10 17 2 0 17-28 33-62z" style="fill:#343537;fill-opacity:1" transform="matrix(.1 0 0 -.1 0 533)"/></g></svg>