<svg version="1.0" width="857.333" height="710.667" viewBox="0 0 643 533" xmlns="http://www.w3.org/2000/svg"><g style="fill:#343537;fill-opacity:1"><path d="M2555 5218c-80-28-147-101-171-186-51-175 106-360 288-339 98 12 190 86 225 180 18 50 15 146-6 193-46 101-141 165-245 163-34 0-74-5-91-11zM810 4638c-19-7-58-35-87-64-105-105-110-256-12-367 54-62 111-87 201-87 114 0 200 57 249 164 39 85 15 215-52 286-52 55-97 74-183 76-45 2-97-2-116-8zm3442-14c-93-46-143-130-143-239 0-155 108-265 262-265 106 0 175 37 230 122 57 89 51 224-14 310-73 96-222 128-335 72zm-2278-560c-58-21-118-75-148-136-52-103-26-242 58-316 43-38 127-82 156-82 11 0 20-4 20-10 0-5-9-10-20-10-29 0-112-44-154-80-39-35-77-96-96-155l-13-39-12 39c-29 97-96 172-190 211-61 25-162 15-222-22-126-78-168-221-102-353 91-183 328-202 455-36 14 19 37 60 49 92 19 45 25 53 30 38 14-45 54-123 78-151 14-16 49-43 79-59 44-25 64-30 123-30s79 5 123 30c65 35 96 71 135 153 27 58 47 72 47 34 0-30 58-119 101-155 86-74 199-85 301-30 69 37 134 126 148 203 6 29 8 32 14 15 58-162 162-255 286-255 57 0 142 35 182 76 38 37 98 141 98 168 0 9 5 16 10 16 6 0 10-9 10-20 0-58 79-165 149-204 168-91 369 13 396 206 16 107-59 231-167 278-101 43-232 13-302-71-33-38-67-103-76-144-6-27-8-28-15-10-43 117-95 181-184 229-87 47-146 39-255-33-46-30-113-128-122-177-7-37-24-46-24-13s-59 136-97 169c-51 46-130 82-179 82-52 1-139-40-191-91-20-19-49-63-65-98-17-35-31-63-33-63s-15 24-28 54c-14 29-41 71-61 93-38 43-141 103-175 103-12 0-21 5-21 10 0 6 9 10 20 10 30 0 115 46 159 85 35 32 80 106 96 160 5 16 13 5 39-51 38-82 82-128 159-166 75-39 131-37 208 4 143 76 206 226 145 347-35 69-67 103-126 135-162 88-343 0-405-198-7-25-17-13-40 49-25 67-104 146-169 168-60 20-126 21-182 1z" style="fill:#343537;fill-opacity:1" transform="matrix(.1 0 0 -.1 0 533)"/><path d="M3144 4070c-70-22-126-72-167-148-47-88-50-127-14-205 48-106 159-187 257-187 90 0 200 74 245 165 29 58 27 175-2 231-28 53-75 99-126 126-47 23-145 33-193 18zM212 2894c-90-45-152-143-152-239 0-54 28-129 65-172 106-124 318-126 415-3 45 57 60 101 60 179 0 86-35 160-98 208-80 61-200 72-290 27zm4621 1c-154-78-199-268-96-403 32-42 138-112 170-112 39 0 26-14-41-44-97-42-160-115-191-219l-13-42-7 30c-14 56-68 146-109 181-42 36-117 64-171 64-107 0-202-67-254-180-18-39-37-68-41-63-3 4-15 30-25 58-26 70-105 147-174 170-135 45-291-31-336-164-47-137 12-273 148-342 94-49 160-41 260 31 48 35 63 53 96 122 31 64 42 78 46 63 42-129 114-199 260-251 18-6 16-8-10-14-44-10-109-46-151-82-39-34-94-122-94-150 0-34-17-18-48 45-36 72-86 124-157 161-89 46-171 31-271-49-43-36-104-138-104-176 0-30-13-15-34 41-44 120-151 200-267 200-118 0-239-97-272-217-12-45-27-57-27-22 0 33-59 136-97 169-54 48-126 80-180 80-95 0-211-86-258-191-26-58-45-76-45-41 0 28-55 116-95 150-42 38-126 82-155 82-11 0-20 5-20 10 0 6 9 10 20 10 36 0 135 57 175 102 36 38 60 82 80 143 4 15 15 1 46-63 33-69 48-87 96-122 100-72 166-80 260-31 136 69 195 205 148 342-45 133-201 209-336 164-71-24-148-100-176-175-20-53-43-78-43-46 0 34-61 135-102 170-43 38-118 66-173 66-142 0-265-123-265-263 0-82 17-130 63-183 40-46 139-104 177-104 11 0 20-4 20-10 0-5-9-10-20-10-29 0-112-44-155-81-20-18-52-66-75-113-22-44-40-72-40-62 0 30-52 125-89 163-125 129-336 102-429-55-23-41-27-58-27-127 0-144 66-224 240-290 17-7 14-9-16-15-20-3-56-18-80-32-95-56-139-125-147-229-4-56-1-75 20-120 50-109 127-158 246-159 57 0 83 5 121 24 73 38 128 108 156 201l13 40 11-40c29-107 97-181 206-226l54-22-54-22c-71-29-129-77-163-133-24-41-27-57-27-132 0-63 5-95 19-123 81-164 308-197 437-64 31 32 65 94 84 152 4 15 15 0 46-64 58-119 133-169 254-170 69-1 123 20 179 69 39 35 96 135 96 170 0 11 5 20 10 20 6 0 10-8 10-18 0-35 62-142 102-176 101-87 255-87 356 0 40 34 102 141 102 176 0 10 5 18 10 18 6 0 10-9 10-20 0-35 57-135 96-170 56-49 110-70 179-69 121 1 196 51 254 170 31 64 42 79 46 64 19-58 53-120 84-152 106-109 284-110 389-3 35 37 82 123 82 151 0 10 5 21 10 24 6 3 10-2 10-12 0-36 50-124 94-167 110-106 289-101 387 12 18 20 47 68 65 107 21 45 33 62 34 47 0-29 41-109 76-151 98-116 284-121 395-11 76 77 98 179 59 283-27 71-77 122-163 163-53 25-66 35-51 39 100 30 184 105 225 200 24 54 39 70 39 40 0-22 44-107 75-143 68-81 223-109 324-57 87 44 151 145 151 240 0 54-28 129-64 171s-120 93-169 103c-29 6-27 8 46 44 120 59 187 154 187 263 0 115-114 245-240 273-21 5-29 10-20 14 84 29 111 42 151 72 53 38 99 119 106 189 18 160-137 312-299 293-58-7-140-50-174-90-30-36-74-120-74-142 0-31-16-13-44 51-37 82-88 133-170 170-68 30-82 44-43 44 34 0 121 54 160 101 94 110 88 260-16 364-62 61-115 79-209 73-73-5-124-27-169-73-40-40-89-131-89-165 0-17-12 0-39 55-63 135-120 176-246 183-71 3-86 1-132-23zm448-351c47-82 151-164 209-164 28 0 25-17-5-24-43-11-141-74-167-108-36-47-68-113-68-140 0-14-16 9-43 62-47 94-100 144-192 179-41 16-46 20-30 26 117 39 176 91 226 198 27 59 35 69 37 49 2-14 17-49 33-78zm-554-615c56-81 184-146 254-130 101 23 177 87 229 195 25 50 40 72 40 58 0-30 43-113 80-155 44-51 142-99 200-99 101 0 223 95 265 207 18 46 35 59 35 28 0-29 55-117 95-151 42-38 126-82 155-82 11 0 20-4 20-10 0-5-9-10-20-10-29 0-113-44-155-82-40-34-95-122-95-150 0-32-17-19-34 25-28 71-78 129-147 170-88 52-150 52-235 1-32-19-69-44-81-56-28-27-83-130-83-158 0-13-16 10-40 59-43 85-87 129-167 170-115 58-272-16-345-161-16-30-28-64-28-74s-18 18-40 62c-23 47-55 95-75 113-43 37-126 81-155 81-11 0-20 5-20 10 0 6 9 10 21 10 36 0 139 61 179 108 33 37 55 80 77 152 2 8 12-7 21-35 10-27 32-71 49-96zm-2937-465c0-23 47-110 80-147 30-35 135-97 164-97 9 0 16-4 16-10 0-5-9-10-21-10s-48-14-81-32c-84-45-122-98-165-228-3-9-10 2-18 27-35 117-131 210-240 233-29 6-28 7 36 37 37 17 84 47 106 67 41 36 103 140 103 170 0 10 5 14 10 11 6-3 10-13 10-21zm1150 11c0-27 58-131 92-165 18-18 66-49 107-68l74-35-45-12c-56-14-108-46-149-92-34-39-79-127-79-155 0-10-4-18-10-18-5 0-10 9-10 20 0 31-55 133-91 169-37 38-100 72-149 81-30 6-32 8-15 15 69 26 133 63 166 96 42 42 89 126 89 159 0 11 5 20 10 20 6 0 10-7 10-15zm580-5c0-33 47-117 89-159 33-33 97-70 166-96 17-7 14-9-17-15-55-10-147-70-177-115-34-52-61-111-61-135 0-11-4-20-10-20-5 0-10 8-10 18 0 28-45 116-79 155-41 46-93 78-149 92l-45 12 74 35c41 19 89 50 107 68 34 34 92 138 92 165 0 8 5 15 10 15 6 0 10-9 10-20zm1193-93c35-59 87-104 166-141 64-29 65-30 36-36-42-9-108-45-149-81-36-31-96-138-96-171 0-11-4-16-10-13-5 3-10 15-10 26 0 25-35 94-71 140-30 38-133 99-168 99-12 0-21 5-21 10 0 6 7 10 15 10 24 0 111 47 149 80 30 27 84 120 101 175 6 17 9 14 19-17 7-20 25-56 39-81zm578-3c42-70 103-116 204-155l30-12-38-8c-52-12-91-34-138-76-43-39-99-137-99-175 0-14-15 8-39 57-53 113-126 177-221 195-30 6-32 8-15 15 129 49 197 109 241 211 28 66 29 67 35 36 4-18 22-57 40-88zm-2921 78c0-28 56-117 96-152 21-18 68-47 103-64 64-30 65-30 35-36-45-10-132-60-160-93-30-35-74-120-74-141 0-23-19-30-26-9-14 50-70 146-97 169-39 33-121 74-147 74-11 0-20 5-20 10 0 6 7 10 16 10 31 0 136 64 170 104 31 36 61 90 78 139 7 21 26 13 26-11zm1739-22c26-83 142-190 224-207 31-6 37-23 7-23-26 0-108-41-147-74-27-23-83-119-97-169-7-21-26-14-26 9 0 21-44 106-74 141-28 33-115 83-160 93-30 6-29 7 35 37 37 17 85 47 107 67 35 32 81 107 97 160 7 24 19 12 34-34zm1748-30c43-83 103-138 186-168 49-17 61-32 27-32-26 0-108-41-147-74-28-23-82-119-98-171-5-15-11-7-30 39-42 104-119 177-210 201l-48 12 75 35c91 43 136 88 174 172 16 35 30 63 31 62 0 0 18-35 40-76zM2940 894c0-25 49-113 85-153 32-35 107-80 159-96 15-4 2-14-50-39-38-18-84-48-102-66-37-36-92-139-92-170 0-11-4-20-10-20-5 0-10 10-10 23-1 29-32 98-66 142-27 36-113 93-169 112-27 10-28 11-10 18 54 19 113 49 142 73 42 35 103 138 103 175 0 16 4 26 10 22 6-3 10-13 10-21zm621-99c44-73 101-115 204-150 18-7 17-8-10-18-120-42-209-135-234-244-7-32-9-35-16-18-23 65-70 149-98 176-17 18-63 47-101 65-52 25-65 35-50 39 52 16 128 62 159 96 31 35 69 103 91 164 6 16 8 13 14-17 4-20 22-62 41-93zm1138 27c42-83 123-149 215-177 15-4 3-14-50-39-97-46-158-117-190-221l-12-40-7 30c-14 58-69 147-112 182-23 19-67 45-97 57l-55 23 54 22c109 45 176 118 207 226l11 40 7-30c4-16 17-49 29-73zm582-8c46-81 121-140 213-168 13-5-3-17-64-47-59-30-89-52-112-82-43-60-68-112-68-144 0-22-7-13-29 38-15 37-41 83-56 103-28 36-113 93-170 113-27 10-28 11-10 18 120 41 176 90 226 198 27 59 35 69 37 49 2-14 17-49 33-78zm-2889 10c37-82 118-150 213-179 15-5 4-14-52-41-84-40-143-102-171-177-19-51-42-74-42-42 0 10-14 44-32 78-37 69-105 128-178 154l-48 17 78 38c43 21 90 52 105 70 25 30 64 104 80 153 7 19 8 19 18-5 5-14 18-43 29-66zm1708 59c0-27 62-133 94-160 17-14 60-40 95-56l64-30-53-24c-86-38-135-84-176-169-21-41-40-71-44-67s-14 29-24 55c-26 71-86 132-169 172-56 28-67 36-52 41 115 37 200 120 235 228 11 36 30 42 30 10z" style="fill:#343537;fill-opacity:1" transform="matrix(.1 0 0 -.1 0 533)"/></g></svg>