<?xml version="1.0" encoding="UTF-8" standalone="no"?>
<svg
   version="1.0"
   width="860"
   height="710.66669"
   viewBox="0 0 645 533.00002"
   preserveAspectRatio="xMidYMid"
   id="svg1"
   sodipodi:docname="rain.svg"
   inkscape:version="1.3 (0e150ed6c4, 2023-07-21)"
   xmlns:inkscape="http://www.inkscape.org/namespaces/inkscape"
   xmlns:sodipodi="http://sodipodi.sourceforge.net/DTD/sodipodi-0.dtd"
   xmlns="http://www.w3.org/2000/svg"
   xmlns:svg="http://www.w3.org/2000/svg">
  <defs
     id="defs1" />
  <sodipodi:namedview
     id="namedview1"
     pagecolor="#ffffff"
     bordercolor="#eeeeee"
     borderopacity="1"
     inkscape:showpageshadow="0"
     inkscape:pageopacity="0"
     inkscape:pagecheckerboard="0"
     inkscape:deskcolor="#505050"
     inkscape:document-units="px"
     showgrid="true"
     inkscape:zoom="0.49053045"
     inkscape:cx="427.08868"
     inkscape:cy="431.16589"
     inkscape:window-width="1366"
     inkscape:window-height="699"
     inkscape:window-x="0"
     inkscape:window-y="0"
     inkscape:window-maximized="1"
     inkscape:current-layer="svg1">
    <inkscape:grid
       id="grid2"
       units="pt"
       originx="0"
       originy="0"
       spacingx="1"
       spacingy="0.99999997"
       empcolor="#0099e5"
       empopacity="0.30196078"
       color="#0099e5"
       opacity="0.14901961"
       empspacing="5"
       dotted="false"
       gridanglex="30"
       gridanglez="30"
       visible="true" />
  </sodipodi:namedview>
  <g
     id="g2"
     transform="translate(-250.49663,232.7589)"
     style="fill:#343537;fill-opacity:1">
    <path
       d="m 621.75134,-224.33733 c -12.7,4.7 -20.6,16.7 -19.4,29.6 1,11 8.6,20.9 19.1,24.9 5.1,1.9 5.1,1.9 2.1,2.6 -4.2,1 -10.5,4.8 -13.7,8.2 -2.4,2.4 -4.8,7.1 -7.3,13.8 -0.6,1.7 -0.9,1.3 -2,-2.3 -2.7,-8.9 -10,-16.3 -18.9,-19.2 -2.4,-0.8 -6.7,-1.1 -11.2,-0.8 -6.3,0.4 -8.1,1 -12.7,4.1 -16.1,10.6 -17.9,32.3 -3.8,45.5 1.4,1.4 5,3.6 8,5 l 5.4,2.5 -5.9,2.7 c -7.1,3.2 -12.6,9 -15.1,15.9 -1,2.8 -2,5.1 -2.3,5.1 -0.3,0 -1.1,-2 -1.7,-4.3 -0.7,-2.7 -3,-6.4 -5.7,-9.4 -15,-16.6 -41.3,-11.3 -48.5,9.8 l -1.8,5.3 -1.6,-4.9 c -3.2,-9.4 -9.5,-15.7 -18.6,-19 l -3.6,-1.3 3,-1.1 c 12.4,-4.6 19.5,-13.6 20.3,-25.8 0.8,-11.4 -5.2,-22.3 -15.3,-27.6 -5.8,-3.1 -20.2,-3.1 -26,0 -6.3,3.4 -11.4,9.3 -14,16.4 -1.3,3.5 -2.4,5.5 -2.5,4.4 -0.1,-3.4 -4.5,-11.9 -8.1,-15.4 -1.9,-1.9 -5.8,-4.5 -8.8,-5.9 -4.6,-2.1 -6.4,-2.4 -13,-2 -11.2,0.7 -18.8,5.5 -23.9,15.2 -2.2,4.3 -2.7,6.4 -2.7,13.1 0,7 0.4,8.7 3,13.3 3.5,6.4 7.1,9.7 14.4,13 l 5.4,2.5 -5.9,2.7 c -7.8,3.6 -13,9.2 -15.9,17.1 -1.6,4.3 -2.4,5.6 -2.5,3.9 -0.1,-3.8 -4.4,-12.1 -8.1,-15.7 -11.3,-10.7 -30.4,-10.2 -40.5,0.9 -13.9,15.5 -8.4,39.7 10.5,46.5 5,1.7 6.7,3.3 3.6,3.3 -2.4,0 -9,3.7 -13,7.2 -3.9,3.3 -6.3,7.2 -8.1,12.8 -1,3.1 -1.2,3.2 -1.9,1.5 -4.2,-11.1 -9.9,-17.4 -18.5,-20.6 -18.1,-6.8 -38.1,7 -38.2,26.4 -0.1,12 6.3,21.6 17.7,26.8 4.9,2.2 5.6,2.9 4,3.4 -9.5,3.2 -16,8.7 -19.5,16.8 -8,18.1 5.9,39.7 25.6,39.7 14.1,0 24.2,-7.8 29,-22.5 0.5,-1.6 0.8,-1.3 1.8,2 2.7,8.7 8.9,15.2 18.1,19.1 l 4,1.6 -5,2.3 c -9.7,4.3 -15.4,11.2 -17.6,21.4 -2.6,12.2 3.7,24.8 15.5,30.8 10.5,5.3 22.3,3.8 31.2,-4 4.8,-4.2 9.3,-12.2 9.4,-16.7 0.1,-1.7 0.9,-0.4 2.5,3.8 3.4,9.2 8.9,14.9 17.5,18.3 15.5,5.9 34,-3.9 37.5,-20 l 0.7,-3.3 2.2,5.4 c 2.9,7.2 5.6,10.8 10.3,14.1 8.6,5.9 17.4,7.1 26.9,3.6 8.7,-3.3 14.5,-9.8 17.9,-20.4 0.5,-1.5 1.1,-0.7 3,4 4.2,10.5 15.9,18.5 27,18.5 6.5,0 14.5,-3.4 19.4,-8.2 4.3,-4.3 8,-10.7 8.1,-14.1 0,-3.3 1.5,-1.7 3.4,3.5 3.6,10.5 15.4,18.8 26.6,18.8 11.2,0 23,-8.3 26.6,-18.8 1.9,-5.2 3.4,-6.8 3.4,-3.5 0.1,3.5 3.8,10.1 8.1,14.2 5,4.7 13,8.1 19.4,8.1 11.2,0 23.3,-8.4 27.3,-19.1 1.6,-4.3 2.2,-5 2.7,-3.4 1.8,5.8 6.2,12.9 9.7,15.6 10.7,8.5 23.8,9 35.1,1.2 4.7,-3.3 7.4,-6.9 10.3,-14.1 l 2.2,-5.4 0.7,3.3 c 3.5,16.1 21.9,25.9 37.6,20 7.6,-2.9 14.3,-9.7 17.1,-17.4 l 2.2,-5.9 1.1,3.8 c 1.9,6.2 4,9.7 8.8,14.1 17.8,16.4 47.3,2.9 47.1,-21.7 -0.1,-11.6 -6,-20.8 -16.7,-25.9 l -6.1,-2.9 4,-1.7 c 9.2,-3.8 15.3,-10.2 17.9,-18.7 1,-3.5 1.4,-3.9 1.9,-2.3 3.4,10.3 10.3,18.2 18.4,20.9 19.1,6.5 38.3,-7 38.3,-26.9 0,-13.3 -7.8,-23.4 -21.6,-28 -1.6,-0.5 -0.9,-1.2 4,-3.4 3.3,-1.5 7.5,-4.3 9.4,-6.2 8.4,-8.3 10.7,-22 5.6,-32.6 -3.7,-7.4 -10.2,-12.5 -20,-15.8 -1.6,-0.5 -1,-1 3.1,-2.4 11.4,-3.8 18.3,-12.6 19.2,-24.2 0.6,-8.8 -1.1,-14.8 -5.9,-20.9 -7.8,-9.9 -22,-13.3 -33.6,-8.1 -6.7,3 -13.7,10.4 -15.4,16.2 -1.4,5.1 -2.9,7.2 -2.9,4.4 -0.1,-6.8 -8.1,-16.7 -16.4,-20.5 l -5.9,-2.7 5.5,-2.5 c 11,-5.1 17.2,-14.6 17.2,-26.3 0,-11.4 -6,-21.2 -15.9,-26 -4.8,-2.3 -15.5,-3.1 -21.2,-1.6 -8.9,2.4 -17.5,11.9 -19.1,21.1 l -0.8,4.5 -0.8,-3.5 c -1.4,-5.7 -5.2,-12.5 -9.2,-15.9 -3.3,-3 -5.5,-4.2 -12.4,-6.9 -2.4,-0.9 -2.4,-1 1.5,-2.1 8.7,-2.5 17.1,-11.2 19.6,-20.4 6.2,-22.9 -19.2,-43.3 -40.5,-32.7 -6.1,3.1 -12.1,9.8 -14.3,16.1 l -1.7,4.7 -3.3,-6.8 c -8.7,-18.1 -29.7,-22.5 -45,-9.6 -1.8,1.5 -4.8,5.8 -6.6,9.6 l -3.3,6.8 -1.8,-5 c -2.1,-5.9 -9,-13.4 -15.1,-16.3 -5.1,-2.4 -15.7,-3 -20.8,-1.1 z m 99.6,41.3 c 2.6,5 8.4,10 14.2,12.4 l 5.4,2.2 -7.1,3.6 c -8,4 -12.7,9.6 -15.1,17.8 l -1.3,4.4 -1.8,-5.7 c -2.8,-9 -11,-16.6 -20.1,-18.8 l -3,-0.8 4.8,-1.8 c 9.3,-3.6 16.8,-11.4 18.9,-19.9 l 1.1,-4.4 1.2,3.9 c 0.6,2.1 1.9,5.3 2.8,7.1 z m -59.8,-4.7 c 2.4,7.2 9.4,14.5 17,17.5 5.7,2.3 5.8,2.4 3,3.1 -8.8,2.1 -17.1,9.7 -20,18.3 l -1.7,5.3 -2.3,-5.5 c -3.7,-9.2 -8,-13.5 -17.1,-17.2 l -5.4,-2.2 3.8,-1.1 c 8.8,-2.7 16.7,-10.6 19.4,-19.4 0.6,-2.1 1.2,-3.8 1.4,-3.8 0.1,0 1,2.3 1.9,5 z m -228.3,63.5 c 2.9,5.2 8.8,9.8 16.3,12.6 l 3,1.1 -3.1,1.2 c -9.6,3.4 -17.4,11.5 -19.6,20.4 l -1.1,4.3 -1.9,-5.8 c -2.7,-8.1 -7.6,-13.7 -14.8,-17 -5.9,-2.8 -7.5,-4.3 -4.5,-4.3 2.8,0 8.9,-3.7 12.7,-7.7 3.8,-3.9 7.7,-11.2 7.9,-14.8 0,-1.2 0.8,-0.1 1.7,2.5 0.9,2.5 2.4,5.8 3.4,7.5 z m 288,-1 c 3.1,5.8 12.9,13.5 17.3,13.5 3,0 1.4,1.5 -4.5,4.3 -7.2,3.3 -12.1,8.9 -14.8,17 l -1.9,5.8 -1.1,-4.3 c -2.2,-8.9 -10,-17 -19.6,-20.4 l -3.1,-1.2 3,-1.1 c 10.4,-3.9 16.7,-10.3 19.6,-20 l 1.3,-4.3 1.1,3.9 c 0.6,2.1 1.9,5.1 2.7,6.8 z m 58.9,1.6 c 3.2,5 7.9,8.8 14.4,11.5 l 4,1.6 -5.5,2.5 c -3,1.3 -7,3.8 -8.9,5.6 -3.7,3.6 -8,11.9 -8.1,15.7 -0.1,1.7 -0.9,0.4 -2.5,-3.9 -2.9,-7.9 -8.1,-13.5 -15.9,-17.1 l -6,-2.7 4.8,-2.1 c 2.6,-1.2 6.1,-3.1 7.8,-4.3 3.7,-2.7 8.5,-10 10,-15.4 l 1.1,-4 0.9,4 c 0.5,2.1 2.2,6 3.9,8.6 z m -175.8,-5.1 c 2.5,6.8 7,11.5 14.3,15.1 l 6.6,3.3 -5.9,2.6 c -7.1,3.2 -13.9,10.5 -15.6,16.7 -0.6,2.4 -1.4,4.3 -1.7,4.3 -0.3,0 -1.3,-2.1 -2.2,-4.8 -2.5,-7 -8.2,-13 -15.2,-16.2 l -5.9,-2.7 5.5,-2.5 c 3,-1.4 7,-4.1 8.9,-6.1 3.8,-3.9 7.9,-11.3 7.9,-14.3 0,-2.6 1.4,-0.7 3.3,4.6 z m 59.1,2.9 c 2.5,5.3 9.4,11.6 14.4,13.2 5.1,1.6 5.8,2.5 2.5,3.3 -4.5,1.2 -11.9,6.4 -14.7,10.4 -1.4,2.1 -3.3,6 -4.3,8.7 l -1.6,4.9 -1.8,-5.3 c -2.6,-7.7 -7.9,-13.5 -14.9,-16.8 -3.3,-1.6 -6,-3 -6,-3.3 0,-0.3 2.2,-1.3 4.9,-2.3 6.2,-2.2 13.3,-9.6 15.8,-16.6 1.6,-4.7 1.9,-5 2.7,-2.9 0.5,1.3 1.9,4.3 3,6.7 z m -283.1,64.7 c 3.7,3.4 7,5.5 10.1,6.4 5.1,1.4 5,2.1 -0.7,4 -2,0.6 -6.2,3.4 -9.2,6.2 -4.2,3.8 -6,6.4 -7.7,11 l -2.2,6 -1.1,-3.8 c -3,-10 -9.5,-16.7 -20,-20.5 l -3,-1 5.9,-2.4 c 3.3,-1.3 7.5,-3.9 9.4,-5.7 3.8,-3.7 8.1,-11.9 8.2,-15.8 0.1,-1.6 0.9,-0.3 2.5,4 1.8,5 3.6,7.7 7.8,11.6 z m 53.6,-4.3 c 2.8,4.6 8.4,8.8 14.6,10.9 4.1,1.4 4.6,1.8 3,2.4 -11.2,4 -15.5,7.6 -19.9,16.6 l -3.4,7.1 -1.1,-4 c -2.2,-8 -11.7,-17.4 -19.3,-19 -3.6,-0.7 -3.6,-2 0.1,-2.8 8,-1.7 17.2,-10.9 19.3,-19.3 l 1.1,-4.4 1.7,4.5 c 1,2.5 2.7,6.1 3.9,8 z m 289.6,1.3 c 3.1,4.1 10.3,9 14.6,9.9 3.7,0.8 3.7,2.1 0.2,2.8 -4.2,0.9 -11.7,6 -14.9,10.2 -1.5,2 -3.6,6 -4.5,8.8 -1,2.9 -1.8,4.5 -1.9,3.6 0,-0.9 -1.4,-4.3 -3.1,-7.7 -4,-8 -8.7,-11.8 -19.4,-15.6 -1.6,-0.6 -1.1,-1 3,-2.4 7.3,-2.5 13,-7.5 16.5,-14.5 1.7,-3.3 3,-6.7 3.1,-7.6 0,-0.9 0.8,0.7 1.8,3.6 1,2.9 3,6.8 4.6,8.9 z m 55.7,-3.1 c 2.6,4.8 8.1,9.4 14.4,12 l 5.9,2.4 -3,1 c -10.5,3.8 -17,10.5 -20,20.5 l -1.1,3.8 -2.2,-6 c -1.7,-4.6 -3.5,-7.2 -7.7,-11 -3,-2.8 -7.2,-5.6 -9.2,-6.2 -4.4,-1.4 -6.5,-3 -4,-3 3.3,0 11.3,-4.8 15.4,-9.2 2.4,-2.6 4.8,-6.7 5.8,-9.8 l 1.8,-5.4 1.2,3.9 c 0.6,2.2 1.9,5.3 2.7,7 z m -286.8,3 c 3.4,4.5 8,7.6 14.1,9.7 4,1.3 4.6,1.8 3,2.3 -10.9,3.7 -18.2,10.1 -21.2,18.6 l -1.7,4.7 -3.3,-6.8 c -4.3,-8.8 -8.7,-12.4 -19.8,-16.4 -1.6,-0.6 -1,-1.1 3.1,-2.5 9.1,-3 15.7,-10.2 18.9,-20.6 0.5,-1.6 1,-1.1 2.5,2.8 1,2.7 3,6.3 4.4,8.2 z m 54,-7.3 c 2.5,7 8.6,13.3 16.1,16.3 l 6,2.4 -3,1.1 c -9.6,3.5 -15.5,9 -19,17.6 -1.9,4.7 -2.5,5.5 -3.1,3.9 -3.9,-11.4 -10.2,-17.8 -21.9,-22 -1.6,-0.6 -1.1,-1 3,-2.3 7.1,-2.3 15.9,-11 17.6,-17.5 0.7,-2.6 1.6,-4.7 1.9,-4.7 0.3,0 1.4,2.3 2.4,5.2 z m 57.5,-0.5 c 1.7,6.4 10.6,15.3 17.3,17.3 5.1,1.5 5.3,2.4 1.1,3.4 -7.2,1.8 -17.1,11.7 -18.9,18.8 -0.3,1.6 -1,2.8 -1.5,2.8 -0.5,0 -1.2,-1.2 -1.5,-2.8 -1.8,-7 -8.2,-13.8 -16.7,-17.8 l -5.9,-2.6 5.9,-2.4 c 7.3,-2.9 13.4,-9.2 15.9,-16.2 1,-2.9 2.1,-5.2 2.4,-5.2 0.3,0 1.2,2.1 1.9,4.7 z m 57.1,-1.9 c 0,3 5.7,11.8 9.7,14.8 2.1,1.6 6,3.6 8.8,4.6 4.1,1.4 4.6,1.8 3,2.4 -11.1,4 -15.5,7.6 -19.8,16.4 l -3.3,6.8 -1.7,-4.7 c -3,-8.5 -10.3,-14.9 -21.2,-18.6 -1.6,-0.5 -1,-1 3,-2.3 9.2,-3.2 16.3,-10.2 18.5,-18.4 1.1,-3.7 3,-4.4 3,-1 z m 174.3,3.3 c 2.9,7.7 13.7,16.8 20.2,16.9 2.7,0 0.9,1.3 -4.6,3.3 -7.7,2.9 -13.7,9.8 -17.3,20.2 -0.6,1.6 -1.2,0.8 -3.1,-3.9 -1.3,-3.2 -3.7,-7.2 -5.2,-8.8 -3.3,-3.5 -12,-8.8 -14.5,-8.8 -3.3,0 -1.8,-1.5 3.3,-3.3 6.9,-2.5 14.1,-9.7 16.5,-16.4 1,-2.9 2.1,-4.9 2.5,-4.5 0.3,0.4 1.3,2.8 2.2,5.3 z m -463.3,54 c 2.4,8.9 9.4,16.4 18.5,19.8 l 5,1.9 -4,1.2 c -9,2.7 -16.1,9.9 -19.5,20.1 -1.5,4.2 -1.9,4.8 -1.9,2.6 -0.3,-9.4 -9.5,-19.4 -21.6,-23.2 -1.6,-0.6 -1,-1.1 3.1,-2.6 2.8,-1 6.9,-3.5 9.1,-5.4 4.4,-3.7 9.3,-12.3 9.3,-16.2 0,-3.5 0.8,-2.8 2,1.8 z m 60.3,6.5 c 2.3,4.5 9.7,10.9 15.1,12.9 5.2,2 5.1,2.4 -1.6,4.9 -6.4,2.4 -13.1,9.7 -15.4,16.9 l -1.7,5.6 -1.7,-4.9 c -0.9,-2.7 -2.7,-6.5 -4.1,-8.5 -2.7,-4.1 -10.1,-9.4 -14.2,-10.2 -3.8,-0.8 -4.3,-2.1 -1,-2.9 8.5,-2.2 17.1,-11.1 19.6,-20.3 l 1.2,-4.4 1.1,4 c 0.7,2.2 1.9,5.3 2.7,6.9 z m 291.1,3.3 c 3,4.3 10.3,9.4 14.9,10.5 3.3,0.8 2.8,2.1 -1,2.9 -4.1,0.8 -11.5,6.1 -14.2,10.2 -1.4,2 -3.2,5.8 -4.1,8.5 l -1.7,4.9 -1.6,-5.3 c -2.8,-8.8 -9.8,-15.4 -20.2,-19.1 -1.6,-0.5 -0.9,-1.2 4,-3.4 8.7,-4 17.3,-14.6 17.5,-21.6 0,-1.1 0.9,0.3 1.9,3.2 1,2.9 3,7 4.5,9.2 z m 56.9,-1 c 3.3,4.9 8.2,8.7 14.4,11.1 3.9,1.5 4.4,2 2.8,2.5 -12.1,3.8 -21.3,13.8 -21.6,23.2 0,2.2 -0.4,1.6 -1.9,-2.6 -3.4,-10.2 -10.5,-17.4 -19.5,-20.1 l -4,-1.2 5.1,-1.9 c 7.3,-2.7 13.1,-8.2 16.5,-15.3 1.6,-3.4 2.9,-6.8 3,-7.6 0,-0.8 0.6,0.6 1.3,3.2 0.7,2.6 2.4,6.5 3.9,8.7 z m -117.2,-3.3 c 2.7,5.8 7.5,10.3 14.4,13.5 4.9,2.2 5.6,2.9 4,3.4 -10,3.3 -17.2,10 -20,18.6 l -1.7,5.1 -2.3,-5.7 c -4,-9.7 -9.2,-14.4 -20,-18 -1.6,-0.5 -0.9,-1.2 4,-3.4 3.3,-1.5 7.5,-4.3 9.4,-6.2 3.3,-3.3 8,-11.9 8.2,-14.9 0,-0.8 0.5,-0.4 1.1,1 0.6,1.4 1.9,4.3 2.9,6.6 z m 170.9,-5.9 c 0,2.8 4.2,10.1 8,13.8 2,2 6.3,4.6 9.4,5.9 l 5.8,2.4 -5,1.6 c -8.7,2.9 -14.9,9.9 -18.7,21.1 -0.6,1.6 -0.9,1.2 -2,-2.3 -2.6,-8.6 -11.3,-17.4 -18.8,-18.9 -3.8,-0.8 -4.2,-2 -0.9,-2.8 8,-1.9 18.4,-12.5 19.8,-20.1 0.6,-3.3 2.4,-3.8 2.4,-0.7 z m -519.5,1.2 c 1.6,7.4 12,17.8 19.7,19.6 3.3,0.8 2.9,2 -0.9,2.8 -7.5,1.5 -16.2,10.3 -18.8,18.9 -1.1,3.5 -1.4,3.9 -2,2.3 -3.8,-11.2 -10,-18.2 -18.7,-21.1 l -5,-1.6 5.8,-2.4 c 3.1,-1.2 7.2,-3.8 9.1,-5.6 3.6,-3.4 8.3,-11.6 8.3,-14.3 0,-2.6 1.8,-1.6 2.5,1.4 z m 179.1,10.6 c 1.7,2.2 5.3,4.8 9.8,7 5.5,2.7 6.6,3.5 5.1,4 -10.6,3.5 -16,8.3 -20,18 l -2.3,5.7 -1.7,-5.1 c -2.8,-8.6 -10,-15.3 -20,-18.6 -1.6,-0.5 -0.9,-1.2 4,-3.4 8.6,-4 13.3,-9.4 17,-19.6 0.6,-1.7 1.1,-1.1 3,3.2 1.3,2.9 3.6,6.9 5.1,8.8 z m 52.7,-8.5 c 2.4,6.8 9.7,14.1 16.7,16.8 4.4,1.6 5.1,2.2 3.5,2.7 -10.4,3.3 -18.5,10.7 -20.8,19.2 -0.6,2.4 -1.4,4.3 -1.7,4.3 -0.3,0 -1.1,-1.9 -1.7,-4.3 -2.3,-8.4 -9.5,-15.7 -18.7,-18.7 l -4,-1.3 5,-1.8 c 2.8,-1.1 6.9,-3.5 9.3,-5.5 4,-3.5 9.1,-11.7 9.1,-14.9 0,-3 1.6,-1.4 3.3,3.5 z m 56.7,-3.5 c 0,3.2 5.1,11.4 9.1,14.9 2.4,2 6.5,4.4 9.3,5.5 l 5,1.8 -5.1,1.7 c -2.8,0.9 -6.9,3.3 -9.3,5.3 -4.1,3.6 -9,11.9 -9,15.5 0,3.3 -1.6,1.8 -2.7,-2.5 -2.3,-8.5 -10.2,-15.8 -20.8,-19.3 -1.7,-0.5 -1.5,-0.8 1.5,-1.9 9.2,-3.3 16.8,-10.7 19.2,-18.7 1.1,-3.8 2.8,-5.2 2.8,-2.3 z m -225.5,69.1 c 2.9,3.8 8.9,8 12.9,9 4.2,1 3.8,1.9 -1.9,4.3 -7.3,3 -13.6,10 -16,17.8 l -1.9,5.8 -0.8,-3.8 c -1.8,-8.6 -7.8,-15.9 -16.1,-19.7 l -5.8,-2.6 6.8,-3.5 c 5.3,-2.7 7.5,-4.6 10.5,-8.8 2.1,-3 4.1,-7.2 4.5,-9.3 l 0.6,-3.9 2.2,5.6 c 1.3,3 3.5,7.1 5,9.1 z m 56.9,-1.1 c 3.5,4.5 9.6,9 14.4,10.6 l 3.6,1.2 -5.4,2.4 c -9,3.9 -15.6,11.6 -17.5,20.2 l -0.7,3.4 -1.7,-5.1 c -3.3,-9.8 -10,-16.9 -17.5,-18.8 -4.3,-1 -3.9,-2.1 1.6,-4.7 2.9,-1.3 6.8,-3.9 8.7,-5.8 3.6,-3.5 8,-12 8.2,-15.4 0,-1.1 0.8,0.3 1.8,3.2 1,2.9 3,6.8 4.5,8.8 z m 286.9,-2.9 c 2.5,4.9 7.6,9.5 13.5,12.1 4.9,2.3 6.1,4.3 2.6,4.3 -2.7,0 -10.3,5.1 -13.3,8.9 -1.6,2 -3.8,6.3 -4.9,9.5 l -2,5.9 -0.7,-3.4 c -1.9,-8.6 -9.3,-17.1 -17.9,-20.4 l -4.7,-1.8 6,-2.9 c 7.5,-3.6 13.5,-10.2 15.8,-17.5 l 1.7,-5.4 1.1,3.8 c 0.7,2.1 1.9,5.2 2.8,6.9 z m 59.8,3 c 2.6,3.6 5.3,5.8 10.3,8.3 l 6.7,3.5 -5.8,2.6 c -8.3,3.8 -14.3,11.1 -16.1,19.7 l -0.8,3.8 -1.9,-5.8 c -2.4,-7.8 -8.7,-14.8 -16,-17.8 -5.8,-2.4 -6.1,-3.3 -1.9,-4.3 7.5,-1.9 16.1,-11.3 18.5,-20.1 l 1.1,-4 1.2,4.6 c 0.7,2.6 2.8,6.8 4.7,9.5 z m -288.4,0.7 c 3.8,4.4 7,6.7 12,8.8 l 5.2,2.2 -6.8,3.4 c -8,3.8 -12.3,8.6 -15,16.4 l -1.7,5.2 -2.2,-6 c -2.7,-7.5 -7.8,-12.8 -15.4,-16.3 l -5.9,-2.6 5.6,-2.3 c 6.9,-2.9 13.7,-10.2 16,-17.2 l 1.7,-5.1 2.3,5.7 c 1.3,3.1 3.2,6.6 4.2,7.8 z m 111.7,-7.2 c 2.9,8 8.8,13.5 18.1,17 l 3,1.1 -6,2.7 c -8.5,3.9 -13.3,9.7 -17,20.6 -0.6,1.6 -0.9,1.3 -2,-2.2 -2.7,-8.8 -8.1,-14.9 -16.9,-18.8 l -4.8,-2.1 6.6,-3.3 c 7.6,-3.7 12.8,-9.7 14.8,-16.8 1.4,-4.8 1.8,-4.7 4.2,1.8 z m 58.8,2.4 c 2.9,5.9 8.5,11.2 14.5,13.7 l 5.4,2.2 -5.9,2.6 c -7.6,3.5 -12.7,8.8 -15.4,16.3 l -2.2,6 -1.7,-5.2 c -2.7,-7.8 -7,-12.6 -15,-16.4 l -6.8,-3.4 5.4,-2.2 c 6.8,-2.8 13.7,-10 16.2,-17 1.6,-4.7 1.9,-5 2.7,-2.9 0.5,1.3 1.8,4.1 2.8,6.3 z m -117.4,-3.8 c 2.2,6.9 7.5,12.8 14.7,16.4 l 6.6,3.2 -6,2.9 c -7,3.4 -12.5,9.2 -14.9,16 -1.6,4.7 -3.2,6.3 -3.2,3.3 0,-2.7 -4.7,-10.9 -8.2,-14.2 -1.8,-1.8 -5.8,-4.3 -8.8,-5.7 l -5.5,-2.4 3,-1.1 c 5.8,-2.2 9.7,-4.6 12.6,-7.9 3.3,-3.7 6.9,-10.4 6.9,-12.7 0,-2.8 1.7,-1.5 2.8,2.2 z"
       id="path42"
       style="fill:#343537;stroke:none;stroke-width:0.1;fill-opacity:1" />
    <path
       d="m 390.95134,179.66267 c -9.3,3.3 -15.4,9.4 -18.5,18.8 -4.3,12.9 2.3,28 14.8,34.2 10.3,5.2 24.5,2.8 32.7,-5.5 7.9,-7.8 10.5,-21.9 6,-31.9 -5.9,-13.1 -22,-20.3 -35,-15.6 z"
       id="path43"
       style="fill:#343537;stroke:none;stroke-width:0.1;fill-opacity:1" />
    <path
       d="m 562.35134,180.36267 c -10.9,4.2 -17.6,14.2 -17.7,26.4 0,8.5 2.4,14.5 8.1,20.2 6,6 11.6,8.3 20.3,8.3 8.7,0 14.3,-2.3 20.3,-8.3 5.7,-5.7 8.1,-11.7 8.1,-20.2 -0.1,-8.7 -2.6,-14.7 -8.4,-20.4 -7.9,-7.6 -20.2,-10 -30.7,-6 z"
       id="path44"
       style="fill:#343537;stroke:none;stroke-width:0.1;fill-opacity:1" />
    <path
       d="m 735.65134,180.26267 c -23.1,9.2 -23.7,42.1 -1.1,52.6 7.2,3.4 17.2,3.3 24.3,-0.2 16.6,-8.3 21.2,-30.1 9.3,-44.4 -7.1,-8.7 -21.9,-12.3 -32.5,-8 z"
       id="path45"
       style="fill:#343537;stroke:none;stroke-width:0.1;fill-opacity:1" />
    <path
       d="m 329.45134,239.06267 c -9.9,4.8 -15.6,13.8 -15.8,24.7 -0.1,8.8 1.7,13.6 7.5,19.9 17.8,19.5 49.3,7.1 49.3,-19.4 0,-16 -11,-27.1 -27.4,-27.8 -6.6,-0.3 -8.2,0 -13.6,2.6 z"
       id="path46"
       style="fill:#343537;stroke:none;stroke-width:0.1;fill-opacity:1" />
    <path
       d="m 502.35134,239.16267 c -17.9,9.1 -21.1,33.1 -6.1,46.6 17.8,16 45.4,4.8 47.5,-19.4 0.9,-10.5 -5.7,-22.5 -15.1,-27.3 -2.8,-1.5 -6.6,-2.3 -12.1,-2.6 -7.4,-0.3 -8.5,-0.1 -14.2,2.7 z"
       id="path47"
       style="fill:#343537;stroke:none;stroke-width:0.1;fill-opacity:1" />
    <path
       d="m 676.55134,238.66267 c -14.4,6.7 -20.6,24.7 -13.5,38.9 10.4,20.7 40.5,20.7 51,0 3.4,-6.6 3.6,-19.7 0.3,-25.8 -2.9,-5.4 -8.8,-10.9 -14.3,-13.4 -6.5,-3 -16.9,-2.8 -23.5,0.3 z"
       id="path48"
       style="fill:#343537;stroke:none;stroke-width:0.1;fill-opacity:1" />
  </g>
</svg>
