<?xml version="1.0" encoding="UTF-8" standalone="no"?>
<svg
   version="1.0"
   width="109pt"
   height="109pt"
   viewBox="0 0 109 109"
   preserveAspectRatio="xMidYMid"
   id="svg2"
   sodipodi:docname="Pasted-image.svg"
   inkscape:version="1.3 (0e150ed6c4, 2023-07-21)"
   xmlns:inkscape="http://www.inkscape.org/namespaces/inkscape"
   xmlns:sodipodi="http://sodipodi.sourceforge.net/DTD/sodipodi-0.dtd"
   xmlns="http://www.w3.org/2000/svg"
   xmlns:svg="http://www.w3.org/2000/svg">
  <defs
     id="defs2" />
  <sodipodi:namedview
     id="namedview2"
     pagecolor="#ffffff"
     bordercolor="#eeeeee"
     borderopacity="1"
     inkscape:showpageshadow="0"
     inkscape:pageopacity="0"
     inkscape:pagecheckerboard="0"
     inkscape:deskcolor="#505050"
     inkscape:document-units="pt"
     inkscape:zoom="1.1993245"
     inkscape:cx="86.298582"
     inkscape:cy="72.957738"
     inkscape:window-width="1366"
     inkscape:window-height="699"
     inkscape:window-x="0"
     inkscape:window-y="0"
     inkscape:window-maximized="1"
     inkscape:current-layer="svg2" />
  <g
     id="g2"
     transform="matrix(2.0222575,0,0,1.9933076,-75.935609,-54.135263)">
    <path
       d="m 58.7,27.78923 c -0.4,0.4 -0.7,2.4 -0.7,4.3 0,3.1 -0.5,3.9 -3.3,5.4 -3.2,1.7 -3.7,1.7 -7.2,0.3 -2,-0.9 -3.9,-1.6 -4,-1.6 -0.2,0 -1.5,2.1 -3,4.7 l -2.6,4.8 3.4,3 c 4.6,4.1 4.5,8.3 -0.2,12.3 l -3.4,2.8 2.7,4.7 c 1.6,2.6 3,4.7 3.2,4.7 0.3,0 2,-0.7 4,-1.5 3.1,-1.3 3.8,-1.3 6.9,0.2 2.9,1.4 3.4,2.2 3.7,5.7 l 0.3,4.1 h 6 6 l 0.3,-4 c 0.2,-3.4 0.8,-4.4 3.5,-5.8 3,-1.7 3.5,-1.7 7.1,-0.2 2.1,0.9 3.9,1.5 4.1,1.3 0.1,-0.2 1.5,-2.3 3,-4.7 l 2.8,-4.5 -3.7,-2.9 c -5,-4 -5,-8 0,-12.2 l 3.5,-3 -2.6,-4.8 c -1.5,-2.6 -2.8,-4.7 -3,-4.7 -0.1,0 -2,0.7 -4,1.6 -3.5,1.4 -4,1.4 -7.1,-0.2 -2.8,-1.5 -3.4,-2.4 -3.6,-5.9 l -0.3,-4 -5.5,-0.3 c -3.1,-0.2 -5.9,0 -6.3,0.4 z m 9.3,6.4 c 0,3 0.5,4.2 1.8,4.7 0.9,0.3 2.9,1.5 4.4,2.5 2.5,1.7 3,1.8 5.7,0.3 4,-2 4.6,-1.9 5.9,1 1,2.2 0.8,2.7 -1.8,4.7 -2.7,1.9 -3,2.8 -3,7.3 0,4.5 0.3,5.4 3,7.3 2.6,2 2.8,2.5 1.8,4.7 -1.3,2.9 -1.9,3 -5.9,1 -2.7,-1.5 -3.2,-1.4 -5.7,0.3 -1.5,1 -3.5,2.1 -4.4,2.5 -1.1,0.4 -1.8,1.9 -2,4.4 -0.3,3.5 -0.6,3.8 -3.5,4.1 -3.2,0.3 -3.3,0.2 -3.3,-3.8 0,-3.5 -0.4,-4.2 -2.7,-5.1 -1.6,-0.6 -3.5,-1.7 -4.5,-2.5 -1.4,-1.4 -2,-1.4 -4.7,0 -4,2.1 -4.6,2 -5.9,-0.8 -1,-2.2 -0.8,-2.8 1.8,-5 2.6,-2.1 3,-3.2 3,-7.3 0,-4.3 -0.4,-5.2 -3,-7.1 -2.6,-2 -2.8,-2.5 -1.8,-4.7 1.3,-2.9 1.9,-3 5.9,-0.9 2.7,1.4 3.3,1.4 4.7,0 1,-0.8 2.9,-1.9 4.5,-2.5 2.3,-0.9 2.7,-1.6 2.7,-5.1 0,-3.9 0.1,-4 3.5,-4 3.4,0 3.5,0.1 3.5,4 z"
       id="path1"
       style="fill:#000000;stroke:none;stroke-width:0.1" />
    <path
       d="m 59.2,49.48923 c -4.6,4.9 -1.2,12.7 5.5,12.7 3.6,0 7.3,-3.8 7.3,-7.5 0,-6.5 -8.4,-9.9 -12.8,-5.2 z m 8.9,2.8 c 1.6,3 -0.3,6.9 -3.4,6.9 -2.9,0 -4.7,-1.7 -4.7,-4.5 0,-4.5 6,-6.3 8.1,-2.4 z"
       id="path2"
       style="fill:#000000;stroke:none;stroke-width:0.1" />
  </g>
</svg>
