<svg version="1.0" width="862.667" height="710.667" viewBox="0 0 647 533"
   xmlns="http://www.w3.org/2000/svg">
   <g
      style="fill:#343537;fill-opacity:1;stroke:#343537;stroke-width:.9975;stroke-dasharray:none;stroke-opacity:1">
      <path
         d="M4773 17947c-101-38-183-148-183-247 0-126 88-237 228-286 23-8 31-14 22-17-86-27-120-46-167-92-103-104-110-254-17-364 40-46 109-90 157-101 32-6 32-6-37-41-88-44-139-95-167-167-49-131 6-268 132-331 48-24 76-31 119-31s71 7 119 31c126 63 181 200 132 331-28 72-79 123-167 167-69 35-69 35-37 41 115 25 223 155 223 270 0 136-87 236-250 287-9 3-1 9 22 17 191 67 276 237 197 396-49 96-133 148-239 148-30 0-69-5-87-11zm-1179-586c-47-21-106-77-131-124-26-47-25-188 1-241 36-72 121-138 201-156 29-6 28-7-35-37-36-16-82-44-101-61-37-32-91-124-104-177l-7-30-13 42c-59 196-243 285-405 197-158-86-188-297-60-424 105-106 273-106 378 0 32 32 78 111 92 160 7 23 8 24 15 5 24-70 65-141 97-170 63-58 95-70 183-70 69 0 86 4 126 27 55 32 103 85 125 136 19 46 21 133 3 192-18 60-96 138-171 170-57 25-73 40-43 40 28 0 114 49 151 86 53 54 74 106 74 189s-21 135-75 190c-55 54-107 75-190 75-47 0-84-7-111-19zm2310 1c-53-25-111-84-135-136-25-56-25-166 0-222 10-23 35-57 55-78 37-37 123-86 151-86 30 0 14-15-43-40-120-51-188-152-185-276 2-91 52-169 142-222 40-23 57-27 126-27 87 0 117 11 181 67 19 17 49 59 66 92 43 83 42 132-2 214-40 76-84 116-170 155-63 30-64 31-35 37 80 18 165 84 201 156 26 53 27 194 1 241-23 42-79 98-120 120-50 26-181 29-233 5z"
         style="fill:#343537;fill-opacity:1;stroke:#343537;stroke-width:.9975;stroke-dasharray:none;stroke-opacity:1"
         transform="matrix(.1 0 0 -.1 -162.593 1804.9)" />
      <path
         d="M6494 16790c-63-25-112-73-153-149-40-76-40-123-1-200 36-73 80-117 145-147 209-98 438 116 360 336-49 139-214 214-351 160zm-2319-584c-60-28-127-98-146-152-22-64-16-151 14-210 86-169 300-203 431-68 56 57 71 98 71 189 0 69-4 86-27 127-72 122-221 172-343 114zm1170 8c-55-19-109-66-143-122-23-41-27-58-27-127 0-91 17-137 72-191 170-170 457-53 456 186 0 77-17 122-70 180-72 81-186 110-288 74zm-2895-577c-56-18-135-104-154-167-32-109-11-197 67-274 58-57 104-76 187-76 72 0 123 17 170 57 48 41 110 143 110 181 0 20 10 7 39-53 27-57 51-92 86-123 55-48 95-62 180-62 126 1 228 85 270 223l13 42 7-30c13-51 53-123 90-159 60-60 89-71 190-71s130 11 191 72c53 53 74 105 74 188s-21 135-74 188c-61 61-90 72-191 72s-130-11-190-71c-38-38-85-122-85-153 0-11-4-23-10-26-5-3-10 2-10 13 0 34-60 140-97 173-61 53-115 72-197 67-123-7-186-53-247-183-24-49-39-71-39-57 0 40-57 138-104 179-25 22-62 45-84 51-48 15-144 14-192-1zm2310 0c-19-6-58-34-87-63-111-111-111-268 1-379 57-56 103-75 186-75s129 19 186 75c79 79 101 165 68 275-20 67-99 150-160 168-50 15-146 14-194-1zm1166 3c-67-21-139-92-165-163-18-46-13-157 8-203 21-47 77-106 124-131 45-25 199-25 244 0 69 37 137 128 158 212l7 30 13-42c29-95 89-167 170-204 45-21 139-25 196-9 61 17 127 84 170 174 29 59 39 73 39 54 0-38 62-140 110-181 47-40 98-57 170-57 83 0 129 19 187 76 111 110 111 268 0 378-58 57-104 76-187 76-75 0-125-18-176-63-47-41-104-139-104-179 0-14-15 8-39 57-62 131-123 176-247 183-82 5-136-14-197-67-37-33-97-139-97-173 0-11-4-16-10-13-5 3-10 15-10 26 0 55-85 170-153 206-37 19-167 27-211 13zm-1727-575c-60-19-131-83-159-142-30-64-32-160-3-223 71-161 281-210 416-99 117 96 130 282 27 388-76 78-183 107-281 76zm1158 1c-126-45-195-151-184-282 18-227 294-325 456-163 76 75 97 204 51 302-56 119-205 185-323 143zm-2325-582c-61-23-136-101-157-164-55-167 56-339 230-357 128-13 249 78 301 225 10 31 13 34 19 17 16-51 57-126 85-158 30-34 138-97 167-97 7 0 13-4 13-10 0-5-9-10-20-10-34 0-118-48-160-91-52-53-74-121-68-208 6-76 23-116 75-167 53-53 105-74 189-74 156 0 265 109 265 266 0 77-24 136-75 187-40 41-124 87-156 87-11 0-20 5-20 10 0 6 6 10 13 10 29 0 137 63 168 97 123 141 84 339-84 430-23 13-55 18-112 18-69 0-86-4-126-27-61-36-95-77-135-163-18-38-33-61-34-50 0 30-52 123-91 162-19 19-52 44-74 56-53 27-155 32-213 11zm1723-8c-104-48-171-152-163-255 8-113 68-193 187-249l74-35-45-12c-160-40-254-207-202-358 28-82 119-162 218-192 15-4 3-14-50-39-79-38-125-80-156-144-85-176 46-382 242-382 115 0 225 80 256 187 41 142-22 268-170 339-53 25-65 35-50 39 99 30 190 110 218 192 52 151-42 318-202 358l-45 12 74 35c119 56 179 136 187 249 10 143-121 279-268 279-37 0-72-8-105-24zm1183 15c-43-14-94-49-127-87-89-100-85-250 8-357 31-34 139-97 168-97 7 0 13-4 13-10 0-5-9-10-20-10-32 0-116-46-156-86-53-54-74-106-74-189 0-160 106-265 264-265 84 0 136 21 189 74 52 51 69 91 75 167 6 87-16 155-68 208-42 43-126 91-160 91-35 0-22 15 29 33 99 35 180 125 216 242 6 17 9 14 19-17 21-61 64-124 107-162 133-114 329-72 409 87 52 104 35 219-43 300-62 63-108 82-197 82-86-1-133-20-189-78-39-39-91-132-91-162-1-11-16 12-34 50-62 132-131 185-244 191-37 2-79 0-94-5z"
         style="fill:#343537;fill-opacity:1;stroke:#343537;stroke-width:.9975;stroke-dasharray:none;stroke-opacity:1"
         transform="matrix(.1 0 0 -.1 -162.593 1804.9)" />
   </g>
</svg>