<svg version="1.0" width="710.667" height="710.667" viewBox="0 0 533 533" xmlns="http://www.w3.org/2000/svg"><path d="M259.5 9.3c-11.1 4.4-18.3 14.4-18.5 25.3-.1 10.8 8.7 22.7 19 25.8 6.7 2 9.3 2 16 0 7.2-2.1 15-9.8 17.5-17.3 4.1-12.5-2-26.8-14.1-32.6-4.7-2.3-15.6-3-19.9-1.2zM84.4 67.6c-5 1.8-10.6 7-13.6 12.7-1.8 3.3-2.3 5.9-2.3 12.2 0 6.9.4 8.6 2.7 12.7 3.5 5.8 9.6 11.1 14.7 12.6 17 5.1 33.7-5.5 35.8-22.8 1.2-10.4-5.4-22.1-15.1-26.6-6-2.8-15.6-3.1-22.2-.8zm345 .8c-9.7 4.5-16.3 16.2-15.1 26.6 1.6 13.7 12.8 24 26 24 3.3 0 7.7-.5 9.8-1.2 5.1-1.5 11.2-6.8 14.7-12.6 2.3-4.1 2.7-5.8 2.7-12.7 0-9.2-2-14-8.1-19.9-7-6.8-20.4-8.7-30-4.2zm-228.1 56.2c-10.5 3.8-17.7 14.2-17.6 25.4.1 11.3 5.4 19.4 16.5 25.1 10 5.1 19.7 3 28.8-6.1 11.2-11.2 11.9-23.4 1.9-36.1-6.3-8-20-11.9-29.6-8.3z" style="fill:#343537;fill-opacity:1"/><path d="M258.4 125.1c-6.6 2.5-11.6 7.4-15.5 15.1-3.8 7.6-3.9 12.2-.4 19.4 5.2 10.6 16.1 18.4 25.5 18.4s20.3-7.8 25.5-18.3c3.5-7.4 3.5-10.9-.2-18.8-3.8-8.1-8.9-13.2-16-15.9-6.7-2.5-12.3-2.5-18.9.1zm59.5-.7c-11.6 4.1-19.8 14.9-19.9 26 0 5.8 4.6 15.1 9.7 19.6 9.4 8.3 18.5 10 28.1 5.1 18.2-9.3 22.4-30 8.7-43.7-7.6-7.6-17.6-10.3-26.6-7z" style="fill:#343537;fill-opacity:1"/><path d="M322.4 180c-4.7 1-13.2 6-16.5 9.7-3.5 4.1-7.9 12.5-7.9 15.3 0 1.1-.4 2-1 2-.5 0-1-.8-1-1.8 0-3-4.8-11.7-8.6-15.6-12.3-12.6-26.5-12.6-38.8 0-3.8 3.9-8.6 12.6-8.6 15.6 0 1-.4 1.8-1 1.8-.5 0-1-.9-1-2 0-2.8-4.4-11.2-8-15.3-1.6-1.9-5.6-4.8-8.9-6.5-7.7-4.2-13.1-4.3-20.9-.3-7.2 3.7-12.4 9-15.7 16.3-1.5 3.2-2.8 5.8-2.9 5.8-.2 0-1.8-2.9-3.5-6.4-9-18.2-29.1-23.1-43.4-10.6-12.4 10.9-11.5 31.1 1.9 41.3 2.7 2 7 4.5 9.7 5.5 4.9 1.7 6.1 3.2 2.7 3.2s-11.8 4.8-16 9.1c-5 5.2-7.4 12.1-6.8 20.2.5 7.3 2.6 12.2 7.4 17.1 3.6 3.7 12.1 8.6 14.9 8.6 3.1 0 1.3 1.7-4.2 4-23 9.5-24.7 39-3 50.7 2.3 1.3 5.5 1.8 11.2 1.8 6.9 0 8.6-.4 12.6-2.7 7.2-4.2 12.5-11.2 15.4-20.3.5-1.6 1.3-.5 3.9 5.1 3.9 8.3 8.7 13.2 16.4 16.9 7.7 3.6 12.5 3.5 20.2-.6 13.4-7.1 20.2-21.4 15.5-32.7-3.7-8.8-11.7-16.2-21.2-19.6-3.2-1.2-3.5-1.5-1.8-2.1 5.7-1.9 11-4.9 14.8-8.5 4.4-4 9.7-13.3 9.7-16.9 0-1.2.5-2.1 1-2.1.6 0 1 .9 1 2 0 2.9 4.4 11.3 8.2 15.5 3.7 4.2 12.3 9.5 15.6 9.5 3.8 0 2.4 1.4-4.3 4.4-3.5 1.5-8.1 4.5-10.1 6.5-4.5 4.4-9.6 14.9-9.6 19.6 0 4.9 4.3 13.6 9.1 18.4 12 12 26.2 12 38.2 0 4.1-4.1 8.9-12.8 8.9-16.2 0-.9.5-1.7 1-1.7.6 0 1 .9 1 2.1 0 3.3 5.9 13.6 9.7 16.9 5.2 4.6 13 8.2 17.7 8.2 5.3 0 14.3-4.2 19.2-9 2-2 5.2-6.8 7-10.6 2.6-5.6 3.4-6.7 3.9-5.1 2.9 9.1 8.2 16.1 15.4 20.3 4 2.3 5.7 2.7 12.6 2.7 5.7 0 8.9-.5 11.2-1.8 13-7 18.3-20.5 13.6-34.2-2.2-6.5-9.1-13.4-16.6-16.5-5.5-2.3-7.3-4-4.2-4 2.7 0 11.3-4.9 14.8-8.3 4.7-4.7 7-10.2 7.5-17.4.6-8.1-1.8-15-6.8-20.2-4.2-4.3-12.6-9.1-16-9.1-3 0-2.4-1.8 1-2.5 4.2-.9 14.1-7.6 16.8-11.4 8.2-11.3 6.5-27.5-3.8-36.4-14.3-12.2-34.2-7.2-43.1 10.9-1.7 3.5-3.3 6.4-3.5 6.4-.1 0-1.4-2.4-2.7-5.4-5.7-12.3-19.6-21.6-29.3-19.6zM240 210.6c0 2.5 4.9 11.3 8.5 15.3 3.5 3.8 13.9 10.1 16.9 10.1.9 0 1.6.4 1.6 1 0 .5-1 1-2.3 1-3.8 0-12.3 4.8-16.2 9.2-3.8 4.2-8.5 13-8.5 16 0 1-.4 1.8-1 1.8-.5 0-1-.9-1-2 0-3.3-5-12.6-8.8-16.5-4.1-4.1-12-8.5-15.2-8.5-2.7 0-2.5-1.6.3-2.4 3.8-.9 11.5-5.5 14.8-8.8 4.2-4.2 8.9-12.7 8.9-16.1 0-1.6.4-2.6 1-2.2.6.3 1 1.3 1 2.1zm58 .6c0 3 5 11.7 8.9 15.6 3.3 3.3 11 7.9 14.8 8.8 2.9.8 3 2.4.1 2.4-3 0-11.6 5-15.5 9-3.5 3.6-8.3 12.9-8.3 16 0 1.1-.4 2-1 2-.5 0-1-.8-1-1.8 0-1.1-1.4-4.6-3.1-8-4.6-9.2-10.3-13.7-22.9-17.9-.9-.3-.1-.9 2.2-1.7 5.7-2 12.3-6.2 15.7-10.1s8.1-12.6 8.1-15c0-.8.5-1.5 1-1.5.6 0 1 1 1 2.2zm-113.6 5c2.4 6.6 8.6 13.1 15.8 16.7 3.4 1.7 6.7 3.1 7.5 3.1.7 0 1.3.4 1.3 1 0 .5-1 1-2.2 1-1.3 0-5 1.5-8.3 3.3-6.9 3.8-12.2 10.2-14.9 17.7-1.7 4.6-3.6 5.9-3.6 2.4 0-2.7-4.9-11.3-8.5-14.9-3.9-3.9-12.3-8.5-15.5-8.5-3.4 0-2.2-1.5 2.8-3.2 8.3-3.1 14.2-8.4 18.6-17.1 2.2-4.2 4.3-7.4 4.6-7 .4.5 1.4 2.9 2.4 5.5zm174.3 1.8c4.3 8.3 10.3 13.8 18.6 16.8 4.9 1.7 6.1 3.2 2.7 3.2-3.3 0-11.8 4.8-15.8 8.9-3.3 3.4-6.8 9.7-8.6 15.4-.7 2.1-2.6 1.4-2.6-.9 0-2.1-4.5-10.6-7.4-14.1-2.8-3.4-13.3-9.3-16.5-9.3-1.2 0-2.1-.5-2.1-1 0-.6.6-1 1.3-1 .8 0 4.1-1.4 7.5-3 8.7-4.4 13.8-10.6 17.6-21.4.8-2.4.7-2.5 5.3 6.4zM298 268.1c0 3.6 5.3 12.9 9.7 16.9 3.8 3.6 9.1 6.6 14.8 8.5 1.7.6 1.4.9-1.8 2.1-5.8 2-14.2 8-17 12.2-3.2 4.5-5.7 10.4-5.7 13.2 0 1.1-.4 2-1 2-.5 0-1-.8-1-1.8 0-3.2-4.8-12-8.9-16.5-2.6-2.8-6.5-5.5-10.6-7.3-6.7-3-8.1-4.4-4.2-4.4 3.3 0 11.9-5.3 15.7-9.6 3.5-4 8-12.8 8-15.7 0-.9.5-1.7 1-1.7.6 0 1 .9 1 2.1zm-108.9 14c2.6 3.7 11.7 9.7 15.9 10.5 1.6.4 3 .9 3 1.3 0 .3-2.6 1.7-5.8 3.1-7.7 3.3-15.3 10.9-17.9 18-2 5.4-4.3 7.7-4.3 4.5s-6.3-13.6-10.3-17c-2.2-1.9-6.4-4.4-9.3-5.6-5.3-2.2-6.9-3.9-3.9-3.9 2.9 0 11.6-5.1 15.3-8.9 3.3-3.4 6.7-9.4 8.7-15.6.5-1.6 1.2-.8 3.5 4.3 1.6 3.4 3.9 7.6 5.1 9.3zM356 269.6c0 2.7 4.9 11.3 8.5 14.9 3.7 3.6 12.2 8.5 15 8.5 3 0 1.4 1.7-3.9 3.9-8 3.3-13 8.1-17.2 16.7-2.1 4.1-4 7.1-4.4 6.7s-1.5-3-2.5-5.8c-2.4-6.6-10.3-14.3-17.7-17.5-3.2-1.4-5.8-2.8-5.8-3.1 0-.4 1.4-.9 3-1.3 8.5-1.6 17.5-10.6 21.6-21.2 1.6-4.1 3.4-5.1 3.4-1.8zM27 240.3c-1.9.6-5.8 3.4-8.7 6.3-11.1 11.1-11.1 26.8.1 37.9 5.7 5.6 10.3 7.5 18.6 7.5 10.5 0 18.3-4.5 23.8-13.8 2.3-4.1 2.7-5.8 2.7-12.7 0-6.3-.5-8.9-2.2-12.1-2.9-5.4-10.1-11.7-15.1-13.2-4.8-1.5-14.4-1.4-19.2.1zm462.2 0c-4.5 1.4-11.8 8-14.5 13.1-1.7 3.2-2.2 5.8-2.2 12.1 0 6.9.4 8.6 2.7 12.7 3.5 5.8 9.6 11.1 14.7 12.6 5 1.5 13.3 1.5 18.5 0 6.1-1.8 14-10.1 16-16.8 3.2-10.9 1.1-19.7-6.7-27.4-3.3-3.3-6.7-5.6-9.3-6.4-4.9-1.4-14.6-1.4-19.2.1z" style="fill:#343537;fill-opacity:1"/><path d="M200 356.1c-11.3 6.2-16.3 13.9-16.3 24.9 0 24.1 28.6 35.7 45.8 18.5 3.9-3.9 8.5-12.3 8.5-15.5 0-1.1.5-2 1-2 .6 0 1 .7 1 1.5 0 2.8 5 11.6 9.2 16.1 4.5 4.8 12.4 8.4 18.8 8.4s14.3-3.6 18.8-8.4c4.2-4.5 9.2-13.3 9.2-16.1 0-.8.5-1.5 1-1.5.6 0 1 .9 1 2 0 3.2 4.6 11.6 8.5 15.5 10.6 10.5 25.8 11.1 36.8 1.5 12-10.6 12.3-28.9.6-39.4-12-10.9-22.9-11.2-35.5-1.1-4.2 3.5-10.4 13.8-10.4 17.4 0 3.3-1.7 2.5-2.4-1.2-.8-4.4-7.3-14-11.6-17.2-11.3-8.5-20.9-8.5-32-.1-4.3 3.3-10.8 12.9-11.6 17.3-.7 3.7-2.4 4.5-2.4 1.2 0-3.6-6.2-13.9-10.4-17.4-10.3-8.3-18.3-9.6-27.6-4.4zM85.2 413.2c-1.9.6-5.5 3.1-8.2 5.5-11.7 10.5-11.9 28.6-.4 39.7 10 9.7 29.2 8.6 38.6-2.3 3.7-4.4 6.8-12.3 6.8-17.6 0-5-2.9-12.9-6.2-16.9-5.1-6.2-10.9-8.9-19.7-9.2-4.2-.2-9.1.2-10.9.8zm344 1.4c-6.5 3.2-11.4 8.9-13.5 15.5-2.1 6.3-2.1 10.1-.2 16.5 3.2 10.8 13.5 18.4 25.1 18.4 11.3 0 19.6-4.8 24.6-14.3 3.2-5.9 3.2-18.4.1-24.3-2.9-5.4-10.1-11.7-15.1-13.2-6.8-2.1-15.2-1.5-21 1.4zM259 471c-7 2.4-14.1 9.7-16.5 17.1C236.9 505 250 523 268 523s31.1-18 25.5-35c-2.5-7.6-10.2-15.3-17.4-17.4-7-2-10.3-2-17.1.4z" style="fill:#343537;fill-opacity:1"/></svg>