<?xml version="1.0" encoding="UTF-8" standalone="no"?>
<svg
   id="elCQD8zTZci1"
   viewBox="0 0 458.00201 215"
   shape-rendering="geometricPrecision"
   text-rendering="geometricPrecision"
   version="1.1"
   sodipodi:docname="sunrise.svg"
   width="458.00201"
   height="215"
   inkscape:version="1.3 (0e150ed6c4, 2023-07-21)"
   xmlns:inkscape="http://www.inkscape.org/namespaces/inkscape"
   xmlns:sodipodi="http://sodipodi.sourceforge.net/DTD/sodipodi-0.dtd"
   xmlns="http://www.w3.org/2000/svg"
   xmlns:svg="http://www.w3.org/2000/svg">
  <defs
     id="defs369">
    <inkscape:path-effect
       effect="fillet_chamfer"
       id="path-effect370"
       is_visible="true"
       lpeversion="1"
       nodesatellites_param="F,0,0,1,0,0,0,1 @ F,0,0,1,0,0,0,1 @ F,0,0,1,0,0,0,1"
       radius="0"
       unit="px"
       method="auto"
       mode="F"
       chamfer_steps="1"
       flexible="false"
       use_knot_distance="true"
       apply_no_radius="true"
       apply_with_radius="true"
       only_selected="false"
       hide_knots="false" />
    <inkscape:path-effect
       effect="fillet_chamfer"
       id="path-effect369"
       is_visible="true"
       lpeversion="1"
       nodesatellites_param="F,0,0,1,0,0,0,1 @ F,0,0,1,0,0,0,1"
       radius="0"
       unit="px"
       method="auto"
       mode="F"
       chamfer_steps="1"
       flexible="false"
       use_knot_distance="true"
       apply_no_radius="true"
       apply_with_radius="true"
       only_selected="false"
       hide_knots="false" />
  </defs>
  <sodipodi:namedview
     id="namedview369"
     pagecolor="#ffffff"
     bordercolor="#eeeeee"
     borderopacity="1"
     inkscape:showpageshadow="0"
     inkscape:pageopacity="0"
     inkscape:pagecheckerboard="0"
     inkscape:deskcolor="#d0d0d0"
     inkscape:zoom="1.6351575"
     inkscape:cx="306.69828"
     inkscape:cy="122.61816"
     inkscape:window-width="1366"
     inkscape:window-height="699"
     inkscape:window-x="0"
     inkscape:window-y="0"
     inkscape:window-maximized="1"
     inkscape:current-layer="g369"
     showgrid="true">
    <inkscape:grid
       id="grid1"
       units="px"
       originx="0"
       originy="0"
       spacingx="0.99999999"
       spacingy="1"
       empcolor="#0099e5"
       empopacity="0.30196078"
       color="#0099e5"
       opacity="0.14901961"
       empspacing="5"
       dotted="false"
       gridanglex="30"
       gridanglez="30"
       visible="true" />
  </sodipodi:namedview>
  <g
     id="g369"
     transform="matrix(0.6909449,0,0,0.6909449,-14.990318,-461.43368)">
    <g
       id="g3"
       transform="translate(0,-0.67041657)">
      <path
         d="m 172.01264,896.51575 0.0247,-4.09835 c 119.41136,0.0666 238.82366,0.007 358.2353,-0.01 -0.004,0.0203 -0.0121,4.16531 -0.0121,4.16531 z"
         fill="#b3b5b5"
         id="path33-5"
         sodipodi:nodetypes="ccccc"
         style="stroke-width:0.540777" />
      <path
         d="m 242.11345,927.02136 c 72.71724,-0.13204 218.73758,-0.0442 218.73758,-0.0442 l -0.0241,4.13667 H 242.1358 l -0.0223,-4.09331 z"
         fill="#b3b5b5"
         id="path35-9"
         sodipodi:nodetypes="cccccc"
         style="stroke-width:0.629635" />
      <path
         d="m 393.65222,960.89522 -0.004,4.16019 -84.50108,-0.0477 0.0422,-4.11766 84.4629,0.007 z"
         fill="#b3b5b5"
         id="path36-2"
         sodipodi:nodetypes="cccccc"
         style="stroke-width:0.547747" />
      <path
         d="m 351.07261,771.48805 v 0 c 0,0 13.29316,14.46075 13.33221,14.34156 l -2.06205,2.93369 -9.21573,-9.27965 v 0 c -5.6e-4,-0.0136 -0.009,48.96728 -0.009,48.96728 l -4.38463,-0.0136 0.2122,-48.70949 -8.74145,9.0227 c 0,0 -2.53938,-2.68121 -2.4197,-2.92095 0.002,-0.0334 13.28823,-14.34156 13.28823,-14.34156 z"
         fill="#424446"
         id="path362-2"
         sodipodi:nodetypes="ccccccccccccc"
         style="stroke-width:0.565956" />
      <path
         id="path1"
         style="fill:#343537;stroke:#343537;stroke-width:0.216176;stroke-linejoin:round"
         d="m 353.52132,726.01564 c -76.4555,9.6e-4 -138.43437,61.03823 -138.43418,136.33108 -0.0394,-3.7e-4 276.87119,0 276.87119,0 1.9e-4,-75.29393 -61.9804,-136.33166 -138.43701,-136.33108 z m 0,5.31146 c 73.47695,5.4e-4 133.04133,58.66003 133.04075,131.01962 0,0 -262.2456,0.86781 -266.0815,0 -5.8e-4,-72.35959 59.5638,-131.01908 133.04075,-131.01962 z"
         sodipodi:nodetypes="cccccccc" />
      <path
         id="path2"
         style="fill:#b3b5b5;fill-opacity:1;stroke:#b3b5b5;stroke-width:0.279212;stroke-linejoin:round;stroke-opacity:1"
         d="m 353.52092,683.25296 c -98.74927,10e-4 -178.80064,78.83643 -178.8004,176.08402 -0.0509,-4.7e-4 357.60443,0 357.60443,0 C 532.3252,762.088 452.2716,683.25219 353.52092,683.25296 Z m 0,3.98361 c 94.90218,7e-4 174.71163,78.6414 174.71088,172.10041 0,0 -344.46736,1.12087 -349.42178,0 -7.5e-4,-93.45901 79.80869,-172.09971 174.7109,-172.10041 z"
         sodipodi:nodetypes="cccccccc" />
      <path
         d="M 61.519739,858.85451 H 644.73433 v 4.16584 H 61.519739 Z"
         fill="#2b2d2f"
         stroke-width="2.71709"
         id="path141-3"
         inkscape:transform-center-x="7.3423712"
         inkscape:transform-center-y="-56.125478"
         sodipodi:nodetypes="ccccc" />
    </g>
  </g>
</svg>
