<svg viewBox="0 0 458.002 215" shape-rendering="geometricPrecision"
   text-rendering="geometricPrecision" width="458.002" height="215"
   xmlns="http://www.w3.org/2000/svg">
   <path
      d="m172.013 895.845.024-4.098c119.412.067 238.824.007 358.236-.01-.004.02-.012 4.165-.012 4.165z"
      fill="#b3b5b5" style="stroke-width:.540777"
      transform="translate(-14.99 -461.434) scale(.69094)" />
   <path d="M242.113 926.35c72.718-.131 218.738-.043 218.738-.043l-.024 4.136H242.136l-.023-4.093z"
      fill="#b3b5b5" style="stroke-width:.629635"
      transform="translate(-14.99 -461.434) scale(.69094)" />
   <path d="m393.652 960.225-.004 4.16-84.5-.048.041-4.117 84.463.007z" fill="#b3b5b5"
      style="stroke-width:.547747" transform="translate(-14.99 -461.434) scale(.69094)" />
   <path
      d="M351.113 827.78s-13.294-14.46-13.333-14.341l2.062-2.934 9.216 9.28.01-48.967 4.384.013-.212 48.71 8.741-9.023s2.54 2.681 2.42 2.921c-.002.033-13.289 14.342-13.289 14.342z"
      fill="#424446" style="stroke-width:.565956"
      transform="translate(-14.99 -461.434) scale(.69094)" />
   <path style="fill:#343537;stroke:#343537;stroke-width:.216176;stroke-linejoin:round"
      d="M353.521 725.345c-76.455.001-138.434 61.038-138.434 136.331h276.871c0-75.294-61.98-136.331-138.437-136.33zm0 5.312c73.477 0 133.042 58.66 133.041 131.02 0 0-262.246.867-266.081 0-.001-72.36 59.563-131.02 133.04-131.02z"
      transform="translate(-14.99 -461.434) scale(.69094)" />
   <path
      style="fill:#b3b5b5;fill-opacity:1;stroke:#b3b5b5;stroke-width:.279212;stroke-linejoin:round;stroke-opacity:1"
      d="M353.52 682.583c-98.748 0-178.8 78.836-178.8 176.084h357.605c0-97.25-80.053-176.085-178.804-176.084zm0 3.983c94.903 0 174.713 78.642 174.712 172.1 0 0-344.468 1.121-349.422 0 0-93.458 79.809-172.1 174.71-172.1z"
      transform="translate(-14.99 -461.434) scale(.69094)" />
   <path d="M27.517 131.52h402.966v2.878H27.517Z" fill="#2b2d2f" />
</svg>