<svg version="1.0" width="862.667" height="710.667" viewBox="0 0 647 533"
   xmlns="http://www.w3.org/2000/svg">
   <g
      style="fill:#343537;fill-opacity:1;stroke-width:.99749958;stroke-dasharray:none;stroke:#343537;stroke-opacity:1">
      <path
         d="M5341 17523c-25-9-66-37-91-62-106-106-106-274 0-379 34-34 138-92 165-92 9 0 13-4 10-10-3-5-15-10-26-10-31 0-115-46-153-84-47-48-86-134-86-191 0-110 120-251 233-275 32-6 32-6-34-38-121-58-199-161-199-263 0-130 147-279 275-279 91 0 212 86 250 177 21 50 23 126 5 188-18 65-93 141-172 175-57 25-73 40-43 40 28 0 114 49 151 87 143 143 78 392-119 453-63 20-63 21-3 45 108 44 174 117 196 217 24 112-38 236-144 290-54 28-156 33-215 11zm-581-576c-56-18-135-104-154-167-20-67-20-103-1-166 25-85 122-175 208-194 32-6 32-7-39-43-87-44-126-81-164-158-38-74-39-127-5-196 53-106 160-183 255-183 108 0 226 97 269 221 21 58 16 90-24 169-33 64-79 107-160 148l-70 36 33 7c44 9 134 70 166 112 36 48 68 124 68 164 0 87-105 226-190 251-48 15-144 14-192-1zm-564-573c-68-22-147-102-166-169-18-62-16-138 5-188 38-91 159-177 250-177 128 0 275 149 275 279 0 91-70 195-162 242-54 28-139 33-202 13z"
         style="fill:#343537;fill-opacity:1;stroke-width:.99749958;stroke-dasharray:none;stroke:#343537;stroke-opacity:1"
         transform="matrix(.1 0 0 -.1 -162.438 1762.925)" />
      <path
         d="M5404 15820c-47-10-132-60-165-97-35-41-79-125-79-153 0-11-4-20-10-20-5 0-10 8-10 18 0 30-48 117-86 156-123 126-265 126-388 0-38-39-86-126-86-156 0-10-4-18-10-18-5 0-10 9-10 20 0 28-44 112-80 153-44 50-138 97-194 97-98 0-212-85-263-196-13-30-26-54-27-54-2 0-18 29-35 64-88 179-289 231-429 110-105-89-123-251-40-365 29-40 130-107 174-115 35-6 37-24 3-24-31 0-115-47-154-85-38-39-85-123-85-154 0-11-4-23-10-26-5-3-10 2-10 12 0 29-45 116-79 155-67 77-187 108-293 76-50-15-122-78-151-132-31-58-31-184 0-242 29-54 101-117 151-132 162-49 316 39 367 211l13 42 11-42c13-49 75-143 113-173 64-49 174-64 261-34 78 26 147 110 182 219 4 15 15 1 45-62 22-45 54-93 71-108 37-31 122-75 144-75 31 0 13-17-42-40-79-33-154-109-173-175-42-145 18-274 158-340 77-36 125-35 202 6 69 36 109 78 145 149 61 120 1 264-140 344-27 14-59 29-72 32-29 8-30 24 0 24s115 50 154 92c47 49 83 128 83 182 0 92-78 204-179 255-22 12-49 21-60 21s-23 5-26 10c-3 6 2 10 11 10 28 0 123 53 160 88 42 41 94 129 94 160 0 12 5 22 10 22 6 0 10-7 10-16 0-30 63-134 101-169 41-36 128-85 154-85 8 0 15-4 15-10 0-5-9-10-21-10-37 0-127-50-164-92-46-50-87-137-87-183 0-44 40-131 82-179 38-43 124-96 158-96 37 0 25-14-36-40-31-13-77-43-101-65-53-48-101-144-101-200 0-88 80-200 179-250 96-48 201-25 292 66 41 41 89 128 89 162 0 9 5 17 10 17 6 0 10-9 10-21 0-33 59-136 97-169 52-46 130-82 177-82 53 0 143 42 192 90 20 20 52 68 70 106 26 56 34 67 39 51 29-91 82-161 154-203 40-23 57-27 126-27s86 4 126 27c97 57 144 143 137 250-7 119-73 204-195 253-46 19-54 25-38 30 131 42 220 131 250 250l7 30 13-42c41-137 144-222 269-223 81 0 129 17 182 63 68 60 89 106 89 202s-21 142-89 202c-53 46-101 63-183 63-72 0-147-34-194-88-34-39-79-126-79-155 0-10-4-15-10-12-5 3-10 15-10 26 0 33-48 117-91 159-69 66-182 88-282 54-78-26-147-110-182-219-4-15-15-1-45 62-22 45-54 93-71 108-41 33-122 75-149 75-11 0-20 5-20 10 0 6 6 10 13 10 26 0 116 49 155 84 77 70 108 207 68 299-46 105-191 196-282 177zm-210-393c14-26 42-61 60-79 36-35 132-88 159-88 10 0 17-4 17-10 0-5-12-10-27-10-35 0-118-47-160-90-45-46-83-131-83-186 0-58 45-148 99-197 46-41 111-77 141-77 27 0 25-16-3-24-40-10-118-57-154-94-38-38-83-124-83-159 0-13-4-23-10-23-5 0-10 8-10 18 0 32-48 120-89 165-26 28-65 55-106 73-67 30-81 44-42 44 33 0 119 53 157 96 42 48 82 135 82 179 0 46-41 133-87 183-37 42-127 92-164 92-12 0-21 5-21 10 0 6 7 10 15 10 26 0 113 49 154 86 34 30 85 116 107 179 6 16 8 13 14-16 3-20 19-57 34-82zm-1170 31c24-66 86-131 158-167 34-17 67-31 75-31 7 0 13-4 13-10 0-5-9-10-21-10-32 0-137-59-165-93-29-35-74-120-74-141 0-23-19-30-26-9-18 57-53 120-86 154-40 41-125 89-158 89-34 0-22 15 28 32 83 31 142 84 186 171 22 42 43 74 46 70 4-5 14-29 24-55zm1716-534c0-28 51-115 89-152 34-33 96-68 156-87 15-5 7-11-39-30-33-13-75-37-95-53-40-32-99-122-108-165-8-40-22-29-46 33-27 72-103 148-179 180-57 23-74 40-42 40 30 0 135 63 165 99 16 19 41 63 56 97 25 58 43 74 43 38z"
         style="fill:#343537;fill-opacity:1;stroke-width:.99749958;stroke-dasharray:none;stroke:#343537;stroke-opacity:1"
         transform="matrix(.1 0 0 -.1 -162.438 1762.925)" />
      <path
         d="M4180 14059c-105-58-161-138-164-234-3-122 55-210 181-272 72-35 74-38 47-44-82-17-172-90-207-167-68-155 27-331 208-387 15-5 4-14-52-41-121-58-180-148-177-270 3-131 108-239 244-251 149-14 276 93 287 241 12 140-64 242-222 302-27 11-28 12-10 19 148 51 245 159 245 273 0 121-117 259-240 282-30 6-32 8-15 15 63 24 132 64 166 97 41 40 89 125 89 158 0 11 5 20 10 20 6 0 10-7 10-15 0-27 50-116 90-159 25-27 67-55 112-76 71-33 72-34 42-40-94-20-177-90-221-187-34-73-32-119 8-194 58-109 137-159 249-159 83 0 129 19 186 75 80 79 102 168 67 274-29 91-120 170-217 191-30 6-29 7 42 40 45 21 87 49 112 76 40 43 90 132 90 159 0 8 5 15 10 15 6 0 10-9 10-20 0-32 46-116 85-155 112-111 269-112 380-1 138 138 94 345-94 441-93 47-192 24-281-65-42-42-90-127-90-160 0-11-4-20-10-20-5 0-10 7-10 17 0 29-54 124-92 162-51 51-133 91-188 91s-137-40-188-91c-38-38-92-133-92-162 0-10-4-17-10-17-5 0-10 9-10 20 0 33-48 118-90 160-92 92-193 113-290 59z"
         style="fill:#343537;fill-opacity:1;stroke-width:.99749958;stroke-dasharray:none;stroke:#343537;stroke-opacity:1"
         transform="matrix(.1 0 0 -.1 -162.438 1762.925)" />
   </g>
</svg>