<svg width="458.002" viewBox="0 0 458.002 255" xml:space="preserve" height="255" xmlns="http://www.w3.org/2000/svg"><path style="fill:#c4c7c7;fill-opacity:1;stroke:#c4c7c7;stroke-width:.446804;stroke-dasharray:none;stroke-opacity:1" d="M229.001 5.172c-67.94 0-123.015 54.976-123.015 122.793 0 67.817 55.075 122.793 123.015 122.793s123.015-54.976 123.015-122.793c0-67.817-55.076-122.793-123.015-122.793Zm0 3.504c66 0 119.504 53.408 119.504 119.29 0 65.88-53.52 119.834-119.52 119.834s-119.488-53.953-119.488-119.835C109.497 62.084 163 8.676 229 8.676Z"/><path style="fill:#c4c7c7;fill-opacity:1;stroke:#c4c7c7;stroke-width:.297465;stroke-opacity:1" d="M229.001 142c-67.94 0-123.015 24.346-123.015 54.38 0 30.032 55.076 54.378 123.015 54.378 67.94 0 123.015-24.346 123.015-54.379 0-30.033-55.076-54.379-123.015-54.379Zm0 3.182c66 0 119.504 22.022 119.504 51.197 0 29.176-53.52 51.42-119.52 51.42s-119.504-21.698-119.504-50.874c0-29.176 53.52-51.743 119.52-51.743z"/><path style="fill:#c4c7c7;fill-opacity:1;stroke:#c4c7c7;stroke-width:.228078;stroke-opacity:1" d="M229.001 186.006c-67.94 0-123.015 15.128-123.015 32.784S161.062 250.758 229 250.758c67.94 0 123.015-14.312 123.015-31.968S296.939 186.006 229 186.006zm0 2.542c66 0 119.504 13.09 119.504 30.242s-53.52 29.01-119.52 29.01-119.488-11.858-119.488-29.01S163 188.548 229 188.548z"/><path style="fill:#c4c7c7;fill-opacity:1;stroke:#c4c7c7;stroke-width:.403076;stroke-opacity:1" d="M229.001 50.806c-67.94 0-123.015 44.704-123.015 99.85 0 55.144 54.762 100.588 122.702 100.588S352.016 205.8 352.016 150.655c0-55.145-55.075-99.85-123.015-99.85zm0 2.85c66 0 119.504 41.475 119.504 95.047 0 53.57-53.833 99.097-119.833 99.097s-119.175-43.574-119.175-97.145 53.504-97 119.504-97z"/><path style="fill:#c4c7c7;fill-opacity:1;stroke:#c4c7c7;stroke-width:.412586;stroke-dasharray:none;stroke-opacity:1" d="M229.001 94c-67.94 0-123.015 35.09-123.015 78.379 0 43.288 55.076 78.38 123.015 78.38 67.94 0 123.015-35.092 123.015-78.38s-55.076-78.38-123.015-78.38zm0 3.144c66 0 119.504 33.182 119.504 75.235 0 42.052-53.52 75.42-119.52 75.42s-119.488-33.368-119.488-75.42c0-42.053 53.504-75.234 119.504-75.235z"/><path style="fill:#000;fill-opacity:1;stroke:#000;stroke-width:1.15535;stroke-linejoin:round;stroke-opacity:1" d="M229.337 229.578a122.843 10.591 0 0 0-122.842 10.591 122.843 10.591 0 0 0 122.842 10.592A122.843 10.591 0 0 0 352.18 240.17a122.843 10.591 0 0 0-122.844-10.591zm.156 1.855a119.781 8.789 0 0 1 119.781 8.79 119.781 8.789 0 0 1-119.78 8.788 119.781 8.789 0 0 1-119.782-8.789 119.781 8.789 0 0 1 119.781-8.789z"/></svg>