<?xml version="1.0" encoding="UTF-8" standalone="no"?>
<svg
   version="1.1"
   id="Layer_1"
   x="0px"
   y="0px"
   width="458.00201"
   viewBox="0 0 458.00201 255"
   enable-background="new 0 0 1080 2412"
   xml:space="preserve"
   sodipodi:docname="uv_index.svg"
   height="255"
   inkscape:version="1.3 (0e150ed6c4, 2023-07-21)"
   xmlns:inkscape="http://www.inkscape.org/namespaces/inkscape"
   xmlns:sodipodi="http://sodipodi.sourceforge.net/DTD/sodipodi-0.dtd"
   xmlns="http://www.w3.org/2000/svg"
   xmlns:svg="http://www.w3.org/2000/svg"><defs
   id="defs458" /><sodipodi:namedview
   id="namedview458"
   pagecolor="#ffffff"
   bordercolor="#eeeeee"
   borderopacity="1"
   inkscape:showpageshadow="0"
   inkscape:pageopacity="0"
   inkscape:pagecheckerboard="0"
   inkscape:deskcolor="#505050"
   showgrid="true"
   inkscape:zoom="1.156231"
   inkscape:cx="234.81468"
   inkscape:cy="140.54286"
   inkscape:window-width="1366"
   inkscape:window-height="699"
   inkscape:window-x="0"
   inkscape:window-y="0"
   inkscape:window-maximized="1"
   inkscape:current-layer="Layer_1"><inkscape:grid
     id="grid458"
     units="px"
     originx="0"
     originy="0"
     spacingx="1"
     spacingy="1"
     empcolor="#0099e5"
     empopacity="0.30196078"
     color="#0099e5"
     opacity="0.14901961"
     empspacing="5"
     dotted="false"
     gridanglex="30"
     gridanglez="30"
     visible="true" /></sodipodi:namedview>&#10;&#10;&#10;&#10;&#10;&#10;&#10;&#10;&#10;&#10;&#10;&#10;&#10;&#10;&#10;&#10;&#10;&#10;&#10;&#10;&#10;&#10;&#10;&#10;&#10;&#10;&#10;&#10;&#10;&#10;&#10;&#10;&#10;&#10;&#10;&#10;&#10;&#10;&#10;&#10;&#10;&#10;&#10;&#10;&#10;&#10;&#10;&#10;&#10;&#10;&#10;&#10;&#10;&#10;&#10;&#10;&#10;&#10;&#10;&#10;&#10;&#10;&#10;&#10;&#10;&#10;&#10;&#10;&#10;&#10;&#10;&#10;&#10;&#10;&#10;&#10;&#10;&#10;&#10;&#10;&#10;&#10;&#10;&#10;&#10;&#10;&#10;&#10;&#10;&#10;&#10;&#10;&#10;&#10;&#10;&#10;&#10;&#10;&#10;&#10;&#10;&#10;&#10;&#10;&#10;&#10;&#10;&#10;&#10;&#10;&#10;&#10;&#10;&#10;&#10;&#10;&#10;&#10;&#10;&#10;&#10;&#10;&#10;&#10;&#10;&#10;&#10;&#10;&#10;&#10;&#10;&#10;&#10;&#10;&#10;&#10;&#10;&#10;&#10;&#10;&#10;&#10;&#10;&#10;&#10;&#10;&#10;&#10;&#10;&#10;&#10;&#10;&#10;&#10;&#10;&#10;&#10;&#10;&#10;&#10;&#10;&#10;&#10;&#10;&#10;&#10;&#10;&#10;&#10;&#10;&#10;&#10;&#10;&#10;&#10;&#10;&#10;&#10;&#10;&#10;&#10;&#10;&#10;&#10;&#10;&#10;&#10;&#10;&#10;&#10;&#10;&#10;&#10;&#10;&#10;&#10;&#10;&#10;&#10;&#10;&#10;&#10;&#10;&#10;&#10;&#10;&#10;&#10;&#10;&#10;&#10;&#10;&#10;&#10;&#10;&#10;&#10;&#10;&#10;&#10;&#10;&#10;&#10;&#10;&#10;&#10;&#10;&#10;&#10;&#10;&#10;&#10;&#10;&#10;&#10;&#10;&#10;&#10;&#10;&#10;&#10;&#10;&#10;&#10;&#10;&#10;&#10;&#10;&#10;&#10;&#10;&#10;&#10;&#10;&#10;&#10;&#10;&#10;&#10;&#10;&#10;&#10;&#10;&#10;&#10;&#10;&#10;&#10;&#10;&#10;&#10;&#10;&#10;&#10;&#10;&#10;&#10;&#10;&#10;&#10;&#10;&#10;&#10;&#10;&#10;&#10;&#10;&#10;&#10;&#10;&#10;&#10;&#10;&#10;&#10;&#10;&#10;&#10;&#10;&#10;&#10;&#10;&#10;&#10;&#10;&#10;&#10;&#10;&#10;&#10;&#10;&#10;&#10;&#10;&#10;&#10;&#10;&#10;&#10;&#10;&#10;&#10;&#10;&#10;&#10;&#10;&#10;&#10;&#10;&#10;&#10;&#10;&#10;&#10;&#10;&#10;&#10;&#10;&#10;&#10;&#10;&#10;&#10;&#10;&#10;&#10;&#10;&#10;&#10;&#10;&#10;&#10;&#10;&#10;&#10;&#10;&#10;&#10;&#10;&#10;&#10;&#10;&#10;&#10;&#10;&#10;&#10;&#10;&#10;&#10;&#10;&#10;&#10;&#10;&#10;&#10;&#10;&#10;&#10;&#10;&#10;&#10;&#10;&#10;&#10;&#10;&#10;&#10;&#10;&#10;&#10;&#10;&#10;&#10;&#10;&#10;&#10;&#10;&#10;&#10;&#10;&#10;&#10;&#10;&#10;&#10;&#10;&#10;&#10;&#10;&#10;&#10;&#10;&#10;&#10;&#10;&#10;&#10;&#10;&#10;&#10;&#10;&#10;&#10;&#10;&#10;&#10;&#10;&#10;&#10;&#10;&#10;&#10;&#10;&#10;&#10;&#10;&#10;&#10;&#10;&#10;&#10;&#10;&#10;&#10;&#10;&#10;&#10;&#10;&#10;&#10;&#10;&#10;&#10;&#10;&#10;&#10;&#10;&#10;<g
   id="g1"><path
     id="path479-5"
     style="fill:#c4c7c7;fill-opacity:1;stroke:#c4c7c7;stroke-width:0.446804;stroke-dasharray:none;stroke-opacity:1"
     d="M 229.001,5.1718608 C 161.06151,5.1718192 105.98567,60.148238 105.98569,127.96507 c -5e-5,67.81701 55.07581,122.79343 123.01531,122.79336 67.9395,7e-5 123.01537,-54.97635 123.01533,-122.79336 C 352.01635,60.148227 296.94049,5.1718122 229.001,5.1718608 Z m 0,3.5045334 c 66.00048,3.12e-5 119.50442,53.4073948 119.50447,119.2886758 -2e-5,65.8815 -53.51966,119.83464 -119.52014,119.83467 -66.00047,-3e-5 -119.48878,-53.95317 -119.4888,-119.83467 C 109.49658,62.083793 163.00052,8.6764358 229.001,8.6763942 Z"
     sodipodi:nodetypes="cssscsssss" /><path
     id="path484-0"
     style="fill:#c4c7c7;fill-opacity:1;stroke:#c4c7c7;stroke-width:0.297465;stroke-opacity:1"
     d="m 229.001,142 c -67.93949,0 -123.01535,24.34647 -123.01531,54.37932 -4e-5,30.03268 55.07582,54.37911 123.01531,54.37911 67.93949,0 123.01533,-24.34643 123.01533,-54.37911 C 352.01633,166.34647 296.94049,142 229.001,142 Z m 0,3.18185 c 66.00049,0 119.50443,22.02174 119.50447,51.19747 -4e-5,29.17549 -53.51966,51.42042 -119.52014,51.42042 -66.00047,0 -119.50441,-21.6991 -119.50443,-50.87459 2e-5,-29.17566 53.5196,-51.7433 119.5201,-51.7433 z"
     sodipodi:nodetypes="ssssssssss" /><path
     id="path485-3"
     style="fill:#c4c7c7;fill-opacity:1;stroke:#c4c7c7;stroke-width:0.228078;stroke-opacity:1"
     d="m 229.001,186.00624 c -67.93949,0 -123.01535,15.1278 -123.01531,32.78346 -4e-5,17.65583 55.07582,31.96873 123.01531,31.96873 67.93949,0 123.01533,-14.3129 123.01533,-31.96873 0,-17.65566 -55.07584,-32.78346 -123.01533,-32.78346 z m 0,2.54218 c 66.00049,0 119.50443,13.08953 119.50447,30.24128 -4e-5,17.15188 -53.51966,29.01004 -119.52014,29.01004 -66.00046,0 -119.48877,-11.85816 -119.4888,-29.01004 3e-5,-17.15175 53.50398,-30.24128 119.50447,-30.24128 z"
     sodipodi:nodetypes="ssssssssss" /><path
     id="path486-6"
     style="fill:#c4c7c7;fill-opacity:1;stroke:#c4c7c7;stroke-width:0.403076;stroke-opacity:1"
     d="m 229.00099,50.805934 c -67.9395,0 -123.01536,44.703945 -123.01532,99.849196 -4e-5,55.14502 54.76239,100.5887 122.70189,100.58867 67.93949,3e-5 123.32882,-45.44365 123.32878,-100.58867 4e-5,-55.145251 -55.07581,-99.849196 -123.01535,-99.849196 z m 0,2.849726 c 66.00048,3.8e-5 119.50445,41.475522 119.50445,95.04687 -4e-5,53.57132 -53.83311,99.09718 -119.83355,99.09721 -66.00045,-3e-5 -119.17526,-43.57333 -119.17531,-97.14461 1e-5,-53.571374 53.50396,-96.999432 119.50441,-96.99947 z"
     sodipodi:nodetypes="ssssssssss" /><path
     id="path487-1"
     style="fill:#c4c7c7;fill-opacity:1;stroke:#c4c7c7;stroke-width:0.412586;stroke-dasharray:none;stroke-opacity:1"
     d="m 229.00101,93.999127 c -67.93949,-4.2e-5 -123.01533,35.091753 -123.01525,78.379863 1.7e-4,43.28772 55.07594,78.37951 123.01525,78.37944 67.93932,7e-5 123.01508,-35.09172 123.01524,-78.37944 9e-5,-43.28811 -55.07575,-78.379905 -123.01524,-78.379863 z m 0,3.145341 c 66.00037,4.2e-5 119.50422,33.181912 119.50439,75.234522 -2.1e-4,42.05232 -53.51975,75.42072 -119.52006,75.42075 -66.00032,-3e-5 -119.48854,-33.36843 -119.48871,-75.42075 1.4e-4,-42.05261 53.504,-75.23448 119.50438,-75.234522 z"
     sodipodi:nodetypes="sssssscscs" /><path
     id="path140"
     style="fill:#000000;fill-opacity:1;stroke:#000000;stroke-width:1.15535;stroke-linejoin:round;stroke-opacity:1"
     d="m 229.33681,229.57768 a 122.84259,10.591444 0 0 0 -122.84179,10.5918 122.84259,10.591444 0 0 0 122.84179,10.5918 122.84259,10.591444 0 0 0 122.84375,-10.5918 122.84259,10.591444 0 0 0 -122.84375,-10.5918 z m 0.15626,1.85548 a 119.78145,8.7887743 0 0 1 119.78124,8.78905 119.78145,8.7887743 0 0 1 -119.78124,8.78907 119.78145,8.7887743 0 0 1 -119.78125,-8.78907 119.78145,8.7887743 0 0 1 119.78125,-8.78905 z" /></g></svg>
